<svg id="baf9daee-f36d-44b4-9c80-82a195926a33" data-name="Слой 1" xmlns="http://www.w3.org/2000/svg" viewBox="0 0 512 512"><path id="a3643013-8bf7-458e-97e8-120a44af9319" data-name="Path 930" d="M488.7,188.8H377.3L275.1,11.9C267.9-.4,253.5-3.7,242.8,4.6a23.5,23.5,0,0,0-6.3,7.3L134.3,188.8H23.3c-12.9,0-23.3,12.1-23.3,27A29,29,0,0,0,.9,223L60,472.7c5.6,23.2,23.9,39.3,44.7,39.3H407.3c20.8,0,39.2-16.1,44.9-39.3L511.3,223l.7-7.2C512,200.9,501.6,188.8,488.7,188.8ZM255.8,75.5l65.4,113.3H190.4Zm.2,328.8c-25.7,0-46.5-24.1-46.5-53.9s20.8-53.8,46.5-53.8,46.5,24.1,46.5,53.8S281.7,404.2,256,404.3Z" style="fill:#dfe0ec"/></svg>