<svg id="a172cdf3-da8b-4e99-b166-505d8f4fd66b" data-name="Слой 1" xmlns="http://www.w3.org/2000/svg" viewBox="0 0 512 512"><path id="e2a94e8d-5b8b-426e-8312-a048d75d9ef6" data-name="Path 2212" d="M0,0H512V512H0Z" style="fill:none"/><path id="ea4be605-7530-444f-bf6a-328a43667ca6" data-name="Path 932" d="M452,28.5c-63-47.7-146.9-34-196,31.9C206.9-5.7,122.9-19.3,59.9,28.5,24,56.7,1.8,102.9.1,153-3.3,265.6,84.5,355.9,218.9,494.4l2.6,2.6c19.6,20.1,49.2,20,68.8-.3l2.8-2.9C427.5,355.6,515.2,265.2,511.9,152.7,510.1,102.7,487.9,56.6,452,28.5ZM258.5,451.2l-2.5,2.9-2.6-2.9C131.6,326,51.3,243.3,51.3,159.4c-.8-55.3,37.4-100.8,85.3-101.7h4.2c39.5,0,75.3,26.8,91.4,68.5H280c15.9-41.7,51.7-68.6,91.1-68.5,47.9-1.9,88,41.4,89.6,96.7v4.9C460.7,243.3,380.4,326,258.5,451.2Z" style="fill:#9fa2b1"/></svg>