<svg id="ee6003d1-4550-4147-8679-c3684d29d84a" data-name="Слой 1" xmlns="http://www.w3.org/2000/svg" viewBox="0 0 512 512"><path id="b5a25c89-b34d-4b27-9bd9-1ac7ce5b4790" data-name="Path 924" d="M60.8,64H451.2c15.4,0,27.9-14.3,27.9-32S466.6,0,451.2,0H60.8C45.4,0,32.9,14.3,32.9,32S45.4,64,60.8,64Zm422.8,57.6C480.9,106.7,469.5,96,456.2,96H55.8c-13.3,0-24.7,10.7-27.3,25.6L.6,281.6c-3.1,17.3,6.6,34.2,21.7,37.8a26.7,26.7,0,0,0,5.6.6h5V480c0,17.7,12.5,32,27.9,32H283.9c15.4,0,27.9-14.3,27.9-32V320H423.3V480c0,17.7,12.5,32,27.9,32s27.9-14.3,27.9-32V320h5c15.4,0,27.9-14.3,27.9-32a34.7,34.7,0,0,0-.6-6.4ZM256,448H88.7V320H256Z" style="fill:#df2b67"/></svg>