<svg id="ab3087c2-2aa2-4381-88d3-3a0018c117f1" data-name="Слой 1" xmlns="http://www.w3.org/2000/svg" viewBox="0 0 300 230"><g id="b2567fc2-0fda-40d8-9fb2-58ee4617422f" data-name="undraw on the way ldaq"><path id="e5efcd6d-dc9b-43dc-839c-129d9fec849f" data-name="Path 654" d="M294.2,62.1a72.7,72.7,0,0,0-11.9-18.9L117.2,41.5,253.1,22.4a78.9,78.9,0,0,0-27.6-5.5,77.3,77.3,0,0,0-92.3-3.1A77.5,77.5,0,0,0,97.9,5.3c-36.7,0-67.3,25.4-74.2,59.1Z" style="fill:#df2b67;isolation:isolate;opacity:0.10000000149011612"/><path id="bf0e8908-2672-4f45-8433-037c5244d1c5" data-name="Path 655" d="M300,90.4a72,72,0,0,0-5.1-26.7L8.7,93.8A72.6,72.6,0,0,0,2,110.7L90.6,124,0,133.6c2.7,38.2,35.4,68.3,75.3,68.3a76.3,76.3,0,0,0,52-20.1,75.9,75.9,0,0,0,52.3,20.5c30.2,0,56.2-17.1,68.3-42,24.3-7.7,43.2-27.1,49.7-51.4L185.5,91.5H300Z" style="fill:#df2b67;isolation:isolate;opacity:0.10000000149011612"/><ellipse id="b19f33fd-e853-4904-bed8-1524c2fc1d54" data-name="Ellipse 145" cx="8" cy="210.1" rx="7.3" ry="1" style="fill:#df2b67;isolation:isolate;opacity:0.10000000149011612"/><ellipse id="adc8129d-0b11-42f7-84d8-1319e67d2f8f" data-name="Ellipse 146" cx="36.1" cy="212.9" rx="7.3" ry="1" style="fill:#df2b67;isolation:isolate;opacity:0.10000000149011612"/><ellipse id="b6617536-8f48-49f6-ae4b-198e1d544c1f" data-name="Ellipse 147" cx="69.1" cy="209.1" rx="7.3" ry="1" style="fill:#df2b67;isolation:isolate;opacity:0.10000000149011612"/><ellipse id="f176c9a6-5deb-4dd8-abd9-25d78459746f" data-name="Ellipse 148" cx="24.8" cy="221" rx="5.2" ry="0.7" style="fill:#df2b67;isolation:isolate;opacity:0.10000000149011612"/><ellipse id="b85c425e-9353-4685-a863-d698e9c0037d" data-name="Ellipse 149" cx="54" cy="220.3" rx="5.2" ry="0.7" style="fill:#df2b67;isolation:isolate;opacity:0.10000000149011612"/><path id="b95001b4-76ee-44f2-9217-c6a9f82c9851" data-name="Path 656" d="M36.2,212.7s-10.3-33.8,1.6-47.3c8.9-10.1,19-8.9,23.5-7.6a8,8,0,0,1,5.4,4.4c1.6,3.5,1.3,9-9.8,15.5C38.2,188.5,37,203.4,37,203.4Z" style="fill:#df2b67"/><path id="f2eda08e-23cc-4796-bc3c-50c5c7683a64" data-name="Path 657" d="M59.7,162.5S29.4,172,36.2,212.7" style="fill:none;stroke:#565988;stroke-miterlimit:10"/><path id="ae8f302d-3b68-4cdc-a9b3-65ba2b2a89a1" data-name="Path 658" d="M42,166s4.2,2.8,2.9,7" style="fill:none;stroke:#565988;stroke-miterlimit:10"/><path id="bf2e7e4b-2765-4c73-ae88-a7535fe98241" data-name="Path 659" d="M56.7,168.5s-2.6-2.6-5.7-1.2" style="fill:none;stroke:#565988;stroke-miterlimit:10"/><path id="afb2fa88-8007-43c4-b264-6f113df9c702" data-name="Path 660" d="M44.7,181.5s-4.5-2.2-5.6.6" style="fill:none;stroke:#565988;stroke-miterlimit:10"/><path id="bcf40e07-4335-444b-98c4-5c23661770c4" data-name="Path 661" d="M33.6,186.3s3.4-.3,3.4,1.3" style="fill:none;stroke:#565988;stroke-miterlimit:10"/><path id="e7f11e78-56c8-498e-8b0c-474864f10f2f" data-name="Path 662" d="M35.8,213s12.1-24.6,15.4-24c1.5.2,2.3,1.8,2.6,3.3a9.6,9.6,0,0,1-.7,6C51.4,202.2,46.8,209.7,35.8,213Z" style="fill:#df2b67"/><path id="bd3a85e9-f043-4d13-8b3f-59c3f2d86d66" data-name="Path 663" d="M51.1,193.6S38.4,212,36,212.8" style="fill:none;stroke:#565988;stroke-miterlimit:10"/><line id="aeea1b38-299d-4893-a8f0-5e104ce2a576" data-name="Line 17" x1="52.2" y1="196.5" x2="49.3" y2="196.5" style="fill:none;stroke:#565988;stroke-miterlimit:10"/><line id="ade0a50c-c365-446f-812a-9a667f9e090d" data-name="Line 18" x1="48.7" y1="203.2" x2="44.1" y2="203.4" style="fill:none;stroke:#565988;stroke-miterlimit:10"/><line id="be04d6f1-4f92-4180-af87-57fc6a53e040" data-name="Line 19" x1="45.9" y1="197.8" x2="46.4" y2="200.2" style="fill:none;stroke:#565988;stroke-miterlimit:10"/><line id="e2ed778a-c81c-4dc4-b0ba-75d92cb4acce" data-name="Line 20" x1="41" y1="205.2" x2="41" y2="207.4" style="fill:none;stroke:#565988;stroke-miterlimit:10"/><path id="a4856618-01b8-43fb-8ae1-376349a5a6f0" data-name="Path 664" d="M36.2,213s-12.1-24.6-15.4-24c-1.6.2-2.3,1.8-2.6,3.3a10.3,10.3,0,0,0,.6,6C20.5,202.2,25.1,209.7,36.2,213Z" style="fill:#df2b67"/><path id="f3c8a59a-1686-4b4a-8067-72db969eac00" data-name="Path 665" d="M20.9,193.6S33.5,212,36,212.8" style="fill:none;stroke:#565988;stroke-miterlimit:10"/><line id="eedc9518-30e0-41ea-b3c5-7e62f21570ff" data-name="Line 21" x1="19.7" y1="196.5" x2="22.7" y2="196.5" style="fill:none;stroke:#565988;stroke-miterlimit:10"/><line id="b8d3f7fd-d274-4174-b6f2-9b38ef042c21" data-name="Line 22" x1="23.3" y1="203.2" x2="27.9" y2="203.4" style="fill:none;stroke:#565988;stroke-miterlimit:10"/><line id="b90b8764-702a-47a4-9323-4dbad0cc82a8" data-name="Line 23" x1="26.1" y1="197.8" x2="25.6" y2="200.2" style="fill:none;stroke:#565988;stroke-miterlimit:10"/><line id="bed706dc-180f-4af5-8a84-a011c24212b7" data-name="Line 24" x1="31" y1="205.2" x2="30.9" y2="207.4" style="fill:none;stroke:#565988;stroke-miterlimit:10"/><path id="b70672a6-1fc6-44c2-a189-99ce64b9607e" data-name="Path 666" d="M56.8,218.7a1.7,1.7,0,0,0,.7-1,.9.9,0,0,0-.5-1.1c-.4-.2-.9.1-1.2.4a1.6,1.6,0,0,1-1.3.6,1.8,1.8,0,0,0,.6-1.7v-.4a.9.9,0,0,0-1,.1,3.5,3.5,0,0,0-1.2,3,2.4,2.4,0,0,1,0-1.2,1.4,1.4,0,0,0-.5-1.1l-.7-.2a1.6,1.6,0,0,0-1.2.3,1.4,1.4,0,0,0,0,1.5,3.8,3.8,0,0,0,1.3.9,3.4,3.4,0,0,1,.8.9.1.1,0,0,0,.1.1h2.6a9.1,9.1,0,0,0,1.6-1.1Z" style="fill:#df2b67"/><path id="b6d85099-d034-485f-810b-2ca329eb513b" data-name="Path 667" d="M10.9,208.8a1.7,1.7,0,0,0,.7-1,1,1,0,0,0-.5-1.1c-.4-.2-.9.2-1.2.5a2.6,2.6,0,0,1-1.3.6,2.1,2.1,0,0,0,.6-1.8.8.8,0,0,0-.2-.4c-.2-.2-.6-.1-.9.1a3.6,3.6,0,0,0-1.2,3.1,6.2,6.2,0,0,1-.1-1.3,1.2,1.2,0,0,0-.4-1.1l-.7-.2a2.1,2.1,0,0,0-1.2.3,1.4,1.4,0,0,0,0,1.5l1.2.9a2.6,2.6,0,0,1,.9.9H9.3a5.7,5.7,0,0,0,1.6-1.1Z" style="fill:#df2b67"/><path id="e20ac09a-b97e-459b-b376-af4e8774dc61" data-name="Path 668" d="M26.2,218.7a1.7,1.7,0,0,0,.7-1,.9.9,0,0,0-.5-1.1c-.4-.2-.9.1-1.2.4a1.6,1.6,0,0,1-1.3.6,1.8,1.8,0,0,0,.6-1.7l-.2-.4c-.2-.2-.6-.1-.9.1a3.5,3.5,0,0,0-1.2,3,2.4,2.4,0,0,1,0-1.2,1.4,1.4,0,0,0-.5-1.1l-.7-.2a1.6,1.6,0,0,0-1.2.3,1.4,1.4,0,0,0,0,1.5l1.2.9a2.6,2.6,0,0,1,.9.9.1.1,0,0,0,.1.1h2.6A9.1,9.1,0,0,0,26.2,218.7Z" style="fill:#df2b67"/><path id="a32cd32b-9352-4111-ba87-f246f9552d65" data-name="Path 669" d="M69.6,198.7s1,1.3-.4,3.2-2.6,3.6-2.2,4.8,2.2-3.6,4-3.6S71.6,200.9,69.6,198.7Z" style="fill:#df2b67"/><path id="aa351174-d2e7-46d3-b217-3aed817af118" data-name="Path 670" d="M69.6,198.7l.2.4c1.7,2,2.7,3.9,1,4s-3.4,2.8-3.8,3.5h0s2.2-3.6,4-3.6S71.6,200.9,69.6,198.7Z" style="fill:#dfe0ec;isolation:isolate;opacity:0.10000000149011612"/><path id="a06ee770-f7d0-4e36-b19e-1083d0281f57" data-name="Path 671" d="M71.5,200.4c0,.4-.1.8-.2.8a3.8,3.8,0,0,1-.1-.8c0-.5.1-.3.2-.3S71.5,199.9,71.5,200.4Z" style="fill:#ffd13a"/><path id="e59c0518-db57-48fe-b8c0-c0c4a3214ea1" data-name="Path 672" d="M72.1,200.9l-.8.3.7-.5c.4-.2.2-.1.2,0S72.5,200.7,72.1,200.9Z" style="fill:#ffd13a"/><path id="bf66076c-cf53-4883-8ac0-45bd7a64105e" data-name="Path 673" d="M64.4,198.7s-1,1.3.5,3.2,2.6,3.6,2.1,4.8-2.1-3.6-3.9-3.6S62.5,200.9,64.4,198.7Z" style="fill:#df2b67"/><path id="a41b8a65-9073-4767-b158-e317c37d343e" data-name="Path 674" d="M64.4,198.7l-.2.4c-1.7,2-2.6,3.9-1,4s3.4,2.8,3.9,3.5H67s-2.1-3.6-3.9-3.6S62.5,200.9,64.4,198.7Z" style="fill:#dfe0ec;isolation:isolate;opacity:0.10000000149011612"/><path id="a572e089-20e5-4773-8d89-4b22d9f2cfff" data-name="Path 675" d="M62.6,200.4a3.8,3.8,0,0,0,.1.8c.1,0,.1-.4.1-.8s0-.3-.1-.3S62.6,199.9,62.6,200.4Z" style="fill:#ffd13a"/><path id="bfc7314c-92ba-476b-8dc9-7f067f515f18" data-name="Path 676" d="M62,200.9l.8.3-.7-.5c-.4-.2-.3-.1-.3,0S61.6,200.7,62,200.9Z" style="fill:#ffd13a"/><path id="ba1fb4ce-c604-4d95-aaaf-22eec9b15e6e" data-name="Path 677" d="M62.9,206.6s2.8-.1,3.6-.7,4.2-1.3,4.4-.4,4.2,4.8,1.1,4.8-7.3-.5-8.1-1S62.9,206.6,62.9,206.6Z" style="fill:#a8a7a7"/><path id="a5613157-41b3-4796-8664-3b60a56a1f9b" data-name="Path 678" d="M72,210c-3.1,0-7.2-.5-8-1s-.9-1.8-1-2.4h-.1s.2,2.2,1,2.7,4.9,1,8.1,1c.9,0,1.2-.4,1.1-.8S72.7,209.9,72,210Z" style="fill:#dfe0ec;isolation:isolate;opacity:0.20000000298023224"/><ellipse id="eae3baf2-17e1-4acb-965a-fa23b3d9a00a" data-name="Ellipse 150" cx="173.9" cy="225.8" rx="93.6" ry="4.2" style="fill:#df2b67;isolation:isolate;opacity:0.10000000149011612"/><path id="b5bf3c94-1f56-43a4-b649-cc2012202f7c" data-name="Path 679" d="M164.4,98.7s5.9,11.3,6.4,13a2.4,2.4,0,0,0,2,1.6s6,1.4,7.4,1.6l13.7,1.2s3.1.1,3.5-1,6.4-6.5,9.9-1.8a3.8,3.8,0,0,1,.5,3.1c-.6,2.1-2,5.3-3.4,3.3s-4.3-2-4.3-.5-3.2.9-4.2,1.1l-4.2,1.1a25.1,25.1,0,0,1-6,1c-3.4.3-8.3.4-10.1-.2a25.8,25.8,0,0,0-7.3-1.1,2.5,2.5,0,0,1-1.5-.5,23.4,23.4,0,0,1-5.5-6.2c-2.4-4.3-7.5-13.1-7.1-15.7S164.4,98.7,164.4,98.7Z" style="fill:#f0b7b9"/><path id="ef186a43-0d5a-4095-849a-823e251c4c36" data-name="Path 680" d="M164.4,98.7s5.9,11.3,6.4,13a2.4,2.4,0,0,0,2,1.6s6,1.4,7.4,1.6l13.7,1.2s3.1.1,3.5-1,6.4-6.5,9.9-1.8a3.8,3.8,0,0,1,.5,3.1c-.6,2.1-2,5.3-3.4,3.3s-4.3-2-4.3-.5-3.2.9-4.2,1.1l-4.2,1.1a25.1,25.1,0,0,1-6,1c-3.4.3-8.3.4-10.1-.2a25.8,25.8,0,0,0-7.3-1.1,2.5,2.5,0,0,1-1.5-.5,23.4,23.4,0,0,1-5.5-6.2c-2.4-4.3-7.5-13.1-7.1-15.7S164.4,98.7,164.4,98.7Z" style="fill:#dfe0ec;isolation:isolate;opacity:0.05000000074505806"/><path id="a4216426-f3fe-4a47-9913-6a9dccddf681" data-name="Path 681" d="M232.8,184.1c-2.7,2.9-4.7,4.1-4.6,1,.3-9.4-16.2-51.8-16.2-51.8l4.9-.4C227.5,151.2,231.5,170.1,232.8,184.1Z" style="fill:none"/><path id="a3bb34e2-4650-4cf1-bbf4-bcc5e686aa28" data-name="Path 682" d="M256.1,204.6A23.6,23.6,0,0,1,232.6,228a23.3,23.3,0,0,1-23.3-21.4,4.9,4.9,0,0,1-.1-1.2h0v-.9a23.5,23.5,0,0,1,46.9,0Z" style="fill:#66627d"/><ellipse id="b1ed2f94-b193-4e76-bcd2-ec2e8b30f7f4" data-name="Ellipse 151" cx="232.6" cy="204.6" rx="12.8" ry="12.8" style="fill:#dcdfec"/><ellipse id="e550e54f-b994-419f-9995-495f2f231cba" data-name="Ellipse 152" cx="232.6" cy="204.6" rx="7.7" ry="7.7" style="fill:#66627d"/><path id="e14c714e-304b-4523-83c9-229ae61ad9f0" data-name="Path 683" d="M171.1,160l-56.4,1.1v-8.3c.5-6.7,7.3-9,13.6-9.8a40,40,0,0,1,14.6,1.1c11.9,3.2,19.6,3.8,23.3,3.9a3.5,3.5,0,0,1,3.5,2.9c.2.9.3,2,.5,3s.3,1.6.4,2.3S171.1,160,171.1,160Z" style="fill:#66627d"/><path id="fc2eba7c-7471-4ffb-80d0-b025d148bc67" data-name="Path 684" d="M216.1,206.1H98.9a4.6,4.6,0,0,1-4.3-2.8c-.9-2.1.4-3.5,1.7-4.3a13.1,13.1,0,0,0,5.7-7c1.3-3.7,2.5-9.5,3-18.5s3.9-14,7.5-16.2h0a14.3,14.3,0,0,1,9.9-1.8l47.5.3a9.7,9.7,0,0,1,2.4,1.5c4.2,4-2,9.1-2,9.1-13.2,14.1-3.2,28.3-3.2,28.3h24.3a22.5,22.5,0,0,0,12.8-3.9,13.5,13.5,0,0,0,5-5.8l1.2-3c6.4-13.9-1.3-36.4-4.6-44.8-.8-2.1-1.4-3.4-1.4-3.4l7.6-.5,4.9-.4h0a126.7,126.7,0,0,1,15.9,51.2l.3,3.8A17,17,0,0,1,217.2,206Z" style="fill:#df2b67"/><path id="e9959fe7-e788-450d-8b40-89086d32701b" data-name="Path 685" d="M170.6,156.2H114.7v-2.3h55.5C170.3,154.7,170.5,155.5,170.6,156.2Z" style="fill:#dfe0ec;isolation:isolate;opacity:0.10000000149011612"/><path id="a6003f72-ebd6-4de3-9343-745c04f5dcd2" data-name="Path 686" d="M172.3,157.4H112.5a14.3,14.3,0,0,1,9.9-1.8l47.5.3A7.8,7.8,0,0,1,172.3,157.4Z" style="fill:#dfe0ec;isolation:isolate;opacity:0.10000000149011612"/><rect id="f9b435aa-615c-496f-8e49-e7c66009e3fd" data-name="Rectangle 11" x="91.1" y="154.5" width="82.9" height="2.33" rx="1.2" style="fill:#dcdfec"/><path id="a23c9594-e081-47a0-bd8b-7c8e6578eb0a" data-name="Path 687" d="M232.8,184.1c-2.7,2.9-4.7,4.1-4.6,1,.3-9.4-16.2-51.8-16.2-51.8l4.9-.4C227.5,151.2,231.5,170.1,232.8,184.1Z" style="fill:#dfe0ec;isolation:isolate;opacity:0.10000000149011612"/><path id="adc1df8d-164b-4049-9cb1-66fb97642d0e" data-name="Path 688" d="M255.9,202c-2.8.7-6.2,1.3-10.5,2l-5.1.6c-4.4.6-9.4,1-15.2,1.4l-5.2.2-10.6.4v-1.2h0c5.3-2.1,13.6-7.8,15-22.7a23.4,23.4,0,0,1,30.3,13.4,24.1,24.1,0,0,1,1.4,5.9Z" style="fill:#dfe0ec;isolation:isolate;opacity:0.10000000149011612"/><path id="afec27fd-b278-4d28-ae86-a6ffd152b2b8" data-name="Path 689" d="M204.8,206.1s26.9-3,17.6-44c0,0,13.3,12.2,21.6,19s23,16.1,23,16.1S258.2,205.4,204.8,206.1Z" style="fill:#df2b67"/><path id="b9ed4027-d23e-408a-8218-b7d941ecf2a1" data-name="Path 690" d="M204.8,206.1s26.9-3,17.6-44c0,0,13.3,12.2,21.6,19s23,16.1,23,16.1S258.2,205.4,204.8,206.1Z" style="fill:#1d1f3f;isolation:isolate;opacity:0.10000000149011612"/><ellipse id="af6bc937-a7e9-47e3-ae4e-a9d965efbdca" data-name="Ellipse 153" cx="132.9" cy="204.6" rx="23.4" ry="23.5" style="fill:#66627d"/><ellipse id="b3a57345-55e5-4dfd-9f6d-8cd8c63c81c9" data-name="Ellipse 154" cx="132.9" cy="204.6" rx="12.8" ry="12.8" style="fill:#dcdfec"/><ellipse id="e0c64cea-e255-4c70-8848-c58390ac24f0" data-name="Ellipse 155" cx="132.9" cy="204.6" rx="7.7" ry="7.7" style="fill:#66627d"/><path id="aec68084-d913-4f5a-b3fa-003272a842bc" data-name="Path 691" d="M159.2,197.5c0-15.1-12-27.4-26.8-27.4a27.1,27.1,0,0,0-26.9,27.4,12.1,12.1,0,0,0,.1,1.9h53.5A12.1,12.1,0,0,0,159.2,197.5Z" style="fill:#dfe0ec;isolation:isolate;opacity:0.10000000149011612"/><path id="becb4a47-7768-485a-bfcc-c21c97f2884a" data-name="Path 692" d="M158.2,197c0-14.6-11.6-26.4-25.8-26.4A26.1,26.1,0,0,0,106.5,197a11.5,11.5,0,0,0,.1,1.9h51.5A11.5,11.5,0,0,0,158.2,197Z" style="fill:#df2b67"/><path id="a36b6648-5c42-4ed6-aaea-98a4847ad383" data-name="Path 693" d="M158.2,197v1.3a1.3,1.3,0,0,1-.1.6H106.6c0-.2-.1-.4-.1-.6V197a26.1,26.1,0,0,1,25.9-26.4C146.6,170.6,158.2,182.4,158.2,197Z" style="fill:#1d1f3f;isolation:isolate;opacity:0.10000000149011612"/><path id="ec51322e-1188-4352-beec-afb4eb8af912" data-name="Path 694" d="M158.2,198.3a1.3,1.3,0,0,1-.1.6H106.6c0-.2-.1-.4-.1-.6Z" style="fill:#dfe0ec;isolation:isolate;opacity:0.10000000149011612"/><rect id="a260d558-2f74-4015-abdb-044327c17932" data-name="Rectangle 12" x="95.2" y="199.4" width="69.4" height="6.07" rx="3" style="fill:#dfe0ec;isolation:isolate;opacity:0.10000000149011612"/><rect id="a98eb15b-1335-42af-95dd-34a8ac059cf8" data-name="Rectangle 13" x="95.2" y="198.9" width="69.4" height="6.07" rx="3" style="fill:#dcdfec"/><path id="e903870a-cfee-4bda-877e-b851310763f4" data-name="Path 2195" d="M221.1,143.7c1.7-.8,4.7,2.1,6.7,6.4s2.1,8.4.4,9.2-4.7-2.1-6.6-6.4S219.4,144.5,221.1,143.7Z" style="fill:#dfe0ec;isolation:isolate;opacity:0.10000000149011612"/><path id="e3372873-9731-4ee6-8116-f817af5a0eca" data-name="Path 2196" d="M221.4,143.4c1.7-.8,4.7,2.1,6.6,6.4s2.2,8.4.5,9.2-4.7-2.1-6.7-6.4S219.7,144.2,221.4,143.4Z" style="fill:#dcdfec"/><path id="b9025bd8-d916-44e7-8e38-69036d787f25" data-name="Path 695" d="M216.9,132.9v4.5h-8.7l-2.4-.2c-.8-2.1-1.4-3.3-1.4-3.3l7.6-.6Z" style="fill:#dfe0ec;isolation:isolate;opacity:0.10000000149011612"/><path id="baee4481-d531-4fea-8833-1372d9483dd3" data-name="Path 696" d="M216.9,136.8h-8.7c-7.6,0-13.8-5.7-13.8-12.7v-1.2c0-7.1,6.2-12.8,13.8-12.8l8.7.8Z" style="fill:#df2b67"/><path id="b72439e5-84b7-4dc6-bcdf-ffefcf0d06ee" data-name="Path 697" d="M202.6,117.7s5.2,2.8,2.2,7.4c0,0-3.7,6.1-9.4,5.5l-2.1-12.9S200.2,117,202.6,117.7Z" style="fill:#df2b67"/><path id="ea41a6d3-bb06-45b1-b385-cdf9a87881cb" data-name="Path 698" d="M200.6,117.4a5.5,5.5,0,0,1,4.2,2.3,4.5,4.5,0,0,1,0,5.4s-3.7,6.1-9.4,5.5l-2.1-12.9C195.7,117.5,198.2,117.4,200.6,117.4Z" style="fill:#dfe0ec;isolation:isolate;opacity:0.10000000149011612"/><path id="ba0c665e-f2d7-4f2c-9825-4b4a2ed3f8c7" data-name="Path 699" d="M216.6,110.9h1.6a5.3,5.3,0,0,1,5.3,5.3h0v15.3a5.3,5.3,0,0,1-5.3,5.3h-1.6Z" style="fill:#dfe0ec;isolation:isolate;opacity:0.10000000149011612"/><path id="efe00c8e-656b-47ad-9964-02ac1d724be5" data-name="Path 700" d="M216.9,110.9h1.6a5.3,5.3,0,0,1,5.3,5.3h0v15.3a5.3,5.3,0,0,1-5.3,5.3h-1.6Z" style="fill:#dcdfec"/><path id="ac4203f5-f038-4b05-b9d1-3a998ee59a62" data-name="Path 701" d="M155.4,144.1l3.1,1.2a65.8,65.8,0,0,1,8.2,3.6c1.4.9,6.6,2.3,10.5,3.3a32.7,32.7,0,0,0,8.8,1.1h8.2c1.1.2,1,.9,1,1h0c-6.2,3.8-13.8,20.7-14.3,23.6s-3.5,8-5,10.8l-.8,1.6,1.8,2.2,5.5,2.4,5.2,2.3s5.5.3,5.6,0,.1-3.2.1-3.2a12.5,12.5,0,0,1-1.9-1.5c-1.2-1.1-2.4-2.3-3.5-3.5-3-3.6,3.1-10.6,3.1-10.6l11.6-15.1s.9-1.7,5.5-8.6,0-10.5,0-10.5l-8-3.3c-13.9-5.2-30.6-9.4-30.6-9.4h-.2l-3.6-.4Z" style="fill:#f0b7b9"/><path id="ffa57c16-c747-4ddd-a599-a15b95c8393e" data-name="Path 702" d="M191.1,195s1,1.2.2,1.3l-2.7-.3-12.4-6.5s-1.3-1-1.6.9-.6,1.7-.6,1.7-1.6,3.5,0,4.2,11.5,3.6,11.5,3.6,14.2,3.3,15.6-.5-2.4-3.1-2.4-3.1-4.7-1.1-6.3-3.4C192.4,192.9,190.1,193.6,191.1,195Z" style="fill:#444053"/><path id="b66b5c08-e16f-4450-b04f-6c8d74fce83f" data-name="Path 703" d="M208.1,144.3l-8-3.3c-13.9-5.2-30.6-9.4-30.6-9.4h-.3l-3.5-.4-10.3,12.9,3.1,1.2a65.8,65.8,0,0,1,8.2,3.6c1.4.9,6.6,2.3,10.5,3.3a32.7,32.7,0,0,0,8.8,1.1h8.2c1.1.2,1,.9,1,1h0c-6.2,3.8-13.8,20.7-14.3,23.6s-3.5,8-5,10.8l-.2.4c-.4,0-.9.1-1.1,1.2s-.5,1.7-.5,1.7-1.7,3.5,0,4.2,11.4,3.6,11.4,3.6,14.2,3.3,15.6-.5-2.4-3.1-2.4-3.1-4.7-1.1-6.3-3.4l-.4.2-.6-.5c-1.2-1.1-2.4-2.3-3.5-3.5-3-3.6,3.1-10.6,3.1-10.6l11.6-15.1s1-1.7,5.5-8.6S208.1,144.3,208.1,144.3Z" style="fill:#dfe0ec;isolation:isolate;opacity:0.05000000074505806"/><path id="bbd0ff48-9c29-48f0-a0bf-4385cb65ea2b" data-name="Path 704" d="M145.8,80.7l.4.6.3.3,1.5,1.9,6.7,1.9c3.3.7,6.1,1.1,3.9-.8s-1.5-3.1-1-5.1a20,20,0,0,1,1.8-4.6,2.1,2.1,0,0,1,.4-.6,29.5,29.5,0,0,1,2.3-3.8,66.5,66.5,0,0,0-6.3-3.9c-2.6-1.3-4.7-1.9-3.4.8a6,6,0,0,1-.2,5.4.5.5,0,0,1-.2.4,15.6,15.6,0,0,1-2.7,4A23.2,23.2,0,0,1,145.8,80.7Z" style="fill:#f0b7b9"/><path id="be3cb4c7-2965-4793-b682-3f090d9d76c7" data-name="Path 705" d="M163.8,124l1.9,1.8,1.9,7.2h-3.1l-3.4-4.5Z" style="fill:#444053"/><path id="f71002fc-d962-4469-9dde-49674466af54" data-name="Path 706" d="M161.1,128.5l2,2.7,1.4,1.8h3.1l-.3-1.3-1.4-5.2-.2-.7-1.9-1.8-2.6,4.3Z" style="fill:#dfe0ec;isolation:isolate;opacity:0.10000000149011612"/><path id="ae64118c-5e0b-465e-9d85-986bcb0e6829" data-name="Path 707" d="M161.1,128.5l2,2.7,1.4,1.8h3.1l-.3-1.3-1.4-5.2-.2-.7-1.9-1.8-2.6,4.3Z" style="fill:#dfe0ec;isolation:isolate;opacity:0.10000000149011612"/><path id="e895dbae-540c-4157-a0ba-a77cff618aa9" data-name="Path 708" d="M150.7,147.4l3.2,1.1a65.8,65.8,0,0,1,8.2,3.6c1.4.9,6.6,2.3,10.5,3.3a32.2,32.2,0,0,0,8.8,1.1h8.2c1.1.2,1,.9,1,1.1h0c-6.2,3.8-13.8,20.7-14.3,23.6s-3.5,8-5,10.9l-.9,1.5,1.9,2.2,5.5,2.5,5.2,2.2s5.5.3,5.6,0,.1-3.2.1-3.2a13.3,13.3,0,0,1-1.9-1.4,39.8,39.8,0,0,1-3.5-3.6c-3-3.6,3-10.5,3-10.5L198,166.6s.9-1.7,5.5-8.5,0-10.6,0-10.6l-7.3-4.1c-11.4-6.9-27.4-10.9-27.4-10.9h-.2L165,132Z" style="fill:#f0b7b9"/><path id="fda29f10-0bf5-4170-8ddd-cc25cd330225" data-name="Path 709" d="M170.4,193.6l1.9,2.2,5.5,2.5,5.2,2.2s5.5.3,5.6,0,.1-3.2.1-3.2a13.3,13.3,0,0,1-1.9-1.4c-.6.3-1.2.9-.6,1.8s1,1.2.2,1.3a8.4,8.4,0,0,1-2.7-.4l-12.3-6.5h-.1Z" style="fill:#dfe0ec;isolation:isolate;opacity:0.10000000149011612"/><path id="f8a7ae70-96b1-43ee-8392-4239fcba1d61" data-name="Path 710" d="M186.5,198.3s1,1.1.2,1.2a12.4,12.4,0,0,1-2.7-.3l-12.4-6.5s-1.3-1-1.6.9-.6,1.7-.6,1.7-1.6,3.5,0,4.2,11.5,3.6,11.5,3.6,14.2,3.3,15.6-.5-2.5-3-2.5-3-4.6-1.2-6.2-3.5C187.8,196.2,185.4,196.8,186.5,198.3Z" style="fill:#444053"/><path id="b0ad761d-886c-4a32-85cf-fa71c2fdbe89" data-name="Path 711" d="M151.5,72.1c1.6,1.1,4.1,2.9,6.3,2.9h1.6a39.9,39.9,0,0,1,2.7-4.4s-12.5-8.7-9.7-3.1C153.4,69.2,152.5,70.1,151.5,72.1Z" style="fill:#dfe0ec;isolation:isolate;opacity:0.10000000149011612"/><path id="fe1c6424-47d2-494f-a229-203ff52f94d2" data-name="Path 712" d="M147.6,64.2a10.2,10.2,0,0,0,4.6,8.6l1,.6a10.2,10.2,0,1,0-4.6-13.8,10.6,10.6,0,0,0-1,4.6Z" style="fill:#f0b7b9"/><path id="a0a83469-dd5c-4719-941c-e229b4f71641" data-name="Path 713" d="M150.7,147.4l3.2,1.1a13.9,13.9,0,0,1,2.7-2.1c1.1-.4,4.5-2.4,4.4-2.9s1.4-2.8,2.7-3.2.6-2.3.6-2.3,2.5-1,3.2-2.3,2.6-3,1.9-2.9l-.8-.4L165,132Z" style="fill:#dfe0ec;isolation:isolate;opacity:0.10000000149011612"/><path id="ab12370f-1e52-4641-bb57-dfe179593198" data-name="Path 714" d="M143,143.9s4.3,3.6,4.5,5.3,3.1,1.5,3.1,1.5,4.4-4.2,5.4-4.6,4.5-2.4,4.4-2.9,1.4-2.8,2.7-3.1.6-2.4.6-2.4,2.6-1,3.2-2.3,2.6-3,1.9-2.9a4.4,4.4,0,0,1-1.5-.8,27,27,0,0,1-3.1-2l-1.8-1.2-1.2-.2c-4.1-.6-17.6-2.1-20.7,2.9a6.7,6.7,0,0,0-.9,2.1C138.2,138.6,143,143.9,143,143.9Z" style="fill:#444053"/><path id="fb4833ca-d13c-42db-a3d9-aa34393f0d7a" data-name="Path 715" d="M147.5,132.4s-4.4,2.6-6.1,2.6S147.5,132.4,147.5,132.4Z" style="fill:#dfe0ec;isolation:isolate;opacity:0.10000000149011612"/><path id="b7641516-30ff-4b3a-82cd-2c09516a6809" data-name="Path 716" d="M150.5,134.4s-6.6,2.2-6.6,3.9S143.3,133.7,150.5,134.4Z" style="fill:#dfe0ec;isolation:isolate;opacity:0.10000000149011612"/><path id="a84dcc0b-e4ef-45a7-b370-080f0a8ab0b1" data-name="Path 717" d="M166.4,124.3v0Z" style="fill:#dfe0ec;isolation:isolate;opacity:0.10000000149011612"/><path id="fac78797-f51c-49fb-a9c5-f58c8bec985c" data-name="Path 718" d="M145.8,80.7l.4.6.3.3,1.5,1.9,6.7,1.9c3.3.7,6.1,1.1,3.9-.8s-1.5-3.1-1-5.1h-.1s.1,1.9-1,1.9-1.6-.5-3-1.1a9.5,9.5,0,0,1-4.2-3A23.2,23.2,0,0,1,145.8,80.7Z" style="fill:#dfe0ec;isolation:isolate;opacity:0.10000000149011612"/><path id="a7195ae3-6e02-49c4-9404-1c470222cc9c" data-name="Path 719" d="M139.6,133.3a3.3,3.3,0,0,0,2.4,0c3-.9,7.6-3.2,9.8-2.2s8.7.8,11.3.1c.7-.2,1.1-.4,1-.6a2.8,2.8,0,0,1,.1-.9,14.1,14.1,0,0,1,1.7-3.2l-.2-.7-1.9-1.8-2.6,4.3c-4.1-.6-17.6-2.1-20.7,2.8A8.5,8.5,0,0,0,139.6,133.3Z" style="fill:#dfe0ec;isolation:isolate;opacity:0.10000000149011612"/><path id="f730f4f7-721c-4e99-912b-c5ba999ce8db" data-name="Path 720" d="M137.7,131.1a3.2,3.2,0,0,0,4,1.7c3-1,7.6-3.3,9.8-2.3s12.6.7,12.3-.5,2.6-5.1,2.6-5.1-1.6-.3-2.6-5.4c-.1-.7-.2-1.5-.3-2.5a29.1,29.1,0,0,1-.2-5.9c.4-5.5,2.3-7.7,2.3-7.7a6.3,6.3,0,0,0,.4-7.2c-1.2-2.2-6-8.3-6.1-11s-2.4-5.3-2.4-5.3.1,1.9-1,2-1.6-.5-3-1.1-4.2-2.4-4.3-3.4-8.7-.5-10.6,8.3-1.2,13.7-.9,14.7,2.7,14.5.7,20.2A19.8,19.8,0,0,0,137.7,131.1Z" style="fill:#a46468"/><path id="f02e26f2-d388-4467-8210-587a6079648f" data-name="Path 721" d="M151.8,115.6a23.3,23.3,0,0,0,6.2,6.7,40.3,40.3,0,0,1,4.9.3c-.1-.7-.2-1.6-.3-2.5a29.1,29.1,0,0,1-.2-5.9,2.2,2.2,0,0,1-1.1-1.4c-.5-1.6-4.7-9.3-4.7-9.3s-9.9-2.5-10.2,0S149.4,111.3,151.8,115.6Z" style="fill:#dfe0ec;isolation:isolate;opacity:0.10000000149011612"/><path id="baa44493-d95a-4bc9-87c3-20d6d82a5d8b" data-name="Path 722" d="M155.1,98.7s6,11.3,6.4,13a2.4,2.4,0,0,0,2,1.6s6,1.4,7.4,1.6l13.7,1.2s3.2.1,3.5-1,6.4-6.5,9.9-1.8a3.2,3.2,0,0,1,.5,3.1c-.6,2.1-1.9,5.3-3.4,3.3s-4.3-2-4.3-.5-3.1.9-4.2,1.1l-4.2,1.1a25.1,25.1,0,0,1-6,1c-3.4.3-8.3.4-10.1-.2a25.8,25.8,0,0,0-7.3-1.1,2.5,2.5,0,0,1-1.5-.5,21.4,21.4,0,0,1-5.4-6.2c-2.5-4.3-7.6-13.1-7.2-15.7S155.1,98.7,155.1,98.7Z" style="fill:#f0b7b9"/><path id="eb19081e-ada3-4b91-9b6b-802b59a8a80c" data-name="Path 723" d="M153.1,83.1a78.3,78.3,0,0,1,4.7,9.1c1.5,3.8,3.3,10.4,3.3,10.4l-8.9-1-.8-1.3s-6.4,4-5.6,5.7a15.4,15.4,0,0,1-1.5-7.4c.2-4.8-.7-13.4,0-15.5S151,81.5,153.1,83.1Z" style="fill:#dfe0ec;isolation:isolate;opacity:0.10000000149011612"/><path id="b05c5723-e80d-40ce-943f-198cbc67c336" data-name="Path 724" d="M144.3,98.1a16.1,16.1,0,0,0,1.5,7.4c-.7-1.7,5.6-5.7,5.6-5.7l.8,1.2,8.9,1s-1.8-6.6-3.3-10.4a51.2,51.2,0,0,0-3.1-6.2l-1.6-2.9a11,11,0,0,0-5.9-1.4l-.9.2a2.4,2.4,0,0,0-1.9,1v.2C143.6,84.6,144.5,93.2,144.3,98.1Z" style="fill:#a46468"/><path id="bc5a0c8f-5965-4e7e-99d9-8eea0b9124fb" data-name="Path 725" d="M140.3,111.3s3.8,5.2,4.9,5.3S140.4,115.6,140.3,111.3Z" style="fill:#dfe0ec;isolation:isolate;opacity:0.10000000149011612"/><path id="bc2f973c-1cc4-4482-940a-6932e573d01d" data-name="Path 726" d="M140.3,118.7s7.1,7.2,9.4,7.2S140.3,118.7,140.3,118.7Z" style="fill:#dfe0ec;isolation:isolate;opacity:0.10000000149011612"/><path id="f06fadad-5174-4120-9ff6-5b4eba4b0620" data-name="Path 727" d="M140.3,121.7s4.6,5.3,4.9,5.3S140.3,125.2,140.3,121.7Z" style="fill:#dfe0ec;isolation:isolate;opacity:0.10000000149011612"/><path id="f46fcce5-b61e-4a8f-9422-08333c266707" data-name="Path 728" d="M144.4,82.3a8.6,8.6,0,0,0,2.1-.7l.7-.5a17.1,17.1,0,0,0,2.6-2.1,10.4,10.4,0,0,0,3.1-4.4,2.7,2.7,0,0,0,.3-1.2c.3-2.2.1-4.6,1.6-6.1l1-.7c2.2-1,5.5-.3,7.1-2.2s1-2.9,1.8-4.2a8.1,8.1,0,0,1,1.6-1.6,10.2,10.2,0,0,0-17.1,11.2,10.7,10.7,0,0,0,3,3,.8.8,0,0,1-.2.4,26.5,26.5,0,0,1-6.2,7.5l.4.5A2.9,2.9,0,0,0,144.4,82.3Z" style="fill:#dfe0ec;isolation:isolate;opacity:0.10000000149011612"/><path id="ec53f77e-f2f5-483d-972a-607cfe04427d" data-name="Path 729" d="M162.3,64.1c-1.9,2.2-5.9.9-8,2.9s-1.2,4.9-1.9,7.3a11.6,11.6,0,0,1-3.2,4.4c-1.9,1.9-4.3,3.8-6.9,3.2s-3.1-1.4-4.6-.9a4.3,4.3,0,0,0-1.8,1.5,12.5,12.5,0,0,1-7,3.6,2.6,2.6,0,0,1-1.5-.1c-.8-.3-1.3-1.2-2-1.6s-3.2,0-4.7.8a32.9,32.9,0,0,1-27.1,1.9L95.9,86c-.5-1-1.8-1.2-2.7-1.9s-.7-4.6,1.1-5.9,4.2-1.9,6.1-3.2a1.4,1.4,0,0,0,.9-1.1,3.6,3.6,0,0,0-.4-.9c-1-1.8-2.1-3.7-1.9-5.7s3.8-5.1,6.9-5.3,6.3.7,9.4.8a6.4,6.4,0,0,0,3.3-.7c1.4-.8,2.1-2.4,2.9-3.7a15.2,15.2,0,0,1,6.1-5.7c2.8-1.4,6-1.9,9-3.1s5.8-3.1,8.9-3.9c4.6-1.1,9.5.3,13.5,2.9,1.9,1.2,7.9,5.2,7.9,7.8s-2,2.3-2.7,3.5S163.4,62.9,162.3,64.1Z" style="fill:#965d7b"/><g id="b160490d-8ff3-4ed9-b98d-10a80530a83b" data-name="Group 16" style="opacity:0.10000000149011612"><path id="bc082175-a246-4e58-a622-b0ea78dfc937" data-name="Path 730" d="M100.7,71.6a1.6,1.6,0,0,1,.3.9c0,.1-.1.3-.1.4A11.4,11.4,0,0,1,99,68.2,21.6,21.6,0,0,0,100.7,71.6Z" style="fill:#dfe0ec"/><path id="e4890027-becb-4e78-a68a-68e7b181ee1e" data-name="Path 731" d="M92.9,82.6c.9.8,2.2,1,2.7,2l-.8.4-1.6-.9a3.2,3.2,0,0,1-.9-2.3l.6.8Z" style="fill:#dfe0ec"/><path id="fd6fb901-b874-4ed3-9179-e21d926c7084" data-name="Path 732" d="M120.4,83.8c1.5-.8,3.3-1.8,4.7-.9s1.2,1.4,2,1.7a2.9,2.9,0,0,0,1.6.1,12.8,12.8,0,0,0,6.9-3.6,4.5,4.5,0,0,1,1.9-1.5c1.4-.6,3,.6,4.5.9s5-1.3,7-3.2a12.5,12.5,0,0,0,3.1-4.4c.8-2.4,0-5.5,1.9-7.3s6.1-.7,8.1-2.9,1-2.9,1.8-4.2,2.4-1.9,2.7-3.3a2.7,2.7,0,0,1,.3,1.2c0,1.5-2,2.3-2.7,3.5s-.8,3-1.9,4.2-5.9.9-8,2.9-1.2,4.9-1.9,7.3a10.9,10.9,0,0,1-3.2,4.4c-1.9,1.9-4.3,3.8-6.9,3.2s-3.1-1.4-4.5-.9a4.7,4.7,0,0,0-1.9,1.5,12.5,12.5,0,0,1-7,3.6,2.6,2.6,0,0,1-1.5-.1c-.8-.3-1.3-1.2-2-1.6s-3.2,0-4.7.8a32.9,32.9,0,0,1-27.1,1.9l1.6-.7A33,33,0,0,0,120.4,83.8Z" style="fill:#dfe0ec"/></g><path id="b0a3b3ee-d84c-4661-ae5e-a87bd7d835dd" data-name="Path 733" d="M190.6,157.6l2.4-1.2v-.5a18.6,18.6,0,0,0-3.4.6C190.7,156.7,190.6,157.4,190.6,157.6Z" style="fill:#dfe0ec;isolation:isolate;opacity:0.10000000149011612"/><ellipse id="ac54b6b6-082b-4df6-973a-5c7b10714b99" data-name="Ellipse 158" cx="192.7" cy="124.4" rx="5.8" ry="7" style="fill:#df2b67"/><path id="ffe87986-8501-4217-9e53-776c1bf28f01" data-name="Path 734" d="M137.3,115.3l-9.3,9.1-30.4-.5,8.4-8.6Z" style="fill:#dda2a7"/><path id="b31e3bcb-9b6d-4ff6-a07d-613780f5deb6" data-name="Path 735" d="M137.3,146.5V115.3l-9.3,9.1V155Z" style="fill:#b77a7f"/><path id="aa398d37-5140-41b5-8871-0406d8b095fd" data-name="Path 736" d="M97.6,123.9V155H128V124.4Z" style="fill:#dda2a7"/><path id="aa8a872e-efd7-4d89-8aeb-c1f175141fe4" data-name="Path 737" d="M97.6,123.9V155H128V124.4Z" style="fill:#1d1f3f;isolation:isolate;opacity:0.30000001192092896"/><path id="e344d3ff-5a49-4994-8c90-2f814fbcb374" data-name="Path 738" d="M125.6,133,103,129.1l-3,14.8,23.3,4.3Z" style="fill:#dcdfec"/><path id="ba02855c-c1b9-42bc-bdd8-efa35100917a" data-name="Path 739" d="M121.1,136.4,105.9,134l-.4,2,15.2,2.6Z" style="fill:#df2b67"/><path id="b373b402-fd65-45c5-9eb3-7a9c934a353e" data-name="Path 740" d="M116.9,140.7l-8.6-1.3-.4,2.2,9,1.3Z" style="fill:#df2b67"/><path id="f698d2aa-5b24-412b-b505-5bc3d0c2e741" data-name="Path 741" d="M133.6,131.7l-.5-12.3-2.3,2.3.4,12.3Z" style="fill:#66627d"/><path id="ed09bac6-3d87-4de6-965f-b9aee9789413" data-name="Path 742" d="M102.9,118.4l29.3.4.9.6-2.3,2.3-.9-.5-28.9-.8Z" style="fill:#66627d"/></g></svg>