<svg id="ba29e547-ea26-4f85-88f8-eafd23dcd536" data-name="Слой 1" xmlns="http://www.w3.org/2000/svg" xmlns:xlink="http://www.w3.org/1999/xlink" viewBox="0 0 300 230"><defs><linearGradient id="a7beb634-ceff-4d5f-9d94-367814ac5f96" x1="5.32" y1="228.72" x2="5.32" y2="229.72" gradientTransform="matrix(64.17, 0, 0, -148.16, -146.1, 34099.2)" gradientUnits="userSpaceOnUse"><stop offset="0" stop-color="#808081" stop-opacity="0.25"/><stop offset="0.54" stop-color="#808081" stop-opacity="0.12"/><stop offset="1" stop-color="#808081" stop-opacity="0.1"/></linearGradient><linearGradient id="a7ba9139-d6d5-4c7d-aead-7a4b35762263" x1="4.1" y1="228.65" x2="4.1" y2="229.65" gradientTransform="matrix(94.33, 0, 0, -140.9, -309.04, 32423.89)" xlink:href="#a7beb634-ceff-4d5f-9d94-367814ac5f96"/></defs><g id="ba899e5b-e7d5-4fd6-b105-bc61868b803a" data-name="Group 2467"><ellipse id="fea22602-ce5b-4ed0-8238-5fca4d8fa907" data-name="Ellipse 159" cx="21.2" cy="178.6" rx="14.9" ry="5.6" style="fill:#df2b67;isolation:isolate;opacity:0.10000000149011612"/><ellipse id="adaa8cd9-7e17-4b56-a4dc-17956c9a70d0" data-name="Ellipse 160" cx="262.5" cy="201.5" rx="14.9" ry="5.6" style="fill:#df2b67;isolation:isolate;opacity:0.10000000149011612"/><path id="f690c009-5e98-47b9-a63f-580ada3334f1" data-name="Path 743" d="M176.9,6.4a95.9,95.9,0,0,1-70.3,1C74.2-4.9,31.8-8,16.1,48.1c-26.8,95.8,28.1,130.1,28.1,130.1s38.2,8.9,59.4,25.1c30.1,23,67,30.7,101.7,19.9,22.2-6.9,41.2-18.2,46.7-36.7,15.2-51.8,5.5-83,33-96.6s12.3-64.3-7.3-65.5S212,35,197.7,11.7C192.6,3.4,184.8,3.2,176.9,6.4Z" style="fill:#df2b67;isolation:isolate;opacity:0.10000000149011612"/><path id="fb5f9ea4-86f8-4917-8271-b91184d991e0" data-name="Path 744" d="M261.9,202.3s4-14.2-.7-24.6a22.6,22.6,0,0,1-1.8-14,45.8,45.8,0,0,1,1.9-6.6" style="fill:none;stroke:#545562;stroke-miterlimit:10;stroke-width:2px"/><path id="e8877cf3-92da-4082-8ac0-84f9b4e0e016" data-name="Path 745" d="M258.4,150.5c0,1.7,3,6.8,3,6.8s3-5.1,3-6.8a3,3,0,0,0-2.9-3.2,3.1,3.1,0,0,0-3.1,2.9v.3Z" style="fill:#df2b67"/><path id="f5de18e3-e42b-4abd-bd04-996d83220d9d" data-name="Path 746" d="M253.4,160.1c.9,1.5,6.1,4,6.1,4s-.1-6-1-7.4a3,3,0,0,0-4.1-1,.1.1,0,0,0-.1.1,3.2,3.2,0,0,0-.9,4.3Z" style="fill:#df2b67"/><path id="ecb44127-ccbc-4de0-9d34-a8883d476bcc" data-name="Path 747" d="M253.6,176.5c1.5.8,7.2.3,7.2.3s-3-5.1-4.5-5.9a2.9,2.9,0,0,0-3.9,1.3.1.1,0,0,0-.1.1,3.1,3.1,0,0,0,1.3,4.2Z" style="fill:#df2b67"/><path id="e6d13983-a909-417a-8318-67313686ea2d" data-name="Path 748" d="M256.5,188.9c1.3,1.1,7,1.5,7,1.5s-2.1-5.5-3.4-6.5a2.9,2.9,0,0,0-4.1.5h-.2a3.3,3.3,0,0,0,.7,4.4Z" style="fill:#df2b67"/><path id="b359f432-8140-4962-ab2d-4cf529c41d53" data-name="Path 749" d="M265.8,164.4c-1.2,1.2-6.8,2.5-6.8,2.5s1.4-5.8,2.6-7a2.9,2.9,0,0,1,4.1-.1v.2a3.1,3.1,0,0,1,0,4.4Z" style="fill:#df2b67"/><path id="ebace51f-a8aa-450a-8f9a-419ce7e756af" data-name="Path 750" d="M268.9,179c-1.5.7-7.1.2-7.1.2s2.9-5.1,4.4-5.8a3,3,0,0,1,4,1.2v.2a3.3,3.3,0,0,1-1.4,4.2Z" style="fill:#df2b67"/><path id="a1adebc9-c571-4d31-9211-2beb20a94110" data-name="Path 751" d="M270.1,193.5c-1.3,1.1-7,1.5-7,1.5s2.1-5.5,3.4-6.5a2.9,2.9,0,0,1,4.1.5h.2A3.3,3.3,0,0,1,270.1,193.5Z" style="fill:#df2b67"/><path id="f001c130-47e8-46aa-b17b-45e15f74bbd3" data-name="Path 752" d="M21.2,178.6s8.5-30.2-1.6-52.5a49.9,49.9,0,0,1-3.7-30,83.4,83.4,0,0,1,4.1-14" style="fill:none;stroke:#545562;stroke-miterlimit:10;stroke-width:2px"/><path id="ffb8c857-22e1-45f4-be5c-eaef9748eb05" data-name="Path 753" d="M13.7,68c0,3.7,6.4,14.4,6.4,14.4S26.5,71.7,26.5,68a6.4,6.4,0,1,0-12.8-.6V68Z" style="fill:#df2b67"/><path id="f4d2c7bc-1afe-4055-96a5-f98069117c05" data-name="Path 754" d="M3.1,88.5C5,91.6,16,97,16,97s-.2-12.7-2.1-15.8a6.4,6.4,0,0,0-8.7-2c0,.1-.1.1-.1.2a6.8,6.8,0,0,0-2,9.1Z" style="fill:#df2b67"/><path id="a26fd34e-dea5-4d46-a241-a79da9c50e48" data-name="Path 755" d="M3.5,123.6c3.2,1.7,15.3.5,15.3.5s-6.3-10.8-9.5-12.5a6.3,6.3,0,0,0-8.5,2.7c0,.1-.1.2-.1.3a6.8,6.8,0,0,0,2.8,9Z" style="fill:#df2b67"/><path id="fc5bb0a4-2de2-4e20-82f7-40193fb74014" data-name="Path 756" d="M9.6,150.1c2.8,2.2,14.9,3.2,14.9,3.2s-4.4-11.8-7.3-14a6.2,6.2,0,0,0-8.7,1.1l-.2.3A6.8,6.8,0,0,0,9.6,150.1Z" style="fill:#df2b67"/><path id="b8493ee9-7eb7-4f8d-97f2-512aeb98f568" data-name="Path 757" d="M29.5,97.7c-2.6,2.6-14.4,5.3-14.4,5.3S18,90.7,20.5,88.1a6.2,6.2,0,0,1,8.8-.2l.3.3a7,7,0,0,1-.1,9.5Z" style="fill:#df2b67"/><path id="fcedee85-3d79-4ec2-bc7b-7803424a9328" data-name="Path 758" d="M36.2,128.8c-3.2,1.6-15.3.5-15.3.5s6.4-10.8,9.5-12.5a6.3,6.3,0,0,1,8.5,2.7v.3a6.8,6.8,0,0,1-2.8,9Z" style="fill:#df2b67"/><path id="e577c24f-c10a-4b42-8d58-5efe91aabd58" data-name="Path 759" d="M38.8,159.9c-2.9,2.2-15,3.2-15,3.2s4.5-11.8,7.3-14a6.3,6.3,0,0,1,8.8,1.1l.2.3a7,7,0,0,1-1.3,9.4Z" style="fill:#df2b67"/><path id="b437fdd0-b82c-4a07-b704-53d1c898f9af" data-name="Path 760" d="M125.9,104l-18.5-2.5c-.8-.1-1.4-.4-1.3-.6h0c0-.3.6-.4,1.4-.3l18.4,2.8c.6.1.9.3.9.5h0C126.8,104,126.4,104.1,125.9,104Z" style="fill:#df2b67"/><path id="e439ef55-f737-459f-8384-baec4126be20" data-name="Path 761" d="M126,104.4l-18.6-2c-.7-.1-1.4,0-1.4.3h0c0,.2.6.5,1.3.6l18.6,1.7c.5.1.9,0,1-.2h0C126.9,104.6,126.5,104.4,126,104.4Z" style="fill:#df2b67"/><path id="a8466ef8-a4e2-43c5-bfac-c2f902672fcc" data-name="Path 762" d="M153.8,119l18.5-2.5c.8-.1,1.3-.4,1.3-.7h0c0-.3-.6-.4-1.4-.3l-18.5,2.8c-.5.1-.9.3-.8.5h0C152.9,118.9,153.3,119,153.8,119Z" style="fill:#df2b67"/><path id="ea50c4ca-8332-46e5-b34d-8464f9521bc4" data-name="Path 763" d="M153.7,119.3l18.5-2c.8-.1,1.4,0,1.5.3h0c0,.3-.6.5-1.4.6l-18.6,1.7c-.5.1-.9,0-.9-.2h0C152.8,119.5,153.2,119.3,153.7,119.3Z" style="fill:#df2b67"/><rect id="e0539ccf-70a3-42cb-a67e-38e9488f43e7" data-name="Rectangle 14" x="88.1" y="139.7" width="4.5" height="67.62" style="fill:#40414d"/><rect id="a456e65c-9a20-400f-90f9-1155c87fc705" data-name="Rectangle 15" x="186.6" y="139.7" width="4.5" height="67.62" style="fill:#40414d"/><path id="b22402f8-6ab4-414a-8067-65b534d10913" data-name="Path 764" d="M86.4,134.2H190.6a7.5,7.5,0,0,1,7.3,7.7v1H79.1v-1A7.5,7.5,0,0,1,86.4,134.2Z" style="fill:#dfe6f5"/><path id="adf30ace-1d62-414f-b4af-e9b891aa4dda" data-name="Path 765" d="M86.1,134.2H190.3a7.5,7.5,0,0,1,7.3,7.7v1H78.8v-1A7.4,7.4,0,0,1,86.1,134.2Z" style="fill:#dfe0ec;isolation:isolate;opacity:0.10000000149011612"/><path id="b1873de2-087e-495d-8189-dec1755838cb" data-name="Path 766" d="M86.4,132.6H190.6a7.6,7.6,0,0,1,7.3,7.7v1H79.1v-1A7.6,7.6,0,0,1,86.4,132.6Z" style="fill:#dfe6f5"/><ellipse id="a4ef87b1-8b94-4ade-b235-d2e9a895a41d" data-name="Ellipse 161" cx="138.5" cy="117.7" rx="9" ry="9.4" style="fill:#ffd77c;stroke:#f7a953;stroke-miterlimit:10"/><ellipse id="e7ace05a-cf45-4169-87ca-9e67d7d6f92a" data-name="Ellipse 162" cx="138.5" cy="117.7" rx="7.2" ry="7.5" style="fill:#ffd77c;stroke:#f7a953;stroke-miterlimit:10"/><ellipse id="b0e93da4-12d8-4f32-9a43-a78926183220" data-name="Ellipse 163" cx="138.5" cy="117.7" rx="5.4" ry="5.7" style="fill:#ffd77c;stroke:#f7a953;stroke-miterlimit:10"/><ellipse id="e1c6091f-5fd8-4e40-8886-4df17e0e1fa2" data-name="Ellipse 164" cx="138.5" cy="117.7" rx="3.1" ry="3.2" style="fill:#ffd77c;stroke:#f7a953;stroke-miterlimit:10"/><ellipse id="ee9fd258-9ab9-4571-914d-067db11eb3f2" data-name="Ellipse 165" cx="133.2" cy="122.8" rx="9" ry="9.4" style="fill:#ffd77c;stroke:#f7a953;stroke-miterlimit:10"/><ellipse id="ab30fa6a-a930-424c-a554-b4228ddc182a" data-name="Ellipse 166" cx="133.2" cy="122.8" rx="7.2" ry="7.5" style="fill:#ffd77c;stroke:#f7a953;stroke-miterlimit:10"/><ellipse id="f4d2d19b-8544-44e6-b7ab-691830932d92" data-name="Ellipse 167" cx="133.2" cy="122.8" rx="5.4" ry="5.7" style="fill:#ffd77c;stroke:#f7a953;stroke-miterlimit:10"/><ellipse id="add41615-5cdd-4eb1-a83b-bd45917efe06" data-name="Ellipse 168" cx="133.2" cy="122.8" rx="3.1" ry="3.2" style="fill:#ffd77c;stroke:#f7a953;stroke-miterlimit:10"/><ellipse id="a2bd988c-4382-4ae3-a522-a9a76af9289e" data-name="Ellipse 169" cx="143.8" cy="122.8" rx="9" ry="9.4" style="fill:#ffd77c;stroke:#f7a953;stroke-miterlimit:10"/><ellipse id="b1f1ddb1-1c2a-44a6-83bb-c6dc5fadbf30" data-name="Ellipse 170" cx="143.8" cy="122.8" rx="7.2" ry="7.5" style="fill:#ffd77c;stroke:#f7a953;stroke-miterlimit:10"/><ellipse id="b17704ef-68c2-439a-976a-0ba6de02412a" data-name="Ellipse 171" cx="143.8" cy="122.8" rx="5.4" ry="5.7" style="fill:#ffd77c;stroke:#f7a953;stroke-miterlimit:10"/><ellipse id="ae56e11e-6523-4798-88c3-8824b2930d31" data-name="Ellipse 172" cx="143.8" cy="122.8" rx="3.1" ry="3.2" style="fill:#ffd77c;stroke:#f7a953;stroke-miterlimit:10"/><path id="a5c5ff97-a021-4e82-b23c-75130341b502" data-name="Path 767" d="M119.7,120.1h37.6v1.8c0,7.7-5.9,13.9-13.3,13.9H133c-7.4,0-13.3-6.2-13.3-13.9Z" style="fill:#df2b67"/><path id="b1920064-8722-4cf3-8751-1dfacf071c41" data-name="Path 768" d="M153.9,120.1c-.2,8.5-6.9,15.3-15,15.3h-7.5a12.4,12.4,0,0,0,3.3.4h7.6c8.3,0,15-7,15-15.7Z" style="fill:#dfe0ec;isolation:isolate;opacity:0.10000000149011612"/><rect id="e202347a-0069-4aa3-a3b1-64d30bbfa4d1" data-name="Rectangle 16" x="91.1" y="191.2" width="97.8" height="4.72" style="fill:#40414d"/><rect id="a369cdc0-b8e4-430b-93b6-7ec5c6e92454" data-name="Rectangle 17" x="50.5" y="174.8" width="3.9" height="37.54" style="fill:#40414d"/><rect id="ed6aee90-fcb2-43ac-bbc6-60f26762c3b5" data-name="Rectangle 18" x="81.7" y="174.8" width="3.9" height="37.54" style="fill:#40414d"/><path id="bbf0090b-0356-4d7d-aac2-dda9ba98722d" data-name="Path 769" d="M88.8,168.6c0,2.5-8.1,4.5-18.2,4.5s-17.7-2-17.7-4.5,7.7-4.6,17.7-4.6S88.8,166.1,88.8,168.6Z" style="fill:#f6c6cc"/><path id="f678222c-2696-4313-b966-591c4e41feb4" data-name="Path 770" d="M47.4,168.6H88.8v3.8a3.6,3.6,0,0,1-3.5,3.6h-32a6.1,6.1,0,0,1-5.9-6.3Z" style="fill:#40414d"/><path id="abee8e1b-b5b1-4bf0-93e3-e5968ae83a3e" data-name="Path 771" d="M40.3,125.2l.9-.2a2.2,2.2,0,0,1,2.7,1.7H44l10.3,47.9L53,175a4.2,4.2,0,0,1-5-3.2h0l-9.4-43.6a2.1,2.1,0,0,1,.3-1.9A2.1,2.1,0,0,1,40.3,125.2Z" style="fill:#40414d"/><rect id="a24e68d0-b69d-4f24-81b8-84f00aa504d6" data-name="Rectangle 19" x="223.2" y="175.4" width="3.9" height="37.54" style="fill:#40414d"/><rect id="ec0c0b76-04ed-4bba-b3b7-49035e0f7c03" data-name="Rectangle 20" x="192" y="175.4" width="3.9" height="37.54" style="fill:#40414d"/><path id="b1f9a181-a512-4fca-8fd5-453fb4783fcf" data-name="Path 772" d="M188.9,169.2c0,2.5,8.1,4.6,18.1,4.6s17.8-2.1,17.8-4.6-7.7-4.5-17.8-4.5S188.9,166.7,188.9,169.2Z" style="fill:#f6c6cc"/><path id="ab84a830-206e-4d9b-b4c0-282430857a88" data-name="Path 773" d="M224.3,176.7H192.4a3.6,3.6,0,0,1-3.5-3.7v-3.8h41.4v1.2A6.1,6.1,0,0,1,224.3,176.7Z" style="fill:#40414d"/><path id="abb818c8-1491-4a91-9a3c-7ddfb23377ac" data-name="Path 774" d="M224.7,175.7l-1.3-.3,10.3-47.9a2.4,2.4,0,0,1,2.7-1.9h.1l.9.2a2.5,2.5,0,0,1,1.7,2.9l-9.4,43.7a4.1,4.1,0,0,1-4.9,3.3Z" style="fill:#40414d"/><path id="bd47b606-f5dd-46ef-9e91-8f29e6410301" data-name="Path 775" d="M226.1,154.6l1.1-.4a210.1,210.1,0,0,1-1.9-26.3v-1.1a16.9,16.9,0,0,1,.1-2.3v-2.8c.1-12-4.4-17.1-4.4-17.1s-5.3-7.9-8.5-9.4c-.3-.9-.6-2.1-.9-3.4l.3-.3,3.8-3.2c1.6-1.6,3.2-3.6,3.1-5.8v-.6c-.3-2.7-3-4.7-4-7.2s-.6-4.5-1.4-6.6-3.6-4.1-5.6-3a15.4,15.4,0,0,0-1.9,1.7c-1.5,1.4-4.1,1.5-6.2.9s-2.8-3.2-5.8-3.2l.7.3h-.7a3.7,3.7,0,0,1,2.3,2.9c0,.1,0,.2-.1.2s-2.7.3-4.2.3-3.1.7-2.9,2v.4c.2.9,1.4,1.6,1.5,2.5h0a24.7,24.7,0,0,1-8.5,2.6c-.1,0,0,.1.1.3H182c-.5,0,3.2,3.2,3.7,3.4a51.7,51.7,0,0,0,5.1,1.8h.2a11.4,11.4,0,0,0,6.2,14.9l1.6.5,2.8,3.6h-.1a35.2,35.2,0,0,0-5.5,19.9,21.3,21.3,0,0,0,.2,4.4c-3.7-.2-11.6-1.2-17.6-5.8-8.1-6.2-17.2-4.3-15.3-.6s11.6,6.8,13.1,7.1l1,.2c-1.9.4-3.2,1.1-3.2,2s8.5,7.1,13.5,7.4a51,51,0,0,1,10.3,2.2c.3,7.1-1.3,9.3-1.3,9.3l1.3.7-.4,1.1a26.9,26.9,0,0,1-6.7,3,34.8,34.8,0,0,0-8.4,2.9l-11.3,5.7a6.9,6.9,0,0,0-3.7,5.3c-.2,2.4.5,5.4,4.2,7.8.3,2,1.4,4.2,4.4,6.3,5.8,4.1,21.1,16.2,23.2,17.8,0,3-.4,8.9-3.9,9.8s-.8,5.6,2.7,5.4a4.7,4.7,0,0,0,2.6.2c3.8-.9,17.5-5.9,18.4-13.3a3.4,3.4,0,0,0,.1-1,5.7,5.7,0,0,0-.9-3.6,4.2,4.2,0,0,1,.4,1c-1.2-2.7-3.9-4.4-6.1-5.3h0l-.9-.4v-.6l-21.6-15.5s9.4-8,19.1-6.8,11.2-.6,11.2-.6,4.9-4.9,5.4-10.6h.3Z" style="fill:url(#a7beb634-ceff-4d5f-9d94-367814ac5f96)"/><path id="a2e6c71f-31db-40f7-af15-a42889143277" data-name="Path 776" d="M199.8,195s.9,10.1-3.5,11.4-.3,6.1,3.2,5.2,16.4-5.9,17.3-13.2-8.8-9.8-8.8-9.8Z" style="fill:#b9616e"/><path id="ed16655b-49a2-414c-8cb4-a7ed7377a5bb" data-name="Path 777" d="M199.8,195s.9,10.1-3.5,11.4-.3,6.1,3.2,5.2,16.4-5.9,17.3-13.2-8.8-9.8-8.8-9.8Z" style="fill:#dfe0ec;isolation:isolate;opacity:0.05000000074505806"/><path id="a88e9dcc-04a7-46c5-8cf0-29ecc1d1cb79" data-name="Path 778" d="M201.6,195.3s.8,10.1-3.6,11.4-.2,6.1,3.3,5.2,16.4-5.9,17.3-13.2-8.8-9.8-8.8-9.8Z" style="fill:#b9616e"/><path id="bb713644-e926-403e-b52a-f140ee0ca48a" data-name="Path 779" d="M210.7,189.2l-8.3,6.4a6.8,6.8,0,0,1,.1,1.2c3.1-.9,9.9-3.3,10-7Z" style="fill:#dfe0ec;isolation:isolate;opacity:0.10000000149011612"/><rect id="bdf46794-e3d3-4e0e-aa3d-b2bb0fc30750" data-name="Rectangle 21" x="202" y="101" width="3.5" height="2.76" style="fill:#f7bdc5"/><path id="b59a2856-2771-4924-9a92-56188a8b284c" data-name="Path 780" d="M202.2,145.6s-5.6,4.6-10.2,5.7a31.2,31.2,0,0,0-7.9,2.9l-10.6,5.6a6.6,6.6,0,0,0-3.5,5.3c-.3,3.1.9,7.2,8.1,9.6l22.6,19.7,7-6.2-24-19.3L202.2,157Z" style="fill:#758ac5"/><path id="ff543855-88de-4886-af59-b9b170ca0ddf" data-name="Path 781" d="M202.2,145.6s-5.6,4.6-10.2,5.7a31.2,31.2,0,0,0-7.9,2.9l-10.6,5.6a6.6,6.6,0,0,0-3.5,5.3c-.3,3.1.9,7.2,8.1,9.6l22.6,19.7,7-6.2-24-19.3L202.2,157Z" style="fill:#dfe0ec;isolation:isolate;opacity:0.10000000149011612"/><path id="f7ebbe93-b1d5-4e94-9a6d-d84fc7574d28" data-name="Path 782" d="M198.9,125.1s-10.8.3-18.5-5.9-16.1-4.3-14.3-.6,10.8,6.8,12.3,7.1l22.6,6.4Z" style="fill:#f7bdc5"/><path id="a46ea01f-8eae-4856-9b48-5aaa2e2c8dc4" data-name="Path 783" d="M198.9,125.1s-10.8.3-18.5-5.9-16.1-4.3-14.3-.6,10.8,6.8,12.3,7.1l22.6,6.4Z" style="fill:#dfe0ec;isolation:isolate;opacity:0.05000000074505806"/><path id="be0899bf-60a9-44f2-abcc-1fdb6a58d9b7" data-name="Path 784" d="M200.1,142.8l-3.5,11.1s-19.8,12.7-21.4,14.4-3,6.5,2.9,10.7,22,17.8,22,17.8,12.3-2.7,11.4-7.9l-20.2-15.4s8.8-8,17.9-6.7,10.6-.6,10.6-.6,7-7.4,4.6-14.5S200.1,142.8,200.1,142.8Z" style="fill:#758ac5"/><path id="aa71da28-5005-438d-87b8-1c2981a9047e" data-name="Path 785" d="M195.7,92.9s10,11.3,9.4,14.7,7.9-9.8,7.9-9.8a36.3,36.3,0,0,1-2-14.2Z" style="fill:#f7bdc5"/><path id="f07df4b7-e30e-4071-85cb-5097185399db" data-name="Path 786" d="M204.4,103.3l2.1-2.2a28.5,28.5,0,0,0,4.2-4.3c2-2.7,9.6,9.2,9.6,9.2s4.7,5.6,4.2,18.7.7,30.9.7,30.9l-1.8.5a9.7,9.7,0,0,1-9-1.3c-2.3-1.7-5.3-3.5-7.6-3.7a19.2,19.2,0,0,1-8.3-2.9s1.9-4.7-1-20.1a37,37,0,0,1,4.5-26.2S202.6,105.2,204.4,103.3Z" style="fill:#dfe0ec;isolation:isolate;opacity:0.10000000149011612"/><path id="a041959a-f09c-4e24-abcd-9693c82773e3" data-name="Path 787" d="M226.2,154.2l-1.7.6-1.1.4a10,10,0,0,1-9-1.4c-2.3-1.6-5.3-3.4-7.6-3.6-4.4-.3-9.3-3.7-9.3-3.7s2.9-4,0-19.3A36.9,36.9,0,0,1,202,101s.6,3.3,2.4,1.3l2.2-2.1a33.5,33.5,0,0,0,4.1-4.3c2-2.8,9.7,9.2,9.7,9.2s4.7,5.5,4.1,18.7c-.1,1.4-.1,2.8-.1,4.3A228.9,228.9,0,0,0,226.2,154.2Z" style="fill:#5b539f"/><path id="a0ebf5e5-588d-42db-9e38-f1d0667c0dec" data-name="Path 788" d="M209.5,124.1l.3,6.8s-15.6.9-18.8-2.5,8.8,9.9,11.4,10.8a64.7,64.7,0,0,0,12.4,1.5,4.9,4.9,0,0,0,4.6-3,5.5,5.5,0,0,0,.4-2.8c-.6-4,0-12.6,0-12.6Z" style="fill:#dfe0ec;isolation:isolate;opacity:0.10000000149011612"/><path id="a7fe2082-79e9-40b9-a162-80562aa433fb" data-name="Path 789" d="M209.5,123.5l.3,6.8s-15.6.9-18.8-2.5-14.9-2.6-14.7,0,7.9,7.1,12.6,7.4,10.9,2.5,13.5,3.4a64.6,64.6,0,0,0,12.3,1.5,5.2,5.2,0,0,0,4.7-3,5.5,5.5,0,0,0,.4-2.8c-.6-4,0-12.6,0-12.6Z" style="fill:#f7bdc5"/><path id="a2074688-f824-4f31-956b-a4389aadc031" data-name="Path 790" d="M213,103.9s-6.7.9-5.9,11.3,2.1,11.4,2.1,11.4,10-.9,11.1-1.2.6-11.7.6-11.7S220.6,103.6,213,103.9Z" style="fill:#dfe0ec;isolation:isolate;opacity:0.10000000149011612"/><path id="e481bcf6-f749-4284-8c3b-beceda9d03ba" data-name="Path 791" d="M213,103.6s-6.7.9-5.9,11.3,2.1,11.4,2.1,11.4,10-.9,11.1-1.2.6-11.7.6-11.7S220.6,103.3,213,103.6Z" style="fill:#5b539f"/><path id="e668e79b-90b5-4e36-81bb-285efbcf3996" data-name="Path 792" d="M210.5,90.2c-.4-2.4.5-3.1.7-6.3L196,93.1s1.7,2,3.7,4.6a12.4,12.4,0,0,0,2.7.3C206.4,98.1,208.6,93.6,210.5,90.2Z" style="fill:#dfe0ec;isolation:isolate;opacity:0.10000000149011612"/><ellipse id="a5febe1c-30df-47e8-96ae-75833e8f2acf" data-name="Ellipse 173" cx="202.1" cy="86.4" rx="10.9" ry="11.4" style="fill:#f7bdc5"/><path id="b77385f7-c1f6-4019-a48b-1503741b430a" data-name="Path 793" d="M204.9,82.9c-1.7,1.1-1.7,3.6-.6,5.4a12.8,12.8,0,0,0,4.7,3.9,1.9,1.9,0,0,0,2.8,0c1.2-1.1,2.4-2.1,3.5-3.3s3.2-3.7,3-6-2.8-4.6-3.8-7.1-.6-4.4-1.3-6.5-3.4-4.1-5.3-3a9.1,9.1,0,0,0-1.7,1.7,6.1,6.1,0,0,1-5.9.8c-2.1-.6-2.7-3.1-5.5-3.1a3.4,3.4,0,0,1,2.2,3.4c-1.2.7-2.7.3-4,.3s-3,.7-2.8,2,1.7,1.8,1.5,2.9a22.7,22.7,0,0,1-8.1,2.6c-.5,0,3.1,3.1,3.5,3.3l4.8,1.9A21.4,21.4,0,0,0,204.9,82.9Z" style="fill:#dfe0ec;isolation:isolate;opacity:0.10000000149011612"/><path id="bf496ebc-d410-44e7-b777-ea5df16b50e3" data-name="Path 794" d="M204.9,82.6c-1.7,1.1-1.7,3.6-.6,5.4a12.8,12.8,0,0,0,4.7,3.9,1.9,1.9,0,0,0,2.8,0c1.2-1.1,2.4-2.1,3.5-3.3s3.2-3.7,3-6-2.8-4.6-3.8-7.1-.6-4.4-1.3-6.6-3.4-4-5.3-2.9a9.1,9.1,0,0,0-1.7,1.7,6.1,6.1,0,0,1-5.9.8c-2.1-.6-2.7-3.1-5.5-3.1a3.4,3.4,0,0,1,2.2,3.4c-1.2.7-2.7.3-4,.3s-3,.7-2.8,2,1.7,1.8,1.5,2.9a22.5,22.5,0,0,1-8.1,2.5c-.5.1,3.1,3.2,3.5,3.4l4.8,1.9A21.4,21.4,0,0,0,204.9,82.6Z" style="fill:#916168"/><path id="a8b5ac82-9162-4e08-a1ff-07eb04c3963b" data-name="Path 795" d="M217.8,194.1a7.8,7.8,0,0,1,.5,3.7c-.9,7.3-13.8,12.2-17.3,13.1a4.4,4.4,0,0,1-4.7-2,4.5,4.5,0,0,0,5,2.7c3.5-1,16.4-5.9,17.3-13.2A7.1,7.1,0,0,0,217.8,194.1Z" style="fill:#1d1f3f;isolation:isolate;opacity:0.10000000149011612"/><path id="b3937639-35bc-48be-bc7c-bd966963b2fa" data-name="Path 796" d="M124.6,202.5h0c-.3-.6-1.7-1.8-8.2-2.1-4.5-.1-6.1-2.6-6.5-5a7.5,7.5,0,0,0,3-.9v-.3h0a45.5,45.5,0,0,1-.4-5.3,17.3,17.3,0,0,1,.5-4.5,26.4,26.4,0,0,0,.2-2.9c0-5.9-2-16.3-2-16.3l-.2-8.6a6.3,6.3,0,0,0-3.1-5.2,5.4,5.4,0,0,0-2.2-.5S95.3,149,86,148.1c-.7-.5-3-2.1-8.4-1.2l-3.1-9.4v-.4c.1-1.2.8-3,4.4-3.1l.8.7.3-.7c4.5-.1,28.6-.3,29.9,0s13.3-2.5,13.7-2.8c4.7-4.8-13.7-2.5-13.7-2.5-1.8.4-7.7,0-13.7-.5,3-4.7,5.8-20.4,5.8-20.4s10.6-5.6,7.5-8.8-12.3,7-12.3,7-3.8,11.6-5.5,15.1c-.7,1.3-1.5,1.6-2.3,1.5l.6-.5s-7.6-6.3-8.3-8.7a6.1,6.1,0,0,0-.5-1.2,9.6,9.6,0,0,0-2.5-5.8l-.9-.8-1.3-1h0c.3-1,.5-2.1.8-3.2a11.6,11.6,0,0,0,9.6-14.1,4.8,4.8,0,0,0,4.4-2.2,6.4,6.4,0,0,0,.1-6,9.5,9.5,0,0,0-1.5-2,10.1,10.1,0,0,0-3.5-2.3,9.9,9.9,0,0,1-3.3-1.5A9.9,9.9,0,0,1,82,71.6,10.1,10.1,0,0,0,80.7,70a12.5,12.5,0,0,0-6.4-3.4,33.1,33.1,0,0,0-8.9-.1c-1.1,0-2.4.2-2.9,1.2a7.6,7.6,0,0,0-.2,2.6c-.1,2.6-3.1,4.1-5.6,4.8s-5.6,1.2-6.8,3.5-.4,4.7,0,7.1a18,18,0,0,1-2.5,12,60.6,60.6,0,0,0-3.5,5.3,10.9,10.9,0,0,0-.6,6.9,7.6,7.6,0,0,1,.3,2.1,4.4,4.4,0,0,1-.8,1.5,17.7,17.7,0,0,1-12.5,6.8,4.2,4.2,0,0,0,1.1,1.8,8.1,8.1,0,0,0,2.4,1.7,37.9,37.9,0,0,0,7.3,2.8,12.8,12.8,0,0,0,5.2.5,5.7,5.7,0,0,0,4.1-3c.4-.9.4-2,.8-3s2.5-3.1,3.7-4.8a109.6,109.6,0,0,0-.5,12.8v3.7a27.6,27.6,0,0,1-3.2,14.1,3.2,3.2,0,0,0-.4,2.1,2.1,2.1,0,0,0,.7,2.1,22.2,22.2,0,0,0-.3,3.7c0,4.3,1.4,10.2,8.9,11.7l13.4-.7s18.9-3.8,24-1a1.9,1.9,0,0,1,1.5,1.9c0,.3-.1.6-.1.9a12.3,12.3,0,0,0-.2,2.7c0,5.9,1.2,19.3,1.2,19.3v5.7c-.9,1.4-1.9,3.3-1.8,4.8h0v.2h0c.1,0,.1,0,.1.1h.1v.2c1.7,2.1,10.3,6.1,13,5.9s12.7.4,13.1-4.2Z" style="fill:url(#a7ba9139-d6d5-4c7d-aead-7a4b35762263)"/><path id="bcea249e-f9c3-4a05-bb5f-3130a9dce93f" data-name="Path 797" d="M100.2,193.7s-4,5.2-2.4,7.3,10,6.1,12.7,5.9,12.2.4,12.6-4.2c0,0,.6-2-8-2.4s-6-9.7-6-9.7Z" style="fill:#594c76"/><path id="ef38f2e3-f5cb-4a3a-9e2a-8cb346df5ac0" data-name="Path 798" d="M52.7,150s-4,14.2,8,16.7l12.9-.7s18.3-3.9,23.3-1.1c0,0,1.9.4,1.3,3.1s1,21.6,1,21.6v6.2s11.3,0,12.6-1.4a28,28,0,0,1,0-10c1-4.6-1.7-18.8-1.7-18.8l-.2-8.5a6.3,6.3,0,0,0-3-5.2,5.4,5.4,0,0,0-2.1-.5s-22.5-3.8-30.5-3.1Z" style="fill:#dfe0ec;isolation:isolate;opacity:0.10000000149011612"/><path id="a71bb806-aeac-45be-8188-a7e6b4399db1" data-name="Path 799" d="M52.7,149.7s-4,14.2,8,16.6l12.9-.7s18.3-3.8,23.3-1c0,0,1.9.3,1.3,3.1s1,21.5,1,21.5v6.3s11.3,0,12.6-1.4a28.6,28.6,0,0,1,0-10.1c1-4.5-1.7-18.7-1.7-18.7l-.2-8.6a6.1,6.1,0,0,0-3-5.1,4.2,4.2,0,0,0-2.1-.6s-22.5-3.8-30.5-3.1Z" style="fill:#8b9ccf"/><path id="a4f589de-e987-47a3-992e-f388bf82420c" data-name="Path 800" d="M86.9,121.5s2.6,3.5,4.3,0,5.3-14.9,5.3-14.9,9-10,12-6.9-7.3,8.7-7.3,8.7-3.7,21.1-7,21.5a57.5,57.5,0,0,1-8.3,0l-1.7-3.8Z" style="fill:#f7bdc5"/><path id="bc21ff5f-eaf6-429e-bb6b-6560783e8c34" data-name="Path 801" d="M86.9,121.5s2.6,3.5,4.3,0,5.3-14.9,5.3-14.9,9-10,12-6.9-7.3,8.7-7.3,8.7-3.7,21.1-7,21.5a57.5,57.5,0,0,1-8.3,0l-1.7-3.8Z" style="fill:#dfe0ec;isolation:isolate;opacity:0.05000000074505806"/><path id="abe46134-488b-42d0-ab47-5a59bcfe8291" data-name="Path 802" d="M74.9,104.2s6,7.3,6.7,9.7,7.9,8.7,7.9,8.7-5.3,4.2-4.3,6.2-6.9-6.9-6.9-6.9L69,107.7Z" style="fill:#ea6374"/><path id="fcb2b2ae-395a-458d-80ba-0983144d7028" data-name="Path 803" d="M74.9,104.2s6,7.3,6.7,9.7,7.9,8.7,7.9,8.7-5.3,4.2-4.3,6.2-6.9-6.9-6.9-6.9L69,107.7Z" style="fill:#dfe0ec;isolation:isolate;opacity:0.10000000149011612"/><path id="bcb795d5-66d0-430f-ac3c-dd8ea1415271" data-name="Path 804" d="M78.9,95.9s-3,10-3,13.8-12.6-1-12.2-3.1,7.3-9.7,7.6-12.8S78.9,95.9,78.9,95.9Z" style="fill:#f7bdc5"/><path id="e69a3ca8-2fd4-4bd1-b75c-c38a0203aa5b" data-name="Path 805" d="M69,102.8s-11.7-3.1-13.3,14.6S57,137.2,52,147.9s33.9,1.4,33.9,1.4-2-2.4-8.3-1.4l-3-9.4s-1-4.1,4.7-4.1,2.9-12.2,2.9-12.2-2.9-10.4-4.6-11.4S73,103.5,69,102.8Z" style="fill:#dfe0ec;isolation:isolate;opacity:0.10000000149011612"/><path id="ade59c3a-c1e7-44e3-9da8-ca3647d92c1a" data-name="Path 806" d="M69,102.1S57.3,99,55.7,116.7,57,136.5,52,147.2s33.9,1.4,33.9,1.4-2-2.4-8.3-1.4l-3-9.3s-1-4.2,4.7-4.2,2.9-12.2,2.9-12.2-2.9-10.4-4.6-11.4S73,102.8,69,102.1Z" style="fill:#ea6374"/><path id="ebb1495b-a3ee-4644-bd7a-f20030c819b0" data-name="Path 807" d="M80.6,127.1s24.2,2.8,28.2,2.1c0,0,17.8-2.3,13.3,2.4-.4.4-12,3.1-13.3,2.8s-29.5,0-29.5,0l-.4-3.5Z" style="fill:#f7bdc5"/><path id="a3753b16-016c-4ba0-bb7d-da1bbe75e26b" data-name="Path 808" d="M62,118.4l17.6,16.7s3.3-7,4.3-7S72,107.7,72,107.7s-3.4-4.2-5.4-2.1S58.7,106.3,62,118.4Z" style="fill:#dfe0ec;isolation:isolate;opacity:0.10000000149011612"/><path id="b26ffb14-0a22-48fc-8418-41d10b954c45" data-name="Path 809" d="M61.7,117.7l17.6,16.7s3.3-7,4.3-7-12-20.4-12-20.4-3.3-4.2-5.3-2.1S58.3,105.6,61.7,117.7Z" style="fill:#ea6374"/><ellipse id="add13fbf-8d2d-4405-a023-0f796d721f41" data-name="Ellipse 174" cx="75.9" cy="90.7" rx="11" ry="11.5" style="fill:#f7bdc5"/><path id="b5ddb4db-5b41-4d73-bf0d-bd7117b2fec6" data-name="Path 810" d="M85.5,87.8a4.5,4.5,0,0,0,5.3-1.9,6.4,6.4,0,0,0,.1-6A8.6,8.6,0,0,0,86.4,76a9.9,9.9,0,0,1-3.3-1.5,13.7,13.7,0,0,1-1.3-2,10.8,10.8,0,0,0-7.1-4.6,31.1,31.1,0,0,0-8.6-.2c-1.1.1-2.3.3-2.8,1.3a7.1,7.1,0,0,0-.2,2.5c-.1,2.6-3,4.1-5.5,4.8s-5.3,1.2-6.5,3.5-.3,4.7,0,7.1a18.4,18.4,0,0,1-2.4,11.9,45.9,45.9,0,0,0-3.3,5.2,11,11,0,0,0-.7,6.9,4.4,4.4,0,0,1,.3,2,4.1,4.1,0,0,1-.7,1.5,16.4,16.4,0,0,1-12.1,6.7c.3,1.5,1.7,2.5,3,3.2a33.9,33.9,0,0,0,7.1,2.8,12,12,0,0,0,5,.4,4.9,4.9,0,0,0,3.9-2.9c.4-1,.5-2,.9-3s2.9-3.4,4-5.4,1.5-2.1,1.8-4.3.9-4.5,2.6-5.8a6.2,6.2,0,0,1,6.3-.1c2,1.1,3.2.7,4.9,2.2a40.2,40.2,0,0,0,9.7,6.5c-.4-3-.9-6.4-3.2-8.2a5.2,5.2,0,0,1-1.9-1.7c-.6-1.2.4-2.8,0-4.1s-2.1-1.8-2.9-3a3.4,3.4,0,0,1,.2-3.4A8.5,8.5,0,0,1,76,91.7l2.5-1.8a18,18,0,0,0,2-1.9c.3-.5.6-1.5,1-1.8S84.5,87.3,85.5,87.8Z" style="fill:#dfe0ec;isolation:isolate;opacity:0.10000000149011612"/><path id="e15b61a6-87cc-4ca2-982e-778d23b34101" data-name="Path 811" d="M85.2,87.4a4.3,4.3,0,0,0,5.2-1.9,6.2,6.2,0,0,0,.2-5.9,7.8,7.8,0,0,0-4.5-3.9,7.8,7.8,0,0,1-3.3-1.6,6.9,6.9,0,0,1-1.3-2,11.2,11.2,0,0,0-7.2-4.6,30.3,30.3,0,0,0-8.5-.1c-1.1.1-2.4.3-2.8,1.3a4.9,4.9,0,0,0-.2,2.4c-.2,2.7-3,4.2-5.5,4.8s-5.3,1.3-6.5,3.6-.4,4.7,0,7a18.4,18.4,0,0,1-2.4,11.9,43.2,43.2,0,0,0-3.4,5.3,10.6,10.6,0,0,0-.6,6.8,7.5,7.5,0,0,1,.3,2,4.8,4.8,0,0,1-.8,1.6,16.6,16.6,0,0,1-12.1,6.7c.4,1.5,1.8,2.4,3.1,3.1a30.1,30.1,0,0,0,7,2.8,12,12,0,0,0,5,.5,5.2,5.2,0,0,0,4-3c.4-.9.5-2,.8-2.9s2.9-3.5,4.1-5.4,1.5-2.2,1.8-4.3.8-4.6,2.6-5.8,4.3-1.1,6.3-.1,3.2.6,4.8,2.1a39.6,39.6,0,0,0,9.7,6.6c-.3-3.1-.8-6.4-3.2-8.2-.6-.5-1.5-.9-1.8-1.7s.4-2.8-.1-4.1-2.1-1.8-2.8-3a3.9,3.9,0,0,1,.1-3.5,9.9,9.9,0,0,1,2.5-2.5l2.5-1.9a11.2,11.2,0,0,0,2-1.8c.3-.5.5-1.6,1-1.9S84.1,87,85.2,87.4Z" style="fill:#916168"/><g id="a78272a0-668f-4621-96a6-4a07c716076a" data-name="Group 17" style="opacity:0.10000000149011612"><path id="b0de233e-9f19-435e-807e-de71e748f50c" data-name="Path 812" d="M108.8,193.3a12.4,12.4,0,0,1,.3-2.7H109a7.4,7.4,0,0,0-.2,2.6Z" style="fill:#1d1f3f"/><path id="be5302d3-6fd2-4478-88c3-83518c99facc" data-name="Path 813" d="M110.5,206.2c-2.7.2-11-3.8-12.7-5.9a1.7,1.7,0,0,1-.3-1,2.5,2.5,0,0,0,.3,1.7c1.7,2.1,10,6.1,12.7,5.9s12.2.4,12.6-4.1c0-.2,0-.3-.1-.4C122.3,206.5,113.2,206.1,110.5,206.2Z" style="fill:#1d1f3f"/></g><rect id="b64d6c7d-cce2-42bb-acd5-5f1f66d1b58d" data-name="Rectangle 22" x="123.6" y="102.6" width="0.3" height="14.23" style="fill:#ffd77c;stroke:#f7a953;stroke-miterlimit:10;stroke-width:0.25px"/><rect id="fb6a0bc3-4b2d-4634-bcd6-f0d4c3a132e1" data-name="Rectangle 23" x="123.9" y="102.6" width="0.3" height="14.23" style="fill:#ffd77c;stroke:#f7a953;stroke-miterlimit:10;stroke-width:0.25px"/><rect id="a4776e38-232e-4084-a488-456182979eb5" data-name="Rectangle 24" x="124.2" y="102.6" width="0.3" height="14.23" style="fill:#ffd77c;stroke:#f7a953;stroke-miterlimit:10;stroke-width:0.25px"/><rect id="f900f9f4-1992-462d-b244-e888b820aad1" data-name="Rectangle 25" x="124.6" y="102.6" width="0.3" height="14.23" style="fill:#ffd77c;stroke:#f7a953;stroke-miterlimit:10;stroke-width:0.25px"/><rect id="ae1f687b-d606-4e21-9001-5ce73ec91b4f" data-name="Rectangle 26" x="124.9" y="102.6" width="0.3" height="14.23" style="fill:#ffd77c;stroke:#f7a953;stroke-miterlimit:10;stroke-width:0.25px"/><rect id="bb43b8c0-23b4-46ce-958c-8dfb2c980406" data-name="Rectangle 27" x="125.2" y="102.6" width="0.3" height="14.23" style="fill:#ffd77c;stroke:#f7a953;stroke-miterlimit:10;stroke-width:0.25px"/><rect id="a7796efc-5dea-44b6-9111-30664d5b04b2" data-name="Rectangle 28" x="125.6" y="102.6" width="0.3" height="14.23" style="fill:#ffd77c;stroke:#f7a953;stroke-miterlimit:10;stroke-width:0.25px"/><ellipse id="a3c6b9ff-98e7-4dad-9450-60ca17b96038" data-name="Ellipse 177" cx="286.6" cy="224.1" rx="13.4" ry="2.4" style="fill:#df2b67"/><path id="b12803e1-e53b-4658-acce-15b1af38c8dc" data-name="Path 905" d="M292.1,220.2a3.4,3.4,0,0,0,1.3-2,1.8,1.8,0,0,0-.9-2.1c-.8-.3-1.7.3-2.3.9s-1.5,1.3-2.3,1.1a3.9,3.9,0,0,0,1.1-3.4l-.3-.7a1.5,1.5,0,0,0-1.9.1c-1.7,1.3-2.2,3.8-2.2,6a10.4,10.4,0,0,1,0-2.5,2.7,2.7,0,0,0-.9-2.2,3.1,3.1,0,0,0-1.3-.3,2.6,2.6,0,0,0-2.2.7,2.3,2.3,0,0,0,.1,2.8,10,10,0,0,0,2.2,1.9,4.1,4.1,0,0,1,1.6,1.6l.2.3h4.8a12.9,12.9,0,0,0,3-2.2Z" style="fill:#df2b67"/><ellipse id="adf23772-b84b-4c9a-b8bd-b95d19dfbca8" data-name="Ellipse 178" cx="13.8" cy="207.4" rx="10.5" ry="1.9" style="fill:#df2b67"/><path id="ba44a07c-6fe9-40f4-b801-3a78500b9d6f" data-name="Path 906" d="M18.1,204.4a3.9,3.9,0,0,0,1-1.6,1.5,1.5,0,0,0-.7-1.7c-.6-.2-1.3.3-1.8.7s-1.2,1-1.8.9a3,3,0,0,0,.8-2.7.8.8,0,0,0-.2-.5c-.4-.4-1-.2-1.5.1s-1.7,2.9-1.7,4.7a13.4,13.4,0,0,1-.1-2,1.9,1.9,0,0,0-.6-1.7,2.2,2.2,0,0,0-1.1-.2,2.2,2.2,0,0,0-1.7.5,1.8,1.8,0,0,0,.1,2.2,8,8,0,0,0,1.7,1.5,3.3,3.3,0,0,1,1.3,1.3v.2h3.8a14.6,14.6,0,0,0,2.4-1.7Z" style="fill:#df2b67"/><ellipse id="a122ce3f-2b1d-43b1-be69-7515764700b6" data-name="Ellipse 179" cx="43.3" cy="228.1" rx="10.5" ry="1.9" style="fill:#df2b67"/><path id="a3616e74-4218-4cff-9dd5-21e2b5fa6078" data-name="Path 907" d="M47.6,225.1a3.9,3.9,0,0,0,1-1.6,1.5,1.5,0,0,0-.7-1.7c-.6-.2-1.3.3-1.8.7s-1.2,1-1.8.9a3,3,0,0,0,.8-2.7c0-.2-.1-.3-.2-.5s-1-.2-1.5.1-1.7,2.9-1.7,4.7a6,6,0,0,1,0-1.9,2.4,2.4,0,0,0-.7-1.8l-1.1-.2a2.2,2.2,0,0,0-1.7.5,2,2,0,0,0,.1,2.2,6.5,6.5,0,0,0,1.8,1.5,3,3,0,0,1,1.2,1.3c.1,0,.1.1.1.2h3.8A14.6,14.6,0,0,0,47.6,225.1Z" style="fill:#df2b67"/></g></svg>