<svg id="ad05c76e-9e1d-4fed-8c70-95a8f7fc0670" data-name="Слой 1" xmlns="http://www.w3.org/2000/svg" xmlns:xlink="http://www.w3.org/1999/xlink" viewBox="0 0 300 230"><defs><linearGradient id="aa6eff12-6da3-4d66-9ffc-782c473ef9e7" x1="3.54" y1="229.17" x2="3.54" y2="230.17" gradientTransform="matrix(119.93, 0, 0, -227.84, -201.08, 52440.3)" gradientUnits="userSpaceOnUse"><stop offset="0" stop-color="#808081" stop-opacity="0.25"/><stop offset="0.54" stop-color="#808081" stop-opacity="0.12"/><stop offset="1" stop-color="#808081" stop-opacity="0.1"/></linearGradient></defs><g id="efff6f25-fb63-4476-8121-4d7a00749a2c" data-name="undraw mobile payments edgf"><path id="b32891ae-85f3-4d6f-a6ed-2855740d2444" data-name="Path 814" d="M190.3,30.6c-15.9-.5-31.1-5.6-45.6-11.1S115.8,7.9,100.2,5c-10-1.9-21.4-2.2-29.5,3.1S60.4,21.9,59.1,30c-1,6.1-1.6,12.5,1.1,18.2,2,4,5.4,7.3,7.8,11.1,8.2,13.2,2.4,29.5-6.6,42.4-4.1,6.1-9,11.8-12.2,18.3s-4.8,13.8-1.9,20.4,9.4,11.4,16.7,14.8c14.7,7,32.1,9,49,10.2,37.4,2.5,75,1.4,112.5.3,13.9-.4,27.9-.8,41.5-2.9,7.6-1.2,15.4-3,20.9-7.5,7-5.7,8.8-15.3,4.1-22.5-7.9-11.9-29.6-14.9-35.1-27.7-3-7.1.1-14.9,4.5-21.5,9.4-14,25.2-26.3,26-42.4.6-11-7-22.1-18.7-27.3s-29.4-4.8-38.5,4.3S204.4,31.1,190.3,30.6Z" style="fill:#df2b67;isolation:isolate;opacity:0.10000000149011612"/><path id="b8181491-21dc-424b-bc85-356b8e4dac1e" data-name="Path 815" d="M145.3,212S132,189,112,182.3a40.4,40.4,0,0,1-20.7-15.2,64.3,64.3,0,0,1-6.2-10.8" style="fill:none;stroke:#545562;stroke-miterlimit:10;stroke-width:2px"/><path id="e1d6598e-21c3-471b-b7fa-b49f30e25fc0" data-name="Path 816" d="M72.5,152.1c2.3,2.1,12.9,4.4,12.9,4.4s-2.6-10.4-4.8-12.5a5.9,5.9,0,0,0-8.1.2,5.5,5.5,0,0,0,0,7.8Z" style="fill:#df2b67"/><path id="ba5d388e-9606-4b4f-9f4e-116d6785159a" data-name="Path 817" d="M78.6,170.8c3.1.6,13.2-3.2,13.2-3.2s-7.9-7.3-11-7.9a5.9,5.9,0,0,0-6.8,4.4,5.7,5.7,0,0,0,4.5,6.7Z" style="fill:#df2b67"/><path id="bd10a5df-3651-4544-bc94-2d19250c0ec8" data-name="Path 818" d="M100.4,191c3-1,9.9-9.3,9.9-9.3s-10.6-2.4-13.6-1.4a5.7,5.7,0,0,0,3.7,10.7Z" style="fill:#df2b67"/><path id="fff8e03c-1ff5-4d17-8051-9e9d5a7fcf22" data-name="Path 819" d="M120.5,202.7c3.1-.5,11.3-7.6,11.3-7.6s-10-4.1-13.2-3.6a5.7,5.7,0,0,0-4.7,6.5h0a5.8,5.8,0,0,0,6.6,4.7Z" style="fill:#df2b67"/><path id="b65e09a5-cef3-42bf-baa0-cd7fdc7eca72" data-name="Path 820" d="M100.7,159.5c0,3.1-5.8,12.2-5.8,12.2s-5.7-9.1-5.7-12.2a5.7,5.7,0,0,1,5.9-5.6,5.9,5.9,0,0,1,5.6,5.6Z" style="fill:#df2b67"/><path id="bb0dc94c-ee11-4b85-8245-d6a1f01b8e77" data-name="Path 821" d="M124,173.5c-1,2.9-9.2,9.9-9.2,9.9s-2.8-10.3-1.8-13.3a6,6,0,0,1,4.2-4.1,6.1,6.1,0,0,1,5.7,1.8,5.6,5.6,0,0,1,1.1,5.7Z" style="fill:#df2b67"/><path id="bdcc60a3-857c-4a05-9c58-bd5cc306a71e" data-name="Path 822" d="M144.7,190c-.4,3.1-7.3,11.3-7.3,11.3s-4.5-9.7-4.1-12.8a5.8,5.8,0,0,1,6.5-4.8,5.6,5.6,0,0,1,4.9,6.3Z" style="fill:#df2b67"/><path id="a5dfd7a2-a651-4b16-a28e-a788d3579ef4" data-name="Path 823" d="M72.5,152.1c2.3,2.1,12.9,4.4,12.9,4.4s-2.6-10.4-4.8-12.5a5.9,5.9,0,0,0-8.1.2,5.5,5.5,0,0,0,0,7.8Z" style="fill:#dfe0ec;isolation:isolate;opacity:0.25"/><path id="ecbeda54-11ad-41eb-b8b9-b4935d1b5559" data-name="Path 824" d="M78.6,170.8c3.1.6,13.2-3.2,13.2-3.2s-7.9-7.3-11-7.9a5.9,5.9,0,0,0-6.8,4.4,5.7,5.7,0,0,0,4.5,6.7Z" style="fill:#dfe0ec;isolation:isolate;opacity:0.25"/><path id="a15b9462-ee79-4eb6-b1bc-6423d5b4425e" data-name="Path 825" d="M100.4,191c3-1,9.9-9.3,9.9-9.3s-10.6-2.4-13.6-1.4a5.7,5.7,0,0,0,3.7,10.7Z" style="fill:#dfe0ec;isolation:isolate;opacity:0.25"/><path id="efcd6d19-fb25-4672-870b-44108f0f3cac" data-name="Path 826" d="M120.5,202.7c3.1-.5,11.3-7.6,11.3-7.6s-10-4.1-13.2-3.6a5.7,5.7,0,0,0-4.7,6.5h0a5.8,5.8,0,0,0,6.6,4.7Z" style="fill:#dfe0ec;isolation:isolate;opacity:0.25"/><path id="ac2e2014-f03c-4dd6-858e-63e49d1b8d1d" data-name="Path 827" d="M100.7,159.5c0,3.1-5.8,12.2-5.8,12.2s-5.7-9.1-5.7-12.2a5.7,5.7,0,0,1,5.9-5.6,5.9,5.9,0,0,1,5.6,5.6Z" style="fill:#dfe0ec;isolation:isolate;opacity:0.25"/><path id="b79e690f-926b-46dc-8f74-61a295d50acd" data-name="Path 828" d="M124,173.5c-1,2.9-9.2,9.9-9.2,9.9s-2.8-10.3-1.8-13.3a6,6,0,0,1,4.2-4.1,6.1,6.1,0,0,1,5.7,1.8,5.6,5.6,0,0,1,1.1,5.7Z" style="fill:#dfe0ec;isolation:isolate;opacity:0.25"/><path id="f8aa1735-1046-47be-827e-1152c254415a" data-name="Path 829" d="M144.7,190c-.4,3.1-7.3,11.3-7.3,11.3s-4.5-9.7-4.1-12.8a5.8,5.8,0,0,1,6.5-4.8,5.6,5.6,0,0,1,4.9,6.3Z" style="fill:#dfe0ec;isolation:isolate;opacity:0.25"/><path id="f30d97c4-f8fe-4cb7-8307-2feb47209506" data-name="Path 830" d="M144.5,211.6s-2.6-26.4-18.1-40.4a39.8,39.8,0,0,1-12.7-22.1,63.9,63.9,0,0,1-1.1-12.3" style="fill:none;stroke:#545562;stroke-miterlimit:10;stroke-width:2px"/><path id="bcf2ab89-4fd1-46fa-ba3d-6d5fa549300e" data-name="Path 831" d="M102.8,127.9c1.2,2.9,10,9.1,10,9.1s1.9-10.5.7-13.3a5.8,5.8,0,0,0-7.5-3.2,5.7,5.7,0,0,0-3.2,7.3Z" style="fill:#df2b67"/><path id="adf942a4-7796-480e-8c4b-cf8cedf01fd6" data-name="Path 832" d="M100.6,147.3c2.6,1.8,13.4,2.4,13.4,2.4s-4.2-9.8-6.8-11.6a5.8,5.8,0,0,0-8,1.4,5.6,5.6,0,0,0,1.3,7.8Z" style="fill:#df2b67"/><path id="f51630c2-df69-445a-b2bf-5e120e3a6721" data-name="Path 833" d="M112.2,174.5c3.2.3,12.8-4.6,12.8-4.6s-8.7-6.3-11.8-6.6a5.8,5.8,0,0,0-5.3,2.4,5.4,5.4,0,0,0-.5,5.6,5.5,5.5,0,0,0,4.8,3.2Z" style="fill:#df2b67"/><path id="e1fc4c5b-678b-4c53-af01-3f83a1366655" data-name="Path 834" d="M125.7,193.2c3.1.7,13.5-2.4,13.5-2.4s-7.5-7.8-10.6-8.6a6,6,0,0,0-7,4.1,5.6,5.6,0,0,0,4.1,6.8Z" style="fill:#df2b67"/><path id="a15bbcc9-5025-4221-8e80-12c9458c6bd1" data-name="Path 835" d="M125.5,145.9c-1.3,2.8-10.3,8.8-10.3,8.8s-1.5-10.6-.3-13.4a5.9,5.9,0,0,1,7.6-2.9,5.6,5.6,0,0,1,3,7.4Z" style="fill:#df2b67"/><path id="b3bce40f-776f-4b96-833c-83653a5654ac" data-name="Path 836" d="M141,167.8c-2.1,2.4-12.5,5.4-12.5,5.4s1.8-10.5,3.9-12.8a5.8,5.8,0,0,1,8.1-.5,5.5,5.5,0,0,1,.6,7.8.1.1,0,0,1-.1.1Z" style="fill:#df2b67"/><path id="aa3e6d5e-73e6-4d03-a795-22ead408e177" data-name="Path 837" d="M153.1,191.2c-1.7,2.7-11.4,7.4-11.4,7.4s-.1-10.6,1.6-13.3a5.8,5.8,0,0,1,7.9-1.8,5.5,5.5,0,0,1,2,7.6Z" style="fill:#df2b67"/><ellipse id="b3127634-2bba-4633-b823-037501578d47" data-name="Ellipse 175" cx="172.7" cy="224.4" rx="77.6" ry="5.5" style="fill:#df2b67;isolation:isolate;opacity:0.10000000149011612"/><path id="bacc72b1-22fa-4cd5-99f9-c2ea19c5189d" data-name="Path 838" d="M282.5,71.7c.2-.6-1.5-3.9-1.5-4.1s-1.7-2-1.7-3.1-2.4-3.2-2.4-3.2-3.1-1.3-3.4-4-3.7-2.8-3.7-2.8h0v-.7a8.8,8.8,0,0,0-.4-3.2,3.8,3.8,0,0,0-1.9-1.6,9.4,9.4,0,0,0-1-2.8,2.9,2.9,0,0,1-.8-2.9c.3-1.1-.5-3.7-2.1-4.1l-3.5-1h-.7l-1.2.2a1.6,1.6,0,0,1-.9-.3c-.6-.6-5.1-1.8-6-1.8a14.2,14.2,0,0,1-3.3-1.1l-2.4-1.8a15.4,15.4,0,0,1-2.1-2.9h0a6.1,6.1,0,0,1-.5-1.2V29a11,11,0,0,0,2-2.8c.1-.1.2-.2.2-.3h.5a2.4,2.4,0,0,0,1.2-1.4h0a.8.8,0,0,0,.1-.4h.1v-.3h0c0-.1.1-.2.1-.3h0v-.3h0c.1-.4.1-.8.2-1.2h0a21.7,21.7,0,0,1,1.9-4.1h0l.3-.6a6.4,6.4,0,0,0,.2-.7V16a1.1,1.1,0,0,1,.1-.5v-.2c0-.2.1-.4.1-.7a8.2,8.2,0,0,0-.6-3.8c-.4-1-1-2-1.5-3s-.8-3.3-1.6-4.8a5.8,5.8,0,0,0-7-2.8c-1.2.4-2.3,1.3-3.5,1.7s-3.5.1-5.2-.1-3.6-.3-5,.8-2,3.7-3.5,5.1-1.4.9-2.1,1.5a3.8,3.8,0,0,0-1.1,1.4h0c0,.1,0,.2-.1.2h0v.3h0a.4.4,0,0,1,.1.3h0V12h0a.4.4,0,0,0,.1.3h.1a5,5,0,0,1,.5,1.3.8.8,0,0,1-.1.8,1.6,1.6,0,0,1-.6.8,11.2,11.2,0,0,0-2.5,4l-.2.5h2.3l1.1-.4V20a13.1,13.1,0,0,0,7.4,11.7c.1.1.1.2.1.4v.1s-1-.5-2,1a6.3,6.3,0,0,1-2.8,2s-10.2,1.6-10.6,2.9l-4.8.3s-1.7.2-1.9,3.7-1,3.8-1,3.8-2,3.4-1.8,5.1a3,3,0,0,1-1.6,2.7l-.2,3.1a2.1,2.1,0,0,0-2.3,1.8,7.8,7.8,0,0,1-1.5,3.2s-3.1,2.5-3.2,4.6l-1.9,1.2s-4.5-1-5.5-2.8l-.3-.3h0l-1.9-1.6a1.4,1.4,0,0,1,.1.9l-.3-.4-.9-.9s-6.7-7.5-10.9-8l-.3-.6a.7.7,0,0,0-1-.3l-6.3,3.1a.8.8,0,0,0-.4.4.4.4,0,0,0,0,.5l.7,1.4h0l.3.5h0l.3.5h0l.5.9h.1v.3h0l.5,1h.1l4.6,8.9a.8.8,0,0,0,1,.4l4.9-2.4h.2l1.4,1.8A16.6,16.6,0,0,0,178,73h0a.4.4,0,0,0-.1.3h-.1a.4.4,0,0,1-.1.3V74h-.1a6.8,6.8,0,0,1-.3,1.2h0l.3.2c2,.8,11.9,5,12.4,5.7a7,7,0,0,0,7.6,1,8,8,0,0,0,4.1-4.4s3.3-4.5,3.4-5.1,2.7-1.4,2.7-1.4.2,7.3-1.1,10S203,96.1,203,96.1h.5l-.2.7h.6l-1.2,7.6a12.4,12.4,0,0,1-.9,3.8c-.6,1-.6,6.2-.6,6.2l-.9,3.7a2.8,2.8,0,0,0,.3.6h0a9.9,9.9,0,0,0,2.6,3.2,4.7,4.7,0,0,1-.4,1.7,6.5,6.5,0,0,0-.5,2.7,33.5,33.5,0,0,0-.8,5.4,20.5,20.5,0,0,1-.7,4.2l-1,9.5s-.7,8.3-.3,10.5a18.7,18.7,0,0,1-.2,5.3s.6,6.6.5,7.3-1,3.8-.5,5.5.2,6.3.2,6.3.3,6.2.7,8.1a13.5,13.5,0,0,1-.1,4.5,29.7,29.7,0,0,1-.6,4.3c-.2,0-1.6,2.9,1.4,5.7s1.1,2.4,1.1,2.4-2.3-1.1-2.1,1.2.7,1.7.7,1.6L200,210h.4l-.3.4a5.7,5.7,0,0,1-1.1,1.1,2.5,2.5,0,0,0-.8,1.6,46.6,46.6,0,0,1-8,6.7,20.2,20.2,0,0,0-4.6,3c-.7.7-.6,1.3.9,1.8,3,1,8.4,1.5,12.2.2a14.4,14.4,0,0,0,6-3.7,7.9,7.9,0,0,1,4.8-.8c2.3.4,7.1-2.6,7.1-2.6V217l-.3-2.2a1.8,1.8,0,0,1-.4-1.4,7.1,7.1,0,0,0-.2-2c0-.2-.1-.4-.1-.6h.4s-.5-2.8.5-3.3.7-7.7.7-7.7a7.6,7.6,0,0,0-2-2c-.6-.2,0-3.6.1-4.1s1-8.9,1-8.9a12.8,12.8,0,0,1,.1-3.9c.5-1.1-.5-5.5-.5-5.5a.9.9,0,0,1,.3-1.2c.6-.7.3-6.6.3-6.6v-3.7a12.2,12.2,0,0,1,1.3-4.5c.6-.9.2-3.8.2-3.8h0v-.2c0-.1.1-.2.1-.3v-.3c.3-1.6.7-3.2,1.1-4.8a62.1,62.1,0,0,0,1.6-6.3l5.3-13.4V130s2.5,4.4,2.5,8.4c.2,2.1.4,4.2.4,6.2a61.6,61.6,0,0,0,.5,7.5s.7,8.9.7,9.3.9,7.2,1.5,8.3-.6,4.2-.9,4.5.1,8.4.1,8.4-.8,6.4-1,7.7-.8,6.4-.3,8.3.4,2.3.4,2.3,2,2,.8,2.2a3.1,3.1,0,0,0-2.4,3.6c.1.1.1.2.1.4.8,2,1.6,3.9,2.5,5.8h1v3.9a15.9,15.9,0,0,1,.2,3.8c-.2,1.4-.4,2.8-.5,4.3a2.4,2.4,0,0,1-.1.7s0,2.9,6.3,2.1,7.4-3.3,7.4-3.3V224c.1-.6.3-1.7.5-2.4s-1.8-4.8-1.8-4.8a11.8,11.8,0,0,0-.9-3.3,3.1,3.1,0,0,1-.5-1.2c0-.2-.1-.4-.1-.6h.4s-.3-1.9,1-2.5a1.8,1.8,0,0,0,.8-2.4h0a14.9,14.9,0,0,1,.5-3.6,1.7,1.7,0,0,1,.4-1.8c.8-.7,1.4-6.1,1.4-6.1l.2-20.7s.4-3.7-.1-5.2-.9-4.3-.3-5.1.1-4.3.1-4.3,0-7.5.8-9.4.6-13.6.6-13.6l.2-7.8s1.9-1.7,1.4-10.6a18.5,18.5,0,0,1,4.5.1c.6.5,4.6,3,7,1.4a18.6,18.6,0,0,0,2.8-2.1l-1-16.4a10.1,10.1,0,0,1,1,1.5c0-2.3,6.7-9.8,6.7-9.8s6.2-7.8,7.5-8.7,4-5.9,4-5.9a24.4,24.4,0,0,1,1.4-2.8C284.3,75,282.2,72.3,282.5,71.7Zm-14.6,5.8c-1.7.1-5.2,3.9-5.3,4.7a3.5,3.5,0,0,1-.7,1.5c0-.3-.1-.6-.1-1-.4-4.8-.8-10.7-.6-11.3a32.5,32.5,0,0,0,.2-5.4h.1c1.1,3.4,4.6,7.5,4.6,7.5s.6,1.7,1.4,1.8.4,2.3.4,2.3Z" style="fill:url(#aa6eff12-6da3-4d66-9ffc-782c473ef9e7)"/><path id="ed7516cd-cbc9-4cec-a5f0-6db266f1f011" data-name="Path 839" d="M177.6,76.2s2-10.5,8.7-10.6l4.8,9.8-3.2,2.1S180.9,77.7,177.6,76.2Z" style="fill:#66627d"/><path id="ebfcf8f2-ccfb-4f34-b635-965f78e8d83f" data-name="Path 840" d="M191.1,75.4l-3.2,2.1a34.5,34.5,0,0,1-8.5-.7,6.4,6.4,0,0,1-1.8-.6h0a29.7,29.7,0,0,1,1.3-3.9l.7-1.4a9.6,9.6,0,0,1,4.2-4.5,7.1,7.1,0,0,1,2.2-.6h.2v.2l1.7,3.3Z" style="fill:#dfe0ec;isolation:isolate;opacity:0.10000000149011612"/><path id="bca3b89f-d2f8-4976-bbd7-b9f23aac84ff" data-name="Path 841" d="M245.9,119.2s7-.6,7.6-.2,4.6,3,6.9,1.5.8-7.1.8-7.3-.3-8-.3-8l-4.1-5.5-5.2-9.6L240.9,89l.3,15.3v7.8Z" style="fill:#66627d"/><path id="b0fb6c21-1f7d-412f-9fcb-a23d39854d94" data-name="Path 842" d="M245.9,119.2s7-.6,7.6-.2,4.6,3,6.9,1.5.8-7.1.8-7.3-.3-8-.3-8l-4.1-5.5-5.2-9.6L240.9,89l.3,15.3v7.8Z" style="fill:#dfe0ec;isolation:isolate;opacity:0.10000000149011612"/><path id="b4a8d8b8-c108-4314-a339-e448c6906d6e" data-name="Path 843" d="M184.9,65.3s-.6,6.7-4.8,6.8a32.5,32.5,0,0,1-2.8-1.9c-3.7-2.7-9.6-7.9-8-12.8,2.4-7,13.7,5.9,13.7,5.9l.8.9Z" style="fill:#f7bdbe"/><path id="f0945070-afbd-47e3-9318-43570fd82191" data-name="Path 844" d="M184.9,65.3s-.6,6.7-4.8,6.8a32.5,32.5,0,0,1-2.8-1.9l-.4-.4a8.6,8.6,0,0,0,2.3.6,3.4,3.4,0,0,0,3.1-1.9c.4-.9.8-1.7,1.1-2.6a5.3,5.3,0,0,0,.4-1.7Z" style="fill:#dfe0ec;isolation:isolate;opacity:0.10000000149011612"/><path id="f78a0255-fe0e-4714-b9ec-0d6b24190328" data-name="Path 845" d="M183,77.4l-.9-1.2-3.2-4.1-1.7-2a7.1,7.1,0,0,0,2.4.6,3,3,0,0,0,3-1.9,20.3,20.3,0,0,0,1.1-2.6c.6-1.5.6-2.2.4-2.5l1.8,1.6h0l.3.3v.2L188,69h0C188.1,70.1,188.7,76.5,183,77.4Z" style="fill:#e7effa"/><path id="bfa0649b-703e-488f-affa-2cc13c14f5d0" data-name="Path 846" d="M216.3,217.4s-4.7,3-7,2.6a8.4,8.4,0,0,0-4.7.7,15.4,15.4,0,0,1-5.9,3.8c-3.8,1.2-9.1.7-12.1-.2-1.4-.5-1.5-1.1-.8-1.8a22.1,22.1,0,0,1,4.5-3,42.5,42.5,0,0,0,8-6.7,1.8,1.8,0,0,1,.7-1.5l1.1-1.2,1.2-1.4,13.7.4.4,2a12.3,12.3,0,0,1,.2,2,1.7,1.7,0,0,0,.4,1.3l.2,2.2Z" style="fill:#66627d"/><path id="adcb33c7-f307-4dd2-afae-66812995641d" data-name="Path 847" d="M245,221.2a10.1,10.1,0,0,0-.4,2.3.8.8,0,0,0-.1.3s-1.1,2.4-7.3,3.3-6.1-2-6.1-2v-.8c.1-1.4.3-2.8.5-4.2a23.8,23.8,0,0,0-.1-3.8v-5.5l10.2-1.1a9.1,9.1,0,0,0,.3,2.3,3.6,3.6,0,0,0,.4,1.1c.6.6.9,3.3.9,3.3S245.2,220.3,245,221.2Z" style="fill:#66627d"/><path id="bad038f2-017d-40c0-b51d-35a2886186d6" data-name="Path 848" d="M215,209.1l.4,2c-1.5.3-8,1.4-9.6.6a28.9,28.9,0,0,0-5.8-1.4v-.2l1.2-1.4Z" style="fill:#dfe0ec;isolation:isolate;opacity:0.10000000149011612"/><path id="af814210-fa26-4811-ac2c-df4bf964b943" data-name="Path 849" d="M241.9,212c-2.6-.5-8.3.6-10.5,1v-2.2l10.3-1.1A9.1,9.1,0,0,0,241.9,212Z" style="fill:#dfe0ec;isolation:isolate;opacity:0.10000000149011612"/><path id="b1e741c4-e4fc-4903-a844-9017c27e2fdd" data-name="Path 850" d="M247.7,129.5l-.3,7.7s.3,11.7-.5,13.5-.8,9.3-.8,9.3.5,3.5-.1,4.3-.2,3.6.3,5.1,0,5.1,0,5.1v20.6s-.6,5.3-1.4,6a2,2,0,0,0-.4,1.8,22.3,22.3,0,0,0-.5,3.6,1.8,1.8,0,0,1-.8,2.4c-1.2.6-.9,2.5-.9,2.5-3.1-.7-11.7,1.2-11.7,1.2a43.5,43.5,0,0,1-2.5-5.9,3.1,3.1,0,0,1,1.8-3.8h.4c1.2-.2-.8-2.2-.8-2.2s.2-.3-.3-2.2.1-7,.3-8.3,1-7.6,1-7.6-.5-8-.1-8.3,1.4-3.5.8-4.6-1.4-7.8-1.4-8.2-.7-9.2-.7-9.2a60,60,0,0,1-.5-7.4,43.2,43.2,0,0,0-.5-6.2,20.8,20.8,0,0,0-2.3-8.3h-.1l-5.2,13.3s-.8,4-1.5,6.3a39.9,39.9,0,0,0-1.1,4.7v.9h0s.3,2.8-.3,3.8a13.9,13.9,0,0,0-1.3,4.4c0,.8.1,3.7.1,3.7s.2,5.9-.4,6.5a1,1,0,0,0-.3,1.2s1,4.4.6,5.6a9.7,9.7,0,0,0-.1,3.8s-.9,8.4-1,8.8-.7,3.8-.1,4.1a9,9,0,0,1,2,1.9s.3,7.1-.8,7.7-.4,3.3-.4,3.3-8.1,1.5-9.9.6a28.6,28.6,0,0,0-5.8-1.3l.6-1.8c0,.1-.4.6-.7-1.6s2.1-1.2,2.1-1.2,1.8.4-1.1-2.4-1.5-5.7-1.4-5.7a30.3,30.3,0,0,0,.6-4.2,13.6,13.6,0,0,0,.1-4.5c-.4-1.9-.7-8-.7-8s.3-4.6-.2-6.3.3-4.7.5-5.5-.5-7.1-.5-7.1a23.7,23.7,0,0,0,.2-5.3c-.3-2.2.3-10.5.3-10.5l1-9.4a15.2,15.2,0,0,0,.6-4.2,30.9,30.9,0,0,1,.9-5.3,5.7,5.7,0,0,1,.4-2.6c.6-1.1.8-4.7.8-4.7l5.3-12,2.6-10.6,35.3-.3.3,2.6q.3,2.6.9,7.2c.3,2.7.6,6,1,9.6C249.9,127.4,247.7,129.5,247.7,129.5Z" style="fill:#403d56"/><path id="b9b33966-e1d7-4c17-9b57-f3feeb0d1602" data-name="Path 851" d="M244.4,34.2l-8.2,8.6s-10.6-4.1-9.5-5.5.4-2.3.1-4.2a51.6,51.6,0,0,0-1.2-6.5s18.5-2.9,16.9.1a5,5,0,0,0-.1,3.6,12,12,0,0,0,2,3.9Z" style="fill:#f7bdbe"/><path id="beeba677-3997-495e-ab13-a380169bced4" data-name="Path 852" d="M242.5,26.7c-.6,1.1-.8,1.2-.5,2.4-2.4,2.6-5.5,5.3-9.3,5.3a12.9,12.9,0,0,1-5.8-1.3,66,66,0,0,0-1.3-6.5S244.1,23.7,242.5,26.7Z" style="fill:#dfe0ec;isolation:isolate;opacity:0.10000000149011612"/><path id="a6aed04b-4707-4b04-973e-0377bb01005a" data-name="Path 853" d="M245.9,21.2a13,13,0,0,1-13.4,12.9,13.4,13.4,0,0,1-13-12.9V21a13.2,13.2,0,0,1,26.4.2Z" style="fill:#f7bdbe"/><path id="fd05d943-bae6-4e62-ad3c-cf3447693846" data-name="Path 854" d="M247.9,106.6l-14.1.2h-2.3c-7.8.1-15.4-1.4-18.4-1.1-6.5.6,2.3-5.9,2.3-5.9a52.5,52.5,0,0,0,14.8,1.5h1.9c5.9-.3,11.8-.9,14.9-1.8C247.2,101.1,247.5,103.6,247.9,106.6Z" style="fill:#dfe0ec;isolation:isolate;opacity:0.10000000149011612"/><path id="a751adee-8296-4204-86f3-15570f3928f7" data-name="Path 855" d="M247.9,106.3H231.5c-7.8.1-15.4-1.4-18.4-1.1-6.5.6,2.3-5.9,2.3-5.9a52.8,52.8,0,0,0,14.8,1.5h1.9c5.9-.3,11.8-.9,14.9-1.8Q247.3,101.7,247.9,106.3Z" style="fill:#e3a79f"/><path id="f5274bc7-2d69-4f3e-af54-0bdb1bea7b9b" data-name="Path 856" d="M229.2,37.8,219,42.5l-7.9,59.7s4.6-2,7.3-.7,10.9.1,10.9.1,6-.3,6.9.3,11.3-2.7,11.3-2.7,1.9-4.2.4-4.8.5-7.1.5-7.1l-.9-43.1-1.8-5.5-4.8-2.8-4.8,3.8-2.4.3Z" style="fill:#dfe0ec;isolation:isolate;opacity:0.10000000149011612"/><path id="b1a1bbfc-03e5-4f27-8a43-e25601da4639" data-name="Path 857" d="M229.2,37.2,219,41.8l-7.9,59.8s4.6-2.1,7.3-.8,10.9.1,10.9.1,6-.3,6.9.4,11.3-2.8,11.3-2.8,1.9-4.1.4-4.8.5-7,.5-7l-.9-43.1L245.7,38l-4.8-2.8L236.1,39l-2.4.3Z" style="fill:#e7effa"/><path id="aa68724e-d86c-4eb3-b78b-f26968f6e2ec" data-name="Path 858" d="M229,39.9s3,3.5,2.9,4.2-.2,2.4-.2,2.4l-2.2,4.4s-1.2,5.5-1.2,6.6-2,11-2,11L224,83.8l-2.9,19.9,3,5.1,3.5-2.9,4.7-35.6,1-7s1.1-12.7,1.1-14a40.3,40.3,0,0,0-.6-4.7s.7-3.3,3.7-4-.2-.2-.2-.2l-1.7-1.3-1.5.6S229.9,38.4,229,39.9Z" style="fill:#dfe0ec;isolation:isolate;opacity:0.10000000149011612"/><path id="af0131a0-3a42-4afc-8fbe-9107264620ad" data-name="Path 859" d="M228.7,39.6s2.9,3.4,2.9,4.1-.2,2.4-.2,2.4l-2.2,4.5S228,56,228,57.2s-2,11-2,11l-2.3,15.3-2.9,19.9,3,5.1,3.5-3L232,70l1-7s1.1-12.7,1.1-14a37.8,37.8,0,0,0-.6-4.7s.7-3.3,3.7-4-.2-.2-.2-.2l-1.8-1.4-1.4.6S229.6,38.1,228.7,39.6Z" style="fill:#403d56"/><path id="aa9d484a-4eaa-4818-85ac-12ada1361c85" data-name="Path 860" d="M226.7,33.9s-.4.3-.5,2.5a43.2,43.2,0,0,1-1.7,7.1s5.8-3.9,8.7-3.5Z" style="fill:#dfe0ec;isolation:isolate;opacity:0.10000000149011612"/><path id="b7c8943c-3b5f-4d41-bc87-36aca82faca2" data-name="Path 861" d="M226.7,33.2s-.4.4-.5,2.5a43.2,43.2,0,0,1-1.7,7.1s5.8-3.9,8.7-3.5Z" style="fill:#e7effa"/><path id="af53d4c5-1644-4a18-b631-11b2cc4ce1cc" data-name="Path 862" d="M242.5,32.2,233.4,40s7.7,4.5,8.7,5.5,2-10.6,2-10.6Z" style="fill:#dfe0ec;isolation:isolate;opacity:0.10000000149011612"/><path id="b7fe6a30-e382-4667-bfbc-fc88f1ba17ac" data-name="Path 863" d="M242.8,31.5l-9.1,7.8s7.7,4.5,8.7,5.6,2-10.7,2-10.7Z" style="fill:#e7effa"/><path id="b3283598-22a2-41bf-9dcd-f8a105622167" data-name="Path 864" d="M227.1,33.9s-1-.5-2,.9a5.6,5.6,0,0,1-2.7,2.1s-10.1,1.6-10.5,2.9l-4.7.3s-1.7.2-1.8,3.6-1.1,3.7-1.1,3.7-2,3.4-1.8,5.2a2.9,2.9,0,0,1-1.5,2.6l6.9,17.7s.3,7.2-1,9.9-3.7,14.5-3.7,14.5,1-.2,1,.4-1.3,7.8-1.3,7.8a16.1,16.1,0,0,1-.8,3.8c-.6,1-.7,6.1-.7,6.1l-.8,3.7s2.1,4.6,5.3,4,9.1-13,9.1-13l3.7-13.4,2.9-13.1.8-8.9,1.3-19.8,2-13.1S227.8,34.8,227.1,33.9Z" style="fill:#dfe0ec;isolation:isolate;opacity:0.10000000149011612"/><path id="f4d42d73-3cda-488b-b599-61fa44a92ac0" data-name="Path 865" d="M226.7,33.2s-1-.4-1.9,1a6,6,0,0,1-2.7,2s-10.1,1.6-10.5,2.9l-4.7.3s-1.7.2-1.9,3.6-1,3.8-1,3.8-2,3.4-1.8,5.1a3,3,0,0,1-1.5,2.6l6.9,17.7s.2,7.3-1,10-3.7,14.4-3.7,14.4,1-.2.9.5-1.2,7.8-1.2,7.8a13.1,13.1,0,0,1-.9,3.8c-.5.9-.6,6.1-.6,6.1l-.9,3.6s2.2,4.7,5.4,4,9-13,9-13l3.7-13.3,2.9-13.2.9-8.9,1.3-19.8,1.9-13S227.5,34.2,226.7,33.2Z" style="fill:#66627d"/><path id="ffea3571-d34b-49e8-baeb-b384a1d4eb47" data-name="Path 866" d="M191.1,75.4l-3.2,2.1a34.5,34.5,0,0,1-8.5-.7l-1.8-.7-.3-.2h.3a7.7,7.7,0,0,0,4.5.2c4.5-1.5,4-8.9,3.9-10.6a.5.5,0,0,1-.1-.3h.1c0,.1.1.2.2.3a.2.2,0,0,0,.2.2h0L188,69h0Z" style="fill:#dfe0ec;isolation:isolate;opacity:0.10000000149011612"/><path id="a687eef7-2215-4b13-8825-95c667452dae" data-name="Path 867" d="M202.2,54.1l-1.5.4-.2,3.1a2.2,2.2,0,0,0-2.4,1.9,7.3,7.3,0,0,1-1.4,3.1s-3,2.5-3.2,4.6l-1.9,1.1s-4.4-1-5.3-2.7c0,0,2,14.1-8.7,10.6,0,0,11.9,5.1,12.5,5.8a7.1,7.1,0,0,0,7.5,1.1,8,8,0,0,0,4.1-4.4s3.2-4.4,3.3-5.1,2.6-1.4,2.6-1.4l4.8-11.3Z" style="fill:#66627d"/><path id="e2b2cfcf-86bf-49f0-ae4a-ead3d779ae36" data-name="Path 868" d="M241.2,38.7l1.6-7.2a9.9,9.9,0,0,0,1.5,2.9l2.4,1.8a17.3,17.3,0,0,0,3.2,1.1c.8,0,5.3,1.1,5.9,1.7s2.8.2,2.8.2l3.4,1c1.6.3,2.4,2.9,2,4a3.4,3.4,0,0,0,.8,2.9,5.9,5.9,0,0,1,1,2.8,3,3,0,0,1,1.9,1.6,9.7,9.7,0,0,1,.4,3.8l-8.3,11.4a32.5,32.5,0,0,1-.2,5.4c-.3.9,1.2,17.6,1.2,17.6l1.7,28.6a18.6,18.6,0,0,1-2.8,2.1c-.5.3-1-10.1-1-10.5s-12.8-18.8-12.8-18.8a16.6,16.6,0,0,1-1.7-3.3c0-.6-1.6-6.1-1.6-6.1l-2.5-10.6Z" style="fill:#dfe0ec;isolation:isolate;opacity:0.10000000149011612"/><path id="e6975cae-5846-4a5e-8a92-2c6bf59fe78b" data-name="Path 869" d="M268.8,54.7v.6l-8.3,11.4h0a32.5,32.5,0,0,1-.2,5.4c-.2.5.2,6.4.6,11.2s.6,6.4.6,6.4l.7,12.1,1,16.5a18.6,18.6,0,0,1-2.8,2.1c-.5.3-1-10.1-1-10.5s-12.8-18.8-12.8-18.8-1.8-2.7-1.8-3.3-1.6-6.1-1.6-6.1l-2.4-10.6,1.1-32.4.9-7.2a19.4,19.4,0,0,0,2.1,2.9l2.4,1.8a18.3,18.3,0,0,0,3.3,1.1c.8,0,5.3,1.1,5.8,1.7s2.8.2,2.8.2a35.8,35.8,0,0,0,3.5.9c1.6.4,2.3,3,2,4.1a2.9,2.9,0,0,0,.8,2.9,6.7,6.7,0,0,1,1,2.8,3,3,0,0,1,1.9,1.6A8.5,8.5,0,0,1,268.8,54.7Z" style="fill:#66627d"/><path id="aa856836-a940-44d9-b5a5-8adc7d2a0fd5" data-name="Path 870" d="M200.9,199.6c.3,0,12,.5,11.7,2.3S200.9,199.6,200.9,199.6Z" style="fill:#dfe0ec;isolation:isolate;opacity:0.10000000149011612"/><path id="bbe09a1f-d36b-4d91-b350-d3e068e7b54d" data-name="Path 871" d="M203.5,202.7s7.9,1.3,5.8,2.4S203.5,202.7,203.5,202.7Z" style="fill:#dfe0ec;isolation:isolate;opacity:0.10000000149011612"/><path id="b844ace2-77b2-430c-94bd-40b756638aa1" data-name="Path 872" d="M232.6,198.4s13,1.1,11.1,2.5-6.6,1.7-6.8,1.7A56.6,56.6,0,0,1,232.6,198.4Z" style="fill:#dfe0ec;isolation:isolate;opacity:0.10000000149011612"/><path id="a6ba2de3-6142-4881-956e-d1af39df62bf" data-name="Path 873" d="M231.1,204s7.2,1.2,7.4,2.6S231.1,204,231.1,204Z" style="fill:#dfe0ec;isolation:isolate;opacity:0.10000000149011612"/><path id="f7f5a82c-b912-4aa3-97b8-8cda725413fe" data-name="Path 874" d="M235.1,171.3s6.6,1.5,7,2.5Z" style="fill:#dfe0ec;isolation:isolate;opacity:0.10000000149011612"/><path id="a880b69d-786b-4de0-85ef-c548ec6e7465" data-name="Path 875" d="M209.6,176s-3.5.9-.1,2.9S209.6,176,209.6,176Z" style="fill:#dfe0ec;isolation:isolate;opacity:0.10000000149011612"/><path id="ae3cbe0a-1894-4059-93cd-bc5203f7e251" data-name="Path 876" d="M224.8,123.7c.4,0,6.5-2,8.6-1.1a18.6,18.6,0,0,0,4.7.9Z" style="fill:#dfe0ec;isolation:isolate;opacity:0.10000000149011612"/><path id="ec72f008-d196-45b6-aa87-9e0652c91944" data-name="Path 877" d="M225.6,129.9v.5l-5.2,13.3a62.1,62.1,0,0,1-1.6,6.3,41,41,0,0,0-1,4.8l4.5-27.9Z" style="fill:#dfe0ec;isolation:isolate;opacity:0.10000000149011612"/><path id="b46ba9ac-b250-4d28-957f-85f0a461d006" data-name="Path 878" d="M233.7,106.4h-2.2l-1.3-5.5h1.9Z" style="fill:#403d56"/><path id="ace6e982-ad7c-48a8-8c60-9b5f4b22ad25" data-name="Path 879" d="M259.9,99.8l-1.4,1.1-4.6,3.7s-12.5,6.6-16,.4,11.2-9.4,14.6-10.3h.7Z" style="fill:#f7bdbe"/><path id="e84ec003-1174-43ef-85bd-a6b08d938ab7" data-name="Path 880" d="M206.5,46.3s2.5,1.1,3,2.6S206.5,46.3,206.5,46.3Z" style="fill:#dfe0ec;isolation:isolate;opacity:0.10000000149011612"/><path id="e38beb19-863d-442c-97a6-59a2cec2489f" data-name="Path 881" d="M199,62.6s-3.6,4.3-2.1,5.9S199,62.6,199,62.6Z" style="fill:#dfe0ec;isolation:isolate;opacity:0.10000000149011612"/><path id="e8c5ba46-a114-4a59-ae21-6e0c8ab12a3b" data-name="Path 882" d="M262.5,48.7s-3.3.3-3.4,3.2Z" style="fill:#dfe0ec;isolation:isolate;opacity:0.10000000149011612"/><path id="a64b8c90-740e-4785-814e-f50f6ad155de" data-name="Path 883" d="M231.6,93.3c.4-.3,8-11.4,9.8-10.4Z" style="fill:#dfe0ec;isolation:isolate;opacity:0.10000000149011612"/><path id="b656a69e-1357-4343-bdb8-9ee0dcebeaf9" data-name="Path 884" d="M245.9,21.2a12,12,0,0,1-1.5,6.1h-.1c-.9-.2-1.3-1.2-1.9-1.8a2.7,2.7,0,0,0-3-.4,3,3,0,0,0-1.5,2.8c-.4-1.7-.3-3.6-.7-5.3s-1.7-3.5-3.4-3.6-1.6.3-2.1-.3a4.5,4.5,0,0,1-.6-1.2c-1.2-1.9-4.9-.9-6.4,0a43,43,0,0,1-5.2,3.5,13.2,13.2,0,0,1,26.4.2Z" style="fill:#dfe0ec;isolation:isolate;opacity:0.10000000149011612"/><path id="b1ced255-8036-41cb-9ae4-582679d11a54" data-name="Path 885" d="M231.1,17.2a4.5,4.5,0,0,0,.6,1.2c.6.6,1.4.3,2.1.3s3,1.8,3.4,3.6.3,3.6.7,5.3a3,3,0,0,1,1.5-2.8,2.7,2.7,0,0,1,3,.4c.6.6,1.1,1.6,1.9,1.7s1.6-.6,1.9-1.4a12.6,12.6,0,0,0,.5-2.8c.4-1.7,1.5-3,2.1-4.7a7.8,7.8,0,0,0,0-6,28,28,0,0,0-1.5-3c-.6-1.5-.8-3.3-1.5-4.8a5.8,5.8,0,0,0-7-2.7c-1.2.4-2.2,1.3-3.4,1.7s-3.4.1-5.1-.1a6.2,6.2,0,0,0-5,.8c-1.5,1.3-2,3.6-3.4,5l-2.1,1.5a2.7,2.7,0,0,0-1.1,2.2c.1,1.1,1.2,2.2.8,3.2l-.6.8a10.5,10.5,0,0,0-2.7,4.5c2.9.9,6.2-2.3,8.5-3.8S229.9,15.3,231.1,17.2Z" style="fill:#7c5c5c"/><path id="aa176597-1a97-449e-b6c4-d261ecae9954" data-name="Path 886" d="M259.9,99.8l-1.4,1.1c-1.2-2-6.2-6-6.2-6l.2-.2h.7Z" style="fill:#dfe0ec;isolation:isolate;opacity:0.10000000149011612"/><path id="a9487d19-ff5d-4091-8eef-0d35c50ba34b" data-name="Path 887" d="M261.2,97.8l-1,2.2c-.5,1.1-1.1,2-1.1,1.3s-6.5-6.7-6.5-6.7l.9-.8,1-1Z" style="fill:#e7effa"/><path id="ac5a5b7f-5e4c-4b89-8bb4-ee9d33cf7b75" data-name="Path 888" d="M261.4,89.7l.8,12.2c-1.8-2.7-6.5-9.4-9.5-9.2l7.4-8.3a10.5,10.5,0,0,0,.8-1.1C261.2,86.8,261.4,89.7,261.4,89.7Z" style="fill:#dfe0ec;isolation:isolate;opacity:0.10000000149011612"/><path id="be635731-c506-484c-b632-15f89ec7469a" data-name="Path 889" d="M261.2,97.8l-1,2.2c-1.9-2.6-4.6-5.6-6.7-6.2l1-1Z" style="fill:#dfe0ec;isolation:isolate;opacity:0.10000000149011612"/><path id="a8a52a4c-cc77-4d61-8ea9-497a3b1af4da" data-name="Path 890" d="M266.8,53.8l2,1.5s3.3,0,3.6,2.8,3.4,3.9,3.4,3.9,2.3,2.3,2.3,3.3,1.7,2.9,1.7,3,1.7,3.5,1.5,4.1,1.8,3.2,1.1,4.2-.9,1.8-1.3,2.7-2.6,4.9-3.9,5.8-7.5,8.7-7.5,8.7-6.5,7.4-6.5,9.7c0,0-6.4-10.4-10.2-10.2l7.4-8.3s1.3-1.3,1.3-2.2,3.6-4.5,5.2-4.7c0,0,.3-2.2-.4-2.3s-1.3-1.8-1.3-1.8-4.9-5.6-5-9.2S266.8,53.8,266.8,53.8Z" style="fill:#66627d"/><path id="fdef2216-acb9-4f9a-a74f-dcd44961829d" data-name="Path 891" d="M269.7,58.9s-4.7,3.4-3.6,4.5S269.7,58.9,269.7,58.9Z" style="fill:#dfe0ec;isolation:isolate;opacity:0.10000000149011612"/><path id="f0cb85e5-396d-4194-b695-773925b4d821" data-name="Path 892" d="M269.9,72.9s8.7-2.8,9.6,0Z" style="fill:#dfe0ec;isolation:isolate;opacity:0.10000000149011612"/><path id="b6db493c-8be2-43bf-9618-262952b909ce" data-name="Path 893" d="M216.3,217.4s-4.7,3-7,2.6a8.4,8.4,0,0,0-4.7.7,14.3,14.3,0,0,1-5.9,3.8c-3.8,1.2-9.1.7-12.1-.2-1.4-.5-1.5-1.1-.8-1.8,3.3.6,10.5,1.9,12.5.9a49,49,0,0,0,6.2-3.8l5.5-.6a66.2,66.2,0,0,0,6.2-2.4Z" style="fill:#dfe0ec;isolation:isolate;opacity:0.10000000149011612"/><path id="fa26b165-e025-4f47-bf9a-ec21bd48875b" data-name="Path 894" d="M244.5,223.5v.3s-1.1,2.4-7.3,3.3-6.1-2-6.1-2v-.8C233.1,225,237.3,225.8,244.5,223.5Z" style="fill:#dfe0ec;isolation:isolate;opacity:0.10000000149011612"/><path id="b9bedae7-2c69-4be5-80b1-5ebdb18f7257" data-name="Path 895" d="M208.8,58.3s0,12.4-1.1,13.6S208.8,58.3,208.8,58.3Z" style="fill:#dfe0ec;isolation:isolate;opacity:0.10000000149011612"/><path id="f6af6c4c-ff4f-4a0f-853f-d827421955a4" data-name="Path 896" d="M258.9,62.3l1.6,4.4S261.1,62.4,258.9,62.3Z" style="fill:#dfe0ec;isolation:isolate;opacity:0.10000000149011612"/><g id="e0b7f360-c0a7-4a21-bb2a-6a6092d9b3bd" data-name="Group 18" style="opacity:0.10000000149011612"><path id="ac10abba-e36a-4394-aba8-c99a44868dee" data-name="Path 897" d="M219.6,14.7c.4-1-.6-2-.8-3.1a3,3,0,0,0-.2,1l.9,2.3C219.6,14.9,219.6,14.8,219.6,14.7Z" style="fill:#dfe0ec"/><path id="b9b333d2-5bda-4b54-ac77-dc19bb82cf11" data-name="Path 898" d="M238.1,26.4c-.4-1.7-.3-3.5-.7-5.2s-1.7-3.5-3.4-3.6-1.6.3-2.1-.2a7.5,7.5,0,0,1-.6-1.3c-1.3-1.9-4.9-.9-6.5.1s-5.4,4.5-8.3,3.8l-.3,1c2.9.9,6.1-2.3,8.5-3.8s5.2-2,6.4,0a4.5,4.5,0,0,0,.6,1.2c.6.6,1.4.3,2.1.3s3,1.8,3.4,3.5.3,3.6.7,5.4a2.5,2.5,0,0,1,.2-1.2Z" style="fill:#dfe0ec"/><path id="abb317a8-27fa-4bbf-9185-9373a41c0989" data-name="Path 899" d="M246.4,24.4a2,2,0,0,1-1.9,1.5c-.9-.2-1.3-1.2-2-1.8a2.7,2.7,0,0,0-3-.4,3,3,0,0,0-1.4,2.7,2.6,2.6,0,0,1,1.3-1.6,2.7,2.7,0,0,1,3,.4c.6.6,1.1,1.6,1.9,1.7s1.6-.6,1.9-1.4a5,5,0,0,0,.3-1.6A.9.9,0,0,1,246.4,24.4Z" style="fill:#dfe0ec"/><path id="b37027fc-e9ef-4502-bc1c-6c26f98c58d7" data-name="Path 900" d="M249,17c-.6,1.6-1.7,3-2.1,4.7s-.1.7-.2,1c.4-1.7,1.5-3.1,2.1-4.7a9,9,0,0,0,.6-2.2A5.6,5.6,0,0,1,249,17Z" style="fill:#dfe0ec"/></g><path id="f39f0d7a-8b4e-479e-b74a-238ffd0293cb" data-name="Path 2197" d="M173.4,57.6c.1-.1.1-.1.2,0l.8,1.6v.2h0a.1.1,0,0,1-.1-.1l-.9-1.6a.1.1,0,0,1,.1-.1Z" style="fill:#393768"/><path id="b7a348c9-3969-4f32-b68f-ccb8f1bab7b3" data-name="Path 2198" d="M165.1,59.8a.1.1,0,0,1,.1.1l.2.4c.1.1,0,.1,0,.1h-.1l-.2-.5Z" style="fill:#393768"/><path id="aa38266f-5dfb-467d-8353-cde67664d36a" data-name="Path 2199" d="M165.7,61c0-.1.1-.1.1,0l.4.9c.1,0,.1.1,0,.1h-.1l-.5-.9c0-.1,0-.1.1-.1Z" style="fill:#393768"/><path id="bf478eef-7999-4516-8081-4c4c5ceb48d4" data-name="Path 2200" d="M166.4,62.4c0-.1.1,0,.1,0h0l.5.9c0,.1,0,.1-.1.1h-.1l-.4-.9c-.1-.1,0-.1,0-.1Z" style="fill:#393768"/><path id="ebb7654d-cd1f-4d4c-867e-b773bced8732" data-name="Path 2201" d="M166.1,56.9l3.6-1.8a2.3,2.3,0,0,1,3,1l5.7,11.1a2.3,2.3,0,0,1-1,3h0l-3.6,1.7a2.3,2.3,0,0,1-3-.9l-5.7-11.2a2.2,2.2,0,0,1,1-2.9Z" style="fill:#393768"/><path id="a2468ee3-cd5f-4796-9c1b-cd712feb2cda" data-name="Path 901" d="M170.2,55.3l-.2.2c0,.1,0,.2.1.2h0V56a.3.3,0,0,1-.1.2l-3.2,1.6h-.3l-.2-.2h0c0-.1-.1-.1-.2-.2h-.2l-.6.4a.3.3,0,0,0-.3.3c-.1.1,0,.3,0,.4l6.8,13.3.4.3h.4l5.6-2.7.3-.4v-.4l-6.8-13.3a.5.5,0,0,0-.4-.2.3.3,0,0,0-.4,0Z" style="fill:#df2b67"/><path id="e895536e-2baa-48a3-9b33-c45ca1f7fbbc" data-name="Path 2202" d="M167.5,56.8l.8-.5c.1,0,.2,0,.2.1a.1.1,0,0,1-.1.1h0l-.8.4h-.2a.1.1,0,0,1,.1-.1Z" style="fill:#e6e8ec"/><circle id="f94a5a22-fdbe-453c-9aa8-c5d8a22321e1" data-name="Ellipse 176" cx="168.8" cy="56.2" r="0.1" style="fill:#e6e8ec"/><path id="fd43a5ac-a0d3-4739-ac6d-ca3d1ede9811" data-name="Path 902" d="M28,7.3S56.1,5.6,52.8,24.9a4.7,4.7,0,0,1-2.5,4.9s-.1-1.4-2.9-.9a15.8,15.8,0,0,1-3.1.1,6.7,6.7,0,0,1-3.7-1.5h0s-7.9-3.2-10.9-15.8c0,0-2.3-2.8-2.2-3.5l4.7,2s-1.6,3.4-.3,6.1c0,0,.1-6,1-5.8l2.5,1.1s-2.8,5.9-.7,10.1c0,0-.8-7.2,1.6-9.6L39.6,14s-3.3,6-1,10.9c0,0-.6-7.5,1.7-10.5l3,2.3s-3,6-1.2,10c0,0,.3-8.7,1.9-9.4a19.4,19.4,0,0,1,3,3.2s-2.1,4.3-.8,6.6c0,0,.8-5.8,1.5-5.9s2.6,3.9,2.9,6.6a13.8,13.8,0,0,0-2.3-6.9,7.6,7.6,0,0,1,4,2s-.4-2.7-4.6-3c0,0-2.2-2.9-2.8-3.1s4.2-.3,6.8.8c0,0-2.2-2.6-7.6-1.4l-3-2.4s5.6-.8,8,.1c0,0-2.7-2.3-8.8-.6l-3.2-1.9s4.8-1.1,7.6-.7c0,0-3-1.6-8.6.1l-2.3-1L38.3,9c1.1-.1,1.1-.3,1.1-.3a12,12,0,0,0-6.5.7S27.9,7.6,28,7.3Z" style="fill:#df2b67;isolation:isolate;opacity:0.10000000149011612"/><path id="ac44d1cd-b572-4d5e-8fab-a6c8af72cede" data-name="Path 903" d="M43.7,58.8s12.7-.7,11.2,8A2,2,0,0,1,53.8,69s0-.7-1.3-.4a6.6,6.6,0,0,1-1.4,0,2.8,2.8,0,0,1-1.7-.7h0s-3.5-1.4-4.9-7.1c0,0-1.1-1.2-1-1.6l2.1.9a3.9,3.9,0,0,0-.1,2.8s0-2.7.4-2.7l1.2.6s-1.3,2.6-.3,4.5c0,0-.4-3.2.7-4.3l1.5.8s-1.5,2.7-.5,5c0,0-.3-3.4.8-4.8l1.3,1.1s-1.3,2.7-.5,4.5c0,0,.1-3.9.8-4.2a9.3,9.3,0,0,1,1.4,1.4s-.9,2-.4,3,.4-2.7.7-2.7a8.1,8.1,0,0,1,1.3,3,5.7,5.7,0,0,0-1-3.1,3.1,3.1,0,0,1,1.8.9s-.2-1.2-2.1-1.4l-1.3-1.4a8,8,0,0,1,3.1.4s-1-1.2-3.4-.7l-1.4-1a10.9,10.9,0,0,1,3.6,0s-1.2-1-3.9-.3l-1.5-.8a10.2,10.2,0,0,1,3.5-.3,5.3,5.3,0,0,0-3.9,0L46.3,60l2.1-.4h.5a5.1,5.1,0,0,0-3,.3Z" style="fill:#df2b67;isolation:isolate;opacity:0.10000000149011612"/><path id="e0f0315e-86c5-4a6c-ac0b-fd34e70a3baf" data-name="Path 904" d="M.2,12.3s12.7-.8,11.2,7.9a2.1,2.1,0,0,1-1.1,2.3s0-.7-1.3-.5H7.6a2.8,2.8,0,0,1-1.7-.7h0S2.4,20,1,14.3a7.4,7.4,0,0,1-1-1.6l2.1.9A3.9,3.9,0,0,0,2,16.4s.1-2.7.5-2.7l1.1.6s-1.3,2.6-.3,4.5c0,0-.4-3.2.7-4.4l1.5.9S4,18,5,20.2c0,0-.3-3.4.8-4.7l1.4,1s-1.4,2.7-.6,4.6c0,0,.1-4,.8-4.3a5,5,0,0,1,1.4,1.5s-.9,1.9-.3,2.9.3-2.6.6-2.6a8.4,8.4,0,0,1,1.3,2.9,6,6,0,0,0-1-3.1,3.8,3.8,0,0,1,1.8.9S11,18.1,9.1,18a8.1,8.1,0,0,0-1.2-1.4,8.2,8.2,0,0,1,3.1.3s-1.1-1.1-3.5-.6L6.2,15.2a14.5,14.5,0,0,1,3.6.1s-1.2-1.1-4-.3l-1.4-.9a12.7,12.7,0,0,1,3.4-.2,5.3,5.3,0,0,0-3.9,0l-1-.4,2-.4c.5,0,.5-.2.5-.2a7.7,7.7,0,0,0-3,.3A10.2,10.2,0,0,1,.2,12.3Z" style="fill:#df2b67;isolation:isolate;opacity:0.10000000149011612"/><ellipse id="b93c04be-043e-40e1-a984-12640595d21d" data-name="Ellipse 177" cx="286.6" cy="208.3" rx="13.4" ry="2.2" style="fill:#df2b67"/><path id="f5a2b739-455c-4a0d-a7f0-2afe56ed625f" data-name="Path 905" d="M292.1,204.7a3.5,3.5,0,0,0,1.3-1.9,1.6,1.6,0,0,0-.9-1.9,2.3,2.3,0,0,0-2.3.8,3.8,3.8,0,0,1-2.3,1.1,3.3,3.3,0,0,0,1-3.2,1.4,1.4,0,0,0-.2-.7,1.5,1.5,0,0,0-1.9.1c-1.7,1.2-2.2,3.5-2.2,5.6a8.9,8.9,0,0,1,0-2.3,2.5,2.5,0,0,0-.9-2,1.6,1.6,0,0,0-1.3-.3,2.5,2.5,0,0,0-2.2.6,2,2,0,0,0,.1,2.6,7.2,7.2,0,0,0,2.2,1.7,4.6,4.6,0,0,1,1.6,1.5l.2.3h4.8a12.1,12.1,0,0,0,3-2Z" style="fill:#df2b67"/><ellipse id="f6d274e9-d1d7-4b58-829e-efab3e172fb2" data-name="Ellipse 178" cx="16.7" cy="225.1" rx="10.5" ry="1.7" style="fill:#df2b67"/><path id="a930c399-3af3-4821-9953-5090288d738f" data-name="Path 906" d="M21.1,222.3a3.1,3.1,0,0,0,1-1.5,1.2,1.2,0,0,0-.7-1.5,2.2,2.2,0,0,0-1.9.6,2.4,2.4,0,0,1-1.8.9,2.5,2.5,0,0,0,.9-2.5.8.8,0,0,0-.2-.5,1.2,1.2,0,0,0-1.5,0,5.5,5.5,0,0,0-1.7,4.4,10.9,10.9,0,0,1-.1-1.8,1.7,1.7,0,0,0-.7-1.6,1.6,1.6,0,0,0-1-.2,2.5,2.5,0,0,0-1.7.4,1.5,1.5,0,0,0,.1,2.1,7.5,7.5,0,0,0,1.7,1.4,3.7,3.7,0,0,1,1.3,1.2v.2h3.8a10,10,0,0,0,2.4-1.6Z" style="fill:#df2b67"/><ellipse id="a857c02a-432f-40b8-be33-af224c73b728" data-name="Ellipse 179" cx="43.3" cy="212.1" rx="10.5" ry="1.7" style="fill:#df2b67"/><path id="e6df40bc-a718-4fcc-9f01-6f582048a70a" data-name="Path 907" d="M47.6,209.2a3.1,3.1,0,0,0,1-1.5,1.2,1.2,0,0,0-.7-1.5,1.9,1.9,0,0,0-1.8.6,2.4,2.4,0,0,1-1.8.9,2.6,2.6,0,0,0,.8-2.5.8.8,0,0,0-.2-.5c-.4-.4-1-.2-1.5,0a5.5,5.5,0,0,0-1.7,4.4,5.4,5.4,0,0,1,0-1.8,2,2,0,0,0-.7-1.6l-1.1-.2a2.2,2.2,0,0,0-1.7.5,1.5,1.5,0,0,0,.1,2,7.5,7.5,0,0,0,1.7,1.4,3.7,3.7,0,0,1,1.3,1.2c0,.1.1.1.1.2h3.8A10,10,0,0,0,47.6,209.2Z" style="fill:#df2b67"/><path id="ac54a5c4-78aa-4305-812c-016acbf30434" data-name="Path 908" d="M162.6,64V95.3a3.1,3.1,0,0,1-.9,2.2,3.2,3.2,0,0,1-2.3.9H156V60.9h3.4a3.2,3.2,0,0,1,2.3.9A3.1,3.1,0,0,1,162.6,64Z" style="fill:#c7cce1"/><path id="b8e6b9d3-b105-4a16-89cd-13135397502f" data-name="Path 909" d="M160.1,60.9V98.4h-1.2V60.9h1.2Z" style="fill:#dfe0ec;isolation:isolate;opacity:0.20000000298023224"/><rect id="f1039fda-04bb-48db-b0a7-5de4ab792b7b" data-name="Rectangle 35" x="135.1" y="109.6" width="12.4" height="97.42" style="fill:#dcdfec"/><rect id="e0a31962-4170-47a0-9241-5035c42f06a3" data-name="Rectangle 36" x="130.7" y="217.4" width="19.7" height="2.71" style="fill:#c7cce1"/><rect id="ecb22f15-fac9-41f7-a7f5-a3f0db6019ee" data-name="Rectangle 37" x="130.7" y="217.4" width="19.7" height="1.52" style="fill:#dfe0ec;isolation:isolate;opacity:0.10000000149011612"/><rect id="abd7b75b-d9a9-45d3-920e-0ae7c502cad7" data-name="Rectangle 38" x="135.1" y="205.1" width="12.4" height="1.92" style="fill:#dfe0ec;isolation:isolate;opacity:0.10000000149011612"/><path id="a2373d05-5248-46aa-bef9-c2b0d8e11f66" data-name="Path 910" d="M126.4,205.5h28.3A11.6,11.6,0,0,1,166.5,217v1.8H114.6V217A11.6,11.6,0,0,1,126.4,205.5Z" style="fill:#dcdfec"/><rect id="b2b0b96a-b179-4c11-b5fb-9c5b85acbea8" data-name="Rectangle 39" x="135.1" y="123" width="12.4" height="11.69" style="fill:#dfe0ec;isolation:isolate;opacity:0.10000000149011612"/><rect id="f7a53abb-c90e-4c0c-8a0c-3ed32f434d5e" data-name="Rectangle 40" x="135.1" y="122.2" width="12.4" height="11.69" style="fill:#dfe0ec;isolation:isolate;opacity:0.10000000149011612"/><rect id="e7cdf4fb-4e1d-4f3c-a16d-55f814f00652" data-name="Rectangle 41" x="133.9" y="122.6" width="14.8" height="11.69" style="fill:#dcdfec"/><path id="a02f318c-f8c6-4802-8247-1aa449078f04" data-name="Path 911" d="M154.1,102.2v4.9a4.5,4.5,0,0,1-4.6,4.5H133a4.5,4.5,0,0,1-4.6-4.5v-4.9a4.6,4.6,0,0,1,4.6-4.5h16.5A4.6,4.6,0,0,1,154.1,102.2Z" style="fill:#c7cce1"/><path id="fa0c4065-db1b-45bd-985b-bf23ca0e75ba" data-name="Path 912" d="M154.1,102.2v.5a16.4,16.4,0,0,1-23,2.8,17.9,17.9,0,0,1-2.7-2.8v-.5a4.6,4.6,0,0,1,4.6-4.5h16.5a5.1,5.1,0,0,1,3.3,1.3A4.4,4.4,0,0,1,154.1,102.2Z" style="fill:#dfe0ec;isolation:isolate;opacity:0.10000000149011612"/><path id="a268f7af-7b32-4c08-89d1-ed3a88553f8e" data-name="Path 913" d="M126.4,57h29.8a1.3,1.3,0,0,1,1.3,1.3V94.8a14,14,0,0,1-14.1,13.8h-4.3a13.8,13.8,0,0,1-14-13.8V58.3A1.3,1.3,0,0,1,126.4,57Z" style="fill:#c7cce1"/><path id="b00b92a0-6c69-4daa-98da-6f2dac96a1fd" data-name="Path 914" d="M131.9,38.2h18.8a4.9,4.9,0,0,1,4.9,4.9v14a1.7,1.7,0,0,1-1.8,1.7H128.7a1.7,1.7,0,0,1-1.8-1.7h0v-14a4.9,4.9,0,0,1,5-4.9Z" style="fill:#c7cce1"/><rect id="b99baca5-ba3a-4785-b604-30d8a3ae5f1d" data-name="Rectangle 42" x="130.3" y="52.7" width="22.5" height="1.46" style="fill:#dfe0ec;isolation:isolate;opacity:0.20000000298023224"/><rect id="a9ae12f4-8354-4eed-aafd-d362b70338db" data-name="Rectangle 43" x="128.4" y="61.7" width="25.8" height="18.31" style="fill:#dfe0ec;isolation:isolate;opacity:0.10000000149011612"/><rect id="bba92427-4925-4b48-b00a-2b6f3b0f4d5a" data-name="Rectangle 44" x="128.4" y="61.3" width="25.8" height="18.31" style="fill:#df2b67"/><g id="fbcca24d-aae8-4aa8-b86a-04cc3d3b00cd" data-name="Group 19" style="opacity:0.10000000149011612"><rect id="fc7ee426-a00f-44a9-815c-c7a7d00d6921" data-name="Rectangle 45" x="128.5" y="82.8" width="5.8" height="2.03" rx="0.8" style="fill:#dfe0ec"/><rect id="f78e5f9a-19dd-4f7f-82ad-a4fef2969b75" data-name="Rectangle 46" x="135.1" y="82.8" width="5.8" height="2.03" rx="0.8" style="fill:#dfe0ec"/><rect id="b9a22ec2-4761-4fc6-9e29-0c87a8c271f2" data-name="Rectangle 47" x="141.6" y="82.8" width="5.8" height="2.03" rx="0.8" style="fill:#dfe0ec"/><rect id="a9277b57-4a09-44a4-b394-1f74c37a0d7d" data-name="Rectangle 48" x="148.2" y="82.8" width="5.8" height="2.03" rx="0.8" style="fill:#dfe0ec"/><rect id="b4328b6e-9193-40f1-ad74-f309f0035c63" data-name="Rectangle 49" x="128.5" y="86.8" width="5.8" height="2.03" rx="0.8" style="fill:#dfe0ec"/><rect id="a6c27419-663c-458f-9ac2-c2ccee57df59" data-name="Rectangle 50" x="135.1" y="86.8" width="5.8" height="2.03" rx="0.8" style="fill:#dfe0ec"/><rect id="b23c62b6-57ff-4eb7-8860-a68f58d5b870" data-name="Rectangle 51" x="141.6" y="86.8" width="5.8" height="2.03" rx="0.8" style="fill:#dfe0ec"/><rect id="b55eb32e-8fa4-456e-8d59-37104cdbfb02" data-name="Rectangle 52" x="128.5" y="90.6" width="5.8" height="2.03" rx="0.8" style="fill:#dfe0ec"/><rect id="b150be3b-7139-4892-bf7b-43d3b430f666" data-name="Rectangle 53" x="135.1" y="90.6" width="5.8" height="2.03" rx="0.8" style="fill:#dfe0ec"/><rect id="b548b38f-6f6e-43a8-bc17-04d584177fef" data-name="Rectangle 54" x="141.6" y="90.6" width="5.8" height="2.03" rx="0.8" style="fill:#dfe0ec"/><rect id="e1bbbaa2-f959-4ce6-8e19-f995c976a059" data-name="Rectangle 55" x="128.5" y="94.9" width="5.8" height="2.03" rx="0.8" style="fill:#dfe0ec"/><rect id="be2a9cef-eb27-4dec-aadc-472f7f67d411" data-name="Rectangle 56" x="135.1" y="94.9" width="5.8" height="2.03" rx="0.8" style="fill:#dfe0ec"/><rect id="fdcd8207-b3ff-48a8-a818-8581224e846a" data-name="Rectangle 57" x="141.6" y="94.9" width="5.8" height="2.03" rx="0.8" style="fill:#dfe0ec"/><rect id="f5ae357c-742f-4f3a-b8c1-769ce9b2afd8" data-name="Rectangle 58" x="148.2" y="86.8" width="5.8" height="2.03" rx="0.8" style="fill:#dfe0ec"/><rect id="ad980478-8f20-492a-870a-3732048db9c4" data-name="Rectangle 59" x="148.6" y="90.4" width="5.1" height="7.22" rx="2" style="fill:#dfe0ec"/></g><rect id="fb6a64d1-5def-4081-ac8d-29bde03dca81" data-name="Rectangle 60" x="128.5" y="82.4" width="5.8" height="2.03" rx="0.8" style="fill:#f2f3f3"/><rect id="f656999b-059c-427b-bcea-6de477e86fe6" data-name="Rectangle 61" x="135.1" y="82.4" width="5.8" height="2.03" rx="0.8" style="fill:#f2f3f3"/><rect id="bdb7af42-f5b8-42d8-8e01-f78c3ae5bf73" data-name="Rectangle 62" x="141.6" y="82.4" width="5.8" height="2.03" rx="0.8" style="fill:#f2f3f3"/><rect id="a1c7b04f-c212-47aa-8859-9e201eef5150" data-name="Rectangle 63" x="148.2" y="82.4" width="5.8" height="2.03" rx="0.8" style="fill:#d54f6b"/><rect id="b6dacb5b-d832-467c-8d97-6584fd6521ef" data-name="Rectangle 64" x="128.5" y="86.4" width="5.8" height="2.03" rx="0.8" style="fill:#f2f3f3"/><rect id="aa6aad4e-815d-4e8a-9cfa-141fbddf44e1" data-name="Rectangle 65" x="135.1" y="86.4" width="5.8" height="2.03" rx="0.8" style="fill:#f2f3f3"/><rect id="a22bf014-d34d-42d5-93fd-253e5facaab5" data-name="Rectangle 66" x="141.6" y="86.4" width="5.8" height="2.03" rx="0.8" style="fill:#f2f3f3"/><rect id="a6cba92f-48d9-45a2-ae48-d556d5194aa8" data-name="Rectangle 67" x="128.5" y="90.2" width="5.8" height="2.03" rx="0.8" style="fill:#f2f3f3"/><rect id="bf66b754-f7e9-438e-b861-e463c6904440" data-name="Rectangle 68" x="135.1" y="90.2" width="5.8" height="2.03" rx="0.8" style="fill:#f2f3f3"/><rect id="aadec2a4-1b6f-4564-ac3f-0da96a6ed93c" data-name="Rectangle 69" x="141.6" y="90.2" width="5.8" height="2.03" rx="0.8" style="fill:#f2f3f3"/><rect id="f9e272ea-1af9-49d2-9695-6d9408466279" data-name="Rectangle 70" x="128.5" y="94.5" width="5.8" height="2.03" rx="0.8" style="fill:#f2f3f3"/><rect id="a40d9193-8267-48c5-9335-52e4e42922dc" data-name="Rectangle 71" x="135.1" y="94.5" width="5.8" height="2.03" rx="0.8" style="fill:#f2f3f3"/><rect id="aaf1e2f2-1ddd-4ae1-b419-bdbe72d7be33" data-name="Rectangle 72" x="141.6" y="94.5" width="5.8" height="2.03" rx="0.8" style="fill:#f2f3f3"/><rect id="b7486e2e-aba6-468c-b020-05fa730e928a" data-name="Rectangle 73" x="148.2" y="86.4" width="5.8" height="2.03" rx="0.8" style="fill:#fecb43"/><rect id="bb834287-7ea7-4944-b5f9-70e488297683" data-name="Rectangle 74" x="148.6" y="90" width="5.1" height="7.22" rx="2" style="fill:#9ac660"/><rect id="e9e8556b-eb67-40d6-8768-6ce9b258f567" data-name="Rectangle 75" x="141.2" y="77.4" width="2.8" height="0.32" style="fill:#c7cce1"/><rect id="a6ceab91-b986-410a-b7dd-5f7466b38f21" data-name="Rectangle 76" x="145.1" y="77.4" width="2.8" height="0.32" style="fill:#c7cce1"/><rect id="b6d5e939-9668-4880-9eda-2314f5521d2a" data-name="Rectangle 77" x="149" y="77.4" width="2.8" height="0.32" style="fill:#c7cce1"/></g></svg>