<svg id="a8cd01c5-f323-4511-b3a8-029f479e4a1c" data-name="Слой 1" xmlns="http://www.w3.org/2000/svg" viewBox="0 0 1600 1200"><path d="M244.4,0h56.2a16.1,16.1,0,0,0,3.3,1.5c28.5,4.9,57.2,8.8,85.4,14.9,50.1,10.8,98.4,27.9,146.6,45.3C586.6,80,637,99.2,687.7,117.7a949.1,949.1,0,0,0,146.2,40.8A703.6,703.6,0,0,0,947.8,170a211.3,211.3,0,0,0,26.4-1.5c16.5-1.6,33.1-2.7,49.4-5.5,34.4-5.9,67.8-15.1,99.5-30.3,21.6-10.3,41.7-22.8,59-39s36.2-28.7,58.3-36.9c38.2-14.3,77.7-17.3,117.6-12.3,33.3,4.2,65.1,13.8,95,30.4,35.6,19.7,62.1,47.8,81.9,82.4,9.3,16.2,15.3,34.4,16.4,53.2,2.3,35.8-2.6,70-21.8,101.7-12.8,21.2-24.3,42.9-40.7,61.8-21.3,24.4-41.5,49.9-61.9,75.1-15.4,19.1-31.2,38-45.4,58.1a176.3,176.3,0,0,0-28.4,62.3c-6,25.4-5.9,50.5,6.4,74.5,13.4,26.3,35.7,43.7,60,58.2,29.8,17.8,60.7,33.9,91.3,50.5a237.7,237.7,0,0,1,61.1,46.5c21.9,23.6,28.9,53,24.8,84.5-4.6,35.1-24.9,60.6-54.1,79-19.4,12.3-41,20.4-63.3,26.2-44.4,11.7-89.9,16.5-135.4,21-31,3.1-62.2,4.6-93.4,6.2-29.2,1.5-58.4,2.2-87.6,3.1l-54.5,1.5-54.5,1.6-61.3,1.5c-23.2.5-46.4,1.1-69.6,1.5-39.1.6-78.3,1.5-117.5,1.4-49.7,0-99.5-.8-149.3-1.4-17.9-.3-35.8-1-53.7-1.5l-71.9-1.6c-5-.1-10-1.2-15-1.1-6.9,0-13.8.8-20.7,1.3-.7-4.5-2.6-9.2-1.9-13.4,5.5-30.8,6.7-61.9,7.7-93,12.8-9.4,19.1-21.3,16.1-37.7-.8-4.4.8-9.2,1.2-13.8,9.6-7,14.8-15.9,13.8-28.4s-1.3-27.3-1.4-40.9c-.3-35.2-.3-70.4-.4-105.5.1-4.9.3-9.8.5-14.7l28.2,2.2,24.4,2.3,7.4.8,26,2.7,56,5.1,51.7-9.1,21.3-4.2,6-.3,3.1-.7,6-.8,3.1-.5,21.2-4.1,3.1-.8,3-.8c6.8,2.1,9,.3,9-7.6.1-34.2.2-68.3.2-102.5l38.5-6.6,7.7-1.1-47-30.7,22.1-33.7a18.3,18.3,0,0,1-1.3-1.6l-5,1.6-2.9-.7-7.7-.9-13.6-.6-7.6-1-12.1-.7-6.1-.7-12.1-.6-9.2-1-12-.8-6.2-.7-13.6-.7-6.1-.8c-5.7.4-12.7-1.2-16.8,1.6-14.1,9.4-27.3,20.3-40.9,30.7l-6.1-.4c-14.6-8.2-29.4-16.1-43.8-24.8-6.2-3.8-12.2-4.7-19.2-3.7-10.5,1.5-21,2.4-31.5,3.6-1.4-2.8-3.6-5.5-4-8.4-1.5-10.7-2.2-21.4-3.3-32.1s-.2-19.7.1-29.5c.6-19-5.5-36-13.7-52.7-1.7-3.2-1.7-7.4-2-11.2-.5-6.9,1.5-15-1.5-20.6-4.1-7.9-11.8-14.1-17.9-21,5-13,10.9-25.1,27.5-26a16.2,16.2,0,0,0,5.6-1.9c22.4-11,32.1-29.6,32.3-54,4.3,2.9,9.2,5,12.6,8.6,10.3,11.3,21.5,15.6,32.8,10.7,3-1.3,6.8-5,6.8-7.7s-3.6-6.2-6.5-7.9c-5.9-3.4-12.5-5.4-18.5-8.5s-9.1-8.5-10.9-15.9c-2.5-9.8-6.4-20.6-13.2-27.4-21.4-21.3-47.8-30.5-78.1-25-13.3,2.4-26.5,5.8-31.4,21l-9.3,6c-9.6,5.8-10.5,10.3-4.1,19.3l7.7-8.4c-.1,4-.1,8.1-.2,12.2-11.6,11.8-10.7,27.6-13.4,42.2-.1.2,0,.5,0,.7s-.3,2-.6,3c-3.5,9.5-3.3,9.9,6.3,12.3-.6.8-1.2,2.3-1.7,2.2-11.9-1.2-13.5,8.1-16.8,15.9-1.4,3.4-3.1,7.8-5.9,9.2-14.2,7.4-23.8,19.5-33.5,31.3s-18.6,20.4-24.2,32.4-9.6,28.6-11.5,43.4c-1.5,12.1.1,24.9,1.7,37.2,2.7,20.2,7.1,40,9.9,60.1,2,14.2,2.8,28.5,3.8,42.8.2,2.2-.9,4.7-2.1,6.6-5,8.2-10.5,16-15.3,24.2-1.9,3.2-4.1,7.6,1.5,10.2h0l1.6,1.5,17.7,4.7c-.6,2-1.1,4.2-1.9,6.3-8.2,21.4-13.2,42.9-10.1,66.3,2.5,18.6,6,36.3,18.6,50.8,5.7,6.7,12.2,12.8,18.3,19.2h0c.5,4.9,1,9.9,1.4,14.9,1,9.7,1,19.6,3,29.2s6.6,17.9,8.7,27.1c3.7,16.1,6.3,32.5,9.7,48.7.4,1.8,2.7,3.2,4.2,4.8l-.6,10.8c-6.6,1.2-3.2,6.3-3.5,9.6-.1,1.7,2.7,3.6,4.1,5.4-.3,1.6-.2,4.3-1.1,4.7-8.2,3.3-8.8,11.2-11.3,18l-1,3.1c-.2,1.5-.5,3-.7,4.5s-.6,2-1,3l-.3,3.1c-.3,1.5-.7,3-1.1,4.5l-.3,3.1c-.5,2-.9,4-1.3,6s-.2,2.1-.2,3.1-.9,4-1.3,6.1l-.3,3c-.3,2.1-.7,4.1-1,6.1s-.3,3-.5,4.5l-1.2,7.6-.3,3.1c-.4,2.5-.7,5.1-1.1,7.6s-.2,2-.4,3c-4.7,2.5-3,5.8-1.2,9.1l-.3,3.1c-4.7,2.5-3,5.8-1.1,9.1-.1,1-.2,2-.4,3-1.4,6.6-2.9,13.2-4.3,19.9-13.6-1.1-27.1-1.8-40.6-3.2-22.5-2.4-45.1-4.2-67.3-8.1-27.4-4.8-54.6-11.2-81.8-17.5A444.9,444.9,0,0,1,88.8,938.4c-11.6-6.5-21.6-15.7-32.8-22.9-18.5-11.9-31.4-29.1-42.1-47.4C7,856.5,4.5,842.4,0,829.4v-35c.3-.3.9-.7,1-1.1a189.5,189.5,0,0,1,26.1-71.2c8.3-13.8,16.1-28,25.5-41.2,15.1-21.3,31.8-41.5,46.9-62.8,11.3-16,21.6-32.8,31.5-49.8,18.2-31,28.4-65.2,35.4-99.9a140.7,140.7,0,0,0-3-69.3c-6.2-20.3-13-39.9-25.6-57s-24.1-31.6-35.7-47.8-20.6-36.5-21.5-57.9c-1.5-39,2.4-77.3,15-114.6C104.1,97,112.9,72.9,131,52.6,155.7,25,186.4,10.9,221.7,4.5,229.3,3.1,236.9,1.5,244.4,0Zm789.5,174.8v-1.6c-7.8-4.9-14.2-3.2-16.6,3.1H1011c-2.1-.3-4.3-.9-6.3-.6-14.9,2.2-22.8,12.2-22.5,28.1.2,11.8.3,11.5,11.1,12.4,13.3,1.2,21.7-5.8,29-15.4l3.8-6.4,3-7.7c1.6-4,3.2-8,4.9-12ZM1031,328.1l-4.9-9-13.5-8.8c-6.5-.1-12.9-.5-19.3-.1-2,.2-5.6,3-5.4,4.2,1.1,9.2-.5,19.8,8.3,26.1s16.2,9.5,24.3,14.2c3.6,3.2,10.2.4,12.6,6.1,1.7-.8,4.4-1.3,4.7-2.5a6.5,6.5,0,0,0-1.5-5.7c-1.4-1.3-4-1.2-6.1-1.7a28.2,28.2,0,0,1-.7-3.1c3.5-.4,9.5,1.4,5.9-6Zm184.8-68.5,10.4-1.3c4.8-.6,6.4-3.2,3.5-7.1a134.1,134.1,0,0,0-12.3-14.8c-1.3-1.4-3.9-1.7-6-2.4-6.1-8.9-15.6-10-24.8-8.8s-17.4,7-22.6,16.5c5.5,5.4,9.8,11.5,15.7,15.2C1190.9,263.8,1203.5,261.9,1215.8,259.6ZM803.3,870.2l1.5-.4c4.8,8.1,10.2,16,14.2,24.5s9.3,9.6,17.3,7.2v-52H824.6v30.8a96,96,0,0,1-15.1-22.8c-3.9-8.4-9.6-9.9-17.8-7.7v52.1h11.6ZM985.9,512.8c10.1-1.9,20.2-3.6,30.2-5.9.8-.2,1.8-5.2.8-6.3-8.2-8.9-16.4-17.9-28-22.7s-28.1-.8-35.5,10.7a7.2,7.2,0,0,0-.2,6.1C960.3,507.2,971.2,513.2,985.9,512.8Zm323.7-361.1c6.1-1.9,12.6-3.1,18.3-5.8a203.2,203.2,0,0,0,22.6-13c3.8-2.4,2.2-5.4-1.1-6.8-9.9-4.2-19.7-8.9-30.1-11.6-14.1-3.8-29.9,6.6-33,20.7-.5,2.1-.3,6,1.1,6.8C1294,146.2,1300,152.6,1309.6,151.7Zm-455,165.4C853,291,845.2,281.5,820,280c-2.3-.1-6.6,1.9-6.8,3.3-1,9.6-3.3,19.2,3.1,28.6s15,14.4,24.5,19.1l9.9,4.8c1.3-4,2.8-7.9,3.9-11.9C855,322.3,854.6,320.4,854.6,317.1ZM715,355.4l.9-2.7c-8.5-3.3-16.9-7.2-25.7-9.7-18.9-5.3-30.5,5-36.7,20.5-.7,1.8-.6,5.1.6,6.3,9.2,9.1,25.9,11.5,38.6,5,9.2-4.7,17.9-10.5,26.9-15.9l-13.2-2.2.7-2Zm460.6,63.8c14.7,0,28.5-9.7,34.3-23.4,2-4.7,3.4-9.5,5.4-14.1s.7-7.6-4.7-8a56.6,56.6,0,0,0-31.2,6.9c-11.3,5.9-16.4,17.1-14.4,29.5C1166.2,417.7,1169.2,421,1175.6,419.2Zm197.1-54.7,1.6-1.4,5.6,4.7c.3-3.8,1.7-7.4.4-9.2-13.6-20.2-26.3-24.9-47.6-13.5-1.7.9-4.3,4-3.8,4.9,2.9,6.5,5.1,14.1,10.1,18.7,13.7,12.8,31.8,10.6,50.2,12.2C1382.9,375,1375.7,371.5,1372.7,364.5Zm-458,537.7c6.5,0,12.3.4,18.1,0,14.5-.9,24.8-11.1,25.8-24.9s-7.8-24.9-21.9-27.4c-7-1.2-14.4-.2-22-.2Zm407.7-38.9c-14.1-4.1-23.2-1.8-28.6,6.9s-4.6,18.9,1.7,26,15.7,8.7,30.7,1.8l5.8,5.2V847.1h-9.6ZM1004,903.2V862.1l-6.1,4.1c-12.2-7-23.7-6.4-30.4,1.5s-6.9,20.2-.7,28,18.5,10.6,31.3,2.2Zm82.5.2V862.2l-6.2,4.2c-12.1-7.3-23.1-6.6-30.9,2.1-5.9,6.6-6.1,20.1-.4,26.8,7.4,8.8,18.8,9.7,31.5,2.5Zm110.7-21.1c.3-11.9-8.3-20.9-20-21.2s-21.9,8.1-22.2,19.8c-.4,14,8.3,21,21.5,22.1C1187.6,904,1196.9,893.9,1197.2,882.3Zm-66,19.7V881h14.9V870.2h-14.6V859.4h25.3v-9.7h-37.6V902ZM885,882.3c.2-12.4-8.1-21-20.6-21.2s-21.4,8.5-21.6,20.5a21,21,0,0,0,20.8,21.6C875.7,903.3,884.8,894.4,885,882.3ZM1228.7,863c0,6.7,0,12.9.1,19.2s-1.4,10.1-7.4,10.4-7.6-4.9-7.6-10.1,0-12.9,0-19.3h-10.4c0,6.5,0,12.6.1,18.6a40.8,40.8,0,0,0,.4,6.1,17.2,17.2,0,0,0,23,14.1c3.9-1.4,8.2-1.4,13-2.1V863Zm56.8,39c0-8.2.4-15.5-.1-22.8-.8-13-12.5-20.4-25-16.6-3.6,1.2-7.6,1.3-11.8,1.9v37.4h9.9c0-3.9-.4-7.5.1-10.9.9-6.8-4.1-16.4,7.2-18.8,6.1-1.3,9.4,5.9,9.4,18.8v11Zm-244.4-9.2c-15.8-1.5-16.4-2.4-13.6-19.6l13.4-.7v-10h-14.3c-.3-5.5-.5-10.4-.8-15.4h-8.9c-3.5,5.6,4.1,15.1-7.8,16.6.6,3.1.9,8.2,1.8,8.4,6.3.9,4.9,5.4,4.9,9.1.2,16,9.1,23.2,25.3,20.2Z" style="fill:#efebf9"/><path d="M0,829.4c4.5,13,7,27.1,13.9,38.7,10.7,18.3,23.6,35.5,42.1,47.4,11.2,7.2,21.2,16.4,32.8,22.9a444.9,444.9,0,0,0,117.7,46.1c27.2,6.3,54.4,12.7,81.8,17.5,22.2,3.9,44.8,5.7,67.3,8.1,13.5,1.4,27,2.1,40.6,3.2l-3,64.1a7.6,7.6,0,0,0-.1,1.5c-.8,4.3-2.2,6.6-7.5,7.5-21.5,3.9-42.9,8.3-64.1,13.6-12.2,3-24.4,6.7-33.6,16.3-7.8,8-7.1,14.6,1.8,21.3,12,9.2,26,13,40.2,16.8,44.6,12,90.5,16.2,136.3,19.5,32.4,2.3,65,2.5,97.5,3.2,13.3.2,26.7-1,40-1.4,17.4-.6,34.8-.8,52.2-1.6,12.8-.7,25.6-1.6,38.3-3.2,20.9-2.6,41.8-5.5,62.6-8.9,25.7-4.3,50.9-10,73.9-23,10.5-5.9,12.3-19.4,2.5-24.6s-22.2-11.1-33.9-14.5c-51.5-15.3-104.7-19-157.9-22.8-19.8-1.4-39.8-1.2-59.7-1.7l-2.7-9.3c-3.5-11.9-14.3-11.1-23.3-13.3-2.8-.3-5.6-1.3-8.2-.8-7.3,1.5-12.6-1.5-18.6-5.3-8.2-5.1-17.4-8.4-26.2-12.5l-7.8-11.8c6.9-.5,13.8-1.3,20.7-1.3,5-.1,10,1,15,1.1l71.9,1.6c17.9.5,35.8,1.2,53.7,1.5,49.8.6,99.6,1.4,149.3,1.4,39.2.1,78.4-.8,117.5-1.4,23.2-.4,46.4-1,69.6-1.5l61.3-1.5,54.5-1.6,54.5-1.5c29.2-.9,58.4-1.6,87.6-3.1,31.2-1.6,62.4-3.1,93.4-6.2,45.5-4.5,91-9.3,135.4-21,22.3-5.8,43.9-13.9,63.3-26.2,29.2-18.4,49.5-43.9,54.1-79,4.1-31.5-2.9-60.9-24.8-84.5a237.7,237.7,0,0,0-61.1-46.5c-30.6-16.6-61.5-32.7-91.3-50.5-24.3-14.5-46.6-31.9-60-58.2-12.3-24-12.4-49.1-6.4-74.5a176.3,176.3,0,0,1,28.4-62.3c14.2-20.1,30-39,45.4-58.1,20.4-25.2,40.6-50.7,61.9-75.1,16.4-18.9,27.9-40.6,40.7-61.8,19.2-31.7,24.1-65.9,21.8-101.7-1.1-18.8-7.1-37-16.4-53.2-19.8-34.6-46.3-62.7-81.9-82.4-29.9-16.6-61.7-26.2-95-30.4-39.9-5-79.4-2-117.6,12.3-22.1,8.2-41.1,20.7-58.3,36.9s-37.4,28.7-59,39c-31.7,15.2-65.1,24.4-99.5,30.3-16.3,2.8-32.9,3.9-49.4,5.5a211.3,211.3,0,0,1-26.4,1.5,703.6,703.6,0,0,1-113.9-11.5,949.1,949.1,0,0,1-146.2-40.8C637,99.2,586.6,80,535.9,61.7c-48.2-17.4-96.5-34.5-146.6-45.3-28.2-6.1-56.9-10-85.4-14.9A16.1,16.1,0,0,1,300.6,0H1600V1200H974.7l18.4-5.4v-3c-3.9-1.2-7.7-3.3-11.6-3.6-15.2-.9-30.5-1.4-45.8-1.5-6.2-.1-12.5,1.1-18.6,2.2-2.1.5-3.9,2.6-5.9,3.9l5.3,4.3,3.5,3.1H0Zm127.9,301.8-6.1,2-15.6,4.5.3,2.8c2.4,1.1,4.7,2.7,7.2,3.2,19.9,3.5,40,3,60,1.2,5-.4,9.7-3.6,14.6-5.5,4.3-.2,8.6-.1,12.8-.5,8.4-.9,10.6-4.7,7.2-12.4a41.3,41.3,0,0,0-4.5-7.9c-4.3-6.1-8.7-12.2-13.5-18-2-2.5-5.3-5.9-7.7-5.6-10.2,1.1-20.2,3.2-30.2,5.3-7.6,1.6-14.9,4-22.5,5.7-3.6.8-7.3,1-11.6,1.6C119.6,1116.8,120.3,1125.3,127.9,1131.2Zm1177.7-43.8c-18.3,3.2-35.6,1-50.4,11.2,3.6,2.8,7.2,4.9,10.9,5.5a290.1,290.1,0,0,0,29.3,3.9c25.3,1.6,50.5,1.5,75.5-3.8,3.9-.8,7.5-2.9,13.3-5.2-15.2-10.4-30.8-8.4-46.9-11.2,3.7-3,6-5.1,8.7-6.9,5.9-4.1,8.1-10.3,4.9-14.7s-8.4-3.8-14.7.9c-2.3,1.7-4.7,3.1-8.8,5.9,1.2-3.9,2.5-5.8,2.3-7.5-.4-4-1.6-7.8-2.4-11.7-3.6,1.8-8.1,2.7-10.6,5.4s-4.4,8-6.6,12.2c-.6-.7-1.1-1-1.1-1.4-.5-6.5-3.6-11.1-10.3-10.4-4,.4-9.6,2.5-11,5.5-2.9,6.2,1.8,10.8,6.8,14.4Zm118-516.3c9.5,1.9,17.8-3,23.9-10.8s12-17.9,17.3-27.2c1.9-3.4-.3-6.3-4.6-6-7.8.6-15.7.5-23.2,2.2-13.5,3.1-25,9-27.8,24.8C1406.9,566.5,1410.2,571.2,1423.6,571.1ZM898.8,124.5c8.9,1.7,16.8-2.5,22.3-9.7,6.7-8.9,12.3-18.7,17.6-28.6,2-3.8-1.6-6.1-5.4-5.6-9.4,1.2-18.9,2.1-28.1,4.3a27.7,27.7,0,0,0-19.7,36c.5,1.6,3,3,4.9,3.5S895.4,124.5,898.8,124.5Zm642.8,457.3-.3-1.2c-7.3,1.7-14.8,2.7-21.8,5.3-12.9,4.9-20.6,19.5-17.7,33,.4,2.3,2.6,5.9,4.4,6.1,12.7,1.4,25.3.2,33.6-11.2,5.2-7.1,9.1-15.4,13.4-23.2,3.4-6.1,2-8.4-4.8-8.8ZM1027.2,38.6c-6.5,2.5-13.5,4.6-19.9,7.8-1.9.9-3.6,5.1-3.1,7.3,3.2,13.8,13.1,21.2,26.2,23.7,9,1.7,18.5,1.1,27.7,1.9,6.7.7,8-.6,5.7-7.1-4.6-13.1-13.7-22.4-25.3-29.5C1035.4,40.8,1031.6,40.1,1027.2,38.6ZM877.6,33.1l.7-2.7c-10.4-3.5-20.5-8.2-31.1-10.3-15.4-3-26.5,4-32.1,18.6-1,2.6-1.6,7.8-.5,8.4,6.4,3.6,13.2,8,20.2,8.7,17.7,1.9,30.7-9.6,45.8-19.3-11.1-1.3-20.6-6-29.8.3l-5.4-5.1C856.5,26,867,33.9,877.6,33.1Zm271.4,1056v-3.3c-6.1-1.1-12.2-2.5-18.4-3.1-19.8-1.9-39.7-2.8-59.3,1.8-1.8.5-3.4,2.3-5.1,3.4,1.8,1.4,3.4,3.6,5.4,4.1,21.2,4.3,42.5,3.9,63.8,1.3C1140,1092.8,1144.4,1090.6,1149,1089.1Zm83.7,95.9c7.5,10.5,74.6,10.7,84.4.7C1304.8,1177,1253.1,1176.4,1232.7,1185Z" style="fill:#fefefe"/><path d="M244.4,0c-7.5,1.5-15.1,3.1-22.7,4.5-35.3,6.4-66,20.5-90.7,48.1C112.9,72.9,104.1,97,95.6,121.8c-12.6,37.3-16.5,75.6-15,114.6.9,21.4,9.1,40.6,21.5,57.9s23.9,31.8,35.7,47.8,19.4,36.7,25.6,57a140.7,140.7,0,0,1,3,69.3c-7,34.7-17.2,68.9-35.4,99.9-9.9,17-20.2,33.8-31.5,49.8-15.1,21.3-31.8,41.5-46.9,62.8-9.4,13.2-17.2,27.4-25.5,41.2A189.5,189.5,0,0,0,1,793.3c-.1.4-.7.8-1,1.1V0Z" style="fill:#fefefe"/><path d="M920,1200l-3.5-3.1-5.3-4.3c2-1.3,3.8-3.4,5.9-3.9,6.1-1.1,12.4-2.3,18.6-2.2,15.3.1,30.6.6,45.8,1.5,3.9.3,7.7,2.4,11.6,3.6v3l-18.4,5.4H920Z" style="fill:#efebf9"/><path d="M400.5,993.4c.2-1,.3-2,.4-3,.4-3,.7-6.1,1.1-9.1l.3-3.1,1.2-9.1c.2-1,.3-2,.4-3s.7-5.1,1.1-7.6l.3-3.1,1.2-7.6c.2-1.5.3-3,.5-4.5s.7-4,1-6.1l.3-3c.4-2.1.8-4.1,1.3-6.1s.1-2.1.2-3.1.8-4,1.3-6l.3-3.1c.4-1.5.8-3,1.1-4.5l.3-3.1c.4-1,.7-2,1-3s.5-3,.7-4.5.7-2.1,1-3.1c2.5-6.8,3.1-14.7,11.3-18,.9-.4.8-3.1,1.1-4.7l-.6-15,.6-10.8c-2.2-10.7-4.3-21.4-6.5-32-1.8-8.6-2.4-17.8-6-25.6-8.5-18.5-10-37.8-10.3-57.5,0-3.2-2.7-6.4-4.2-9.6h0c-4.1-6-7.5-12.7-12.5-17.9a67.2,67.2,0,0,1-17.8-33.5c-5.8-27.8-4.7-55.1,5.9-81.8,5.1-12.7,4.7-12.8,18.2-12.1l13.7,2.1c8.1,3.4,16.3,6.5,24.1,10.4,16.2,7.9,31.4,17.8,50.1,19.8,13.9,1.5,27.5,5.3,41.3,8v54.3l6.6,1.2-.5,14.7c-1.2,1.6-2.9,3.1-3.5,4.9-7,22.5-9.8,45.7-10.2,69-.5,31.1-.2,62.1,0,93.2,0,2.5,1.1,5.1,1.7,7.7-.4,4.6-2,9.4-1.2,13.8,3,16.4-3.3,28.3-16.1,37.7-2.2,1.6-5.3,2.8-6.5,5-4.1,7.1-7.8,14.5-11.2,22-1.6,3.6-3.1,7.5-3.1,11.3.2,34.3.9,68.6,1.4,102.9-.7,4.6-1.3,9.1-2,13.7s-4.7,7.1-5.7,11.1,1.5,5.7,2.4,8.5l4,4.4c-1.4,2.1-2.4,4.5-4.1,6.2-4.9,4.9-9.4,10.7-15.2,14.1-19.5,11.1-40.5,10.8-61.7,5.9-1-3-2.9-6-2.9-9,.1-23.7.1-47.5.9-71.2C397.6,1025.1,399.3,1009.3,400.5,993.4Z" style="fill:#444053"/><path d="M523.9,619.5c-13.8-2.7-27.4-6.5-41.3-8-18.7-2-33.9-11.9-50.1-19.8-7.8-3.9-16-7-24.1-10.4-1.6-1.7-3.1-3.8-5.1-5-12.8-8-21.7-18.9-23.5-34.1-1.6-12.9-1.8-26-2.5-39.2-.6,1.5-1.1,3.1-1.7,4.7a10.6,10.6,0,0,1-2.1-5.7c-2-16-2.6-32.2-6.1-47.8-5.7-25.3-11.5-50.2-3-75.9,2.5-7.6,2.9-16.2,7-22.7,7.9-12.7,17.6-24.4,26.8-36.3s20-23.2,34.4-31c1.7,2.4,3.3,4.5,4.8,6.8,9.5,13.6,18.8,27.3,28.5,40.9,1.2,1.7,4.2,3.9,5.5,3.5,6.3-2.3,12.2-5.3,18.3-8.1l-.8-1.9c-4.5,1.8-9,4.1-13.7,5.2-2.2.6-6-.1-7.2-1.7-10.5-14.7-20.6-29.8-31-44.7-4.5-6.5-.2-12,2.2-17.3s7.5-6.4,12.9-3.6c4.2,6.7,7.6,14,12.7,19.8,10,11.6,20.9,22.4,31.5,33.5,3.8,3.9,7.9,7.6,11.3,11.9,9.9,12.2,16.9,25.4,16.4,41.9-.2,5.4,1.8,10.9,3.2,16.2,3.6,13.7,7.5,27.4,11.1,41.2.9,3.3,1.4,6.7,2.1,10,1.1,10.7,1.8,21.4,3.3,32.1.4,2.9,2.6,5.6,4,8.4l-67.3,8.4c4.4,4.3,7.4,7.3,10.5,10.2-5.2,7.6-10.9,14.9-15.3,22.9-1.8,3.2-7.9,6.3-3,11.5,3-2.9,6.5-5.5,8.8-9,4.9-7.1,9.1-14.7,13.6-22.2l27.9,24.5L491.5,551c2.4,2.2,4.2,5.1,6.7,5.8,8.4,2.7,17.1,4.6,25.6,6.7-.7,4.1.8,6.5,4.9,7.9,5.9,2.1,11.6,4.9,17.5,7s7.5,5.4,6,11l-12,20.9ZM431.2,507.3c-9.4,2.8-15.6,9.4-21,16.6l2.5,2.7,18.5-19.3.3-.6ZM374,407.5c-3.1,17.5-.1,81,4.5,87.9C377,465.7,375.5,435.7,374,407.5Zm8.7,111.8,38.7-21.9C404.8,497.5,385.6,507.6,382.7,519.3Zm98.4-128-2-.6c-8,14.9-8.3,16.6-3.7,24.6Zm17.2-63.5c-.1-.5-.3-.9-.4-1.4l-5,1.5.6,1.7Z" style="fill:#dbe5f1"/><path d="M480,1094.9l-4-4.4,20.4.2c14,1.1,28,3.7,41.9,2.8,11.2-.8,22.3-5.3,33.2-9.2,3.9-1.4,6.8-5.8,10.2-8.9,19.9.5,39.9.3,59.7,1.7,53.2,3.8,106.4,7.5,157.9,22.8,11.7,3.4,23,8.9,33.9,14.5s8,18.7-2.5,24.6c-23,13-48.2,18.7-73.9,23-20.8,3.4-41.7,6.3-62.6,8.9-12.7,1.6-25.5,2.5-38.3,3.2-17.4.8-34.8,1-52.2,1.6-13.3.4-26.7,1.6-40,1.4-32.5-.7-65.1-.9-97.5-3.2-45.8-3.3-91.7-7.5-136.3-19.5-14.2-3.8-28.2-7.6-40.2-16.8-8.9-6.7-9.6-13.3-1.8-21.3,9.2-9.6,21.4-13.3,33.6-16.3,21.2-5.3,42.6-9.7,64.1-13.6,5.3-.9,6.7-3.2,7.5-7.5a7.6,7.6,0,0,1,.1-1.5l3-64.1c1.4-6.7,2.9-13.3,4.3-19.9-1.2,15.9-2.9,31.7-3.5,47.5-.8,23.7-.8,47.5-.9,71.2,0,3,1.9,6,2.9,9,0,8.1,0,16.1.1,24.2-1.4,6.4-.9,11.8,7.4,12.4l68.7,4.2c2.7.4,5.5.6,8.2,1.2,25.9,5.4,50.9,2.2,75.4-7.3,13.5-5.2,16.7-11.4,10.9-22.7-1.5-2.8-2.3-7.1-4.7-8.2-6.8-3.4-14.3-5.5-21.5-8.1-5.5-.1-11,.2-16.5-.4-3.5-.4-7.7-1.3-10.2-3.6C506.2,1103.2,493,1099.4,480,1094.9Z" style="fill:#eeeaf7"/><path d="M791,666.8l-3,.8-3.1.8-21.2,4.1-3.1.5-6,.8-3.1.7-6,.3v-32l-13.7,3c-5.4,1.1-8.2,3.7-7.7,9.8.5,7.8.1,15.6.1,23.4l-51.7,9.1q.2-74.4.1-148.9H674c11.3,9.6,22.6,19.2,34,28.6,1.6,1.2,3.9,2.5,5.7,2.4,6.7-.7,13.4-2,20-3l57.2-8.2Z" style="fill:#6038bd"/><path d="M672.6,539.2q0,74.5-.1,148.9l-56-5.1c-.1-6.9-.1-13.8-.2-20.7,12.1.1,24.2.5,35.3-5.5,4.9-2.7,9.2-5.8,6.4-12.5-3.9-5-6.8-11.5-11.9-14.6-29.2-18.2-61.4-29.7-93.9-40.3,1.5-5.6-.5-9.1-6-11s-11.6-4.9-17.5-7c-4.1-1.4-5.6-3.8-4.9-7.9,24.9,1.6,49.8,3,74.6,4.8,15.5,1.1,31,3.1,46.5,4.1,2.8.2,6.9-1.9,8.5-4.2,6.3-9.4,11.9-19.3,17.7-29Z" style="fill:#653cc7"/><path d="M458.5,202c.1-4.1.1-8.2.2-12.2,8.4-3.4,5.1-10.8,5.7-16.9,4.9-15.2,18.1-18.6,31.4-21,30.3-5.5,56.7,3.7,78.1,25,6.8,6.8,10.7,17.6,13.2,27.4,1.8,7.4,4.6,12.6,10.9,15.9s12.6,5.1,18.5,8.5c2.9,1.7,6.6,5.3,6.5,7.9s-3.8,6.4-6.8,7.7c-11.3,4.9-22.5.6-32.8-10.7-3.4-3.6-8.3-5.7-12.6-8.6l-18-9.9c-10.6-9.2-23.2-12.8-36.9-13C496.8,201.9,477.6,202,458.5,202Z" style="fill:#454154"/><path d="M552.8,215.1l18,9.9c-.2,24.4-9.9,43-32.3,54a16.2,16.2,0,0,1-5.6,1.9c-16.6.9-22.5,13-27.5,26-3.1,4.6-6.1,9.2-9.1,13.8-10.6-11.1-21.5-21.9-31.5-33.5-5.1-5.8-8.5-13.1-12.7-19.8l3.3-7.8c4.6-1.2,9.6-4.1,13.9-3.2,6.9,1.3,9-1.1,10.2-7.1,1.9-10.1,3.6-20.4,6.7-30.2,1.2-3.7,6.2-8.7,9.4-8.7s8.7,4.1,11.5,7.7,2.1,7.6,3.1,11.5,1.3,6.5,2.7,9.4c2.4,5,6.8,5.3,10,.9a19.7,19.7,0,0,0,2.5-6.2c1.5-7.5,5.6-11.9,13.4-13.5C543.6,219.2,548.1,216.8,552.8,215.1Z" style="fill:#edb6b8"/><path d="M771.3,480.7l12.1.7,7.6,1,13.6.6,7.7.9,2.9.7L792,519.5h-5.6a7.3,7.3,0,0,0-2.6-1.4l-52.5-3.2c-8.7-.5-17.5-1-26.2-1.7l-56.9-4.3c0-.4.1-.8.1-1.2,13.6-10.4,26.8-21.3,40.9-30.7,4.1-2.8,11.1-1.2,16.8-1.6l6.1.8,13.6.7,6.2.7,12,.8,9.2,1,12.1.6Z" style="fill:#663cc7"/><path d="M786.4,519.5H792l46.7,30.6-38.5,6.6-9.3,2.3-57.2,8.2c-6.6,1-13.3,2.3-20,3-1.8.1-4.1-1.2-5.7-2.4-11.4-9.4-22.7-19-34-28.6.7-.9,1.4-2.5,2.2-2.7l42.5-6.4Z" style="fill:#744fcd"/><path d="M522.9,528.7,495,504.2l-4.1-3.2c-3.1-2.9-6.1-5.9-10.5-10.2l67.3-8.4c10.5-1.2,21-2.1,31.5-3.6,7-1,13-.1,19.2,3.7,14.4,8.7,29.2,16.6,43.8,24.8-4,1.1-7.9,2.6-12,3.3-28.2,4.6-56.5,8.9-84.7,13.6-3.9.6-7.4,2.9-11.1,4.4Z" style="fill:#663cc7"/><path d="M552.8,215.1c-4.7,1.7-9.2,4.1-14,5.1-7.8,1.6-11.9,6-13.4,13.5a19.7,19.7,0,0,1-2.5,6.2c-3.2,4.4-7.6,4.1-10-.9-1.4-2.9-1.9-6.2-2.7-9.4s-.9-8.6-3.1-11.5-7.5-7.6-11.5-7.7-8.2,5-9.4,8.7c-3.1,9.8-4.8,20.1-6.7,30.2-1.2,6-3.3,8.4-10.2,7.1-4.3-.9-9.3,2-13.9,3.2l-4.6.6c-9.6-2.4-9.8-2.8-6.3-12.3.3-1,.4-2,.6-3s-.1-.5,0-.7c2.7-14.6,1.8-30.4,13.4-42.2,19.1,0,38.3-.1,57.4.1C529.6,202.3,542.2,205.9,552.8,215.1Z" style="fill:#965e7b"/><path d="M523.9,619.5l16.3-9.2c1.6,1.9,3.1,4,4.8,5.8l38,38.5,7.2,4.6,4.9,3c-1.5,1.8-4,3.3-4.3,5.3-.7,4.2-.2,8.5-.3,12.8l-7.4-.8c-.3-11.1-.3-11.1-11.5-11.1a22.9,22.9,0,0,1-3.7-.1c-7.1-1.1-10.5,1.5-9.2,8.9L530.5,675l-6.6-1.2Z" style="fill:#653cc7"/><path d="M518,864.5c-.6-2.6-1.7-5.2-1.7-7.7-.2-31.1-.5-62.1,0-93.2.4-23.3,3.2-46.5,10.2-69,.6-1.8,2.3-3.3,3.5-4.9.1,35.1.1,70.3.4,105.5.1,13.6.3,27.3,1.4,40.9S527.6,857.5,518,864.5Z" style="fill:#3d3a4b"/><path d="M481.3,1057.2c-.5-34.3-1.2-68.6-1.4-102.9,0-3.8,1.5-7.7,3.1-11.3,3.4-7.5,7.1-14.9,11.2-22,1.2-2.2,4.3-3.4,6.5-5-1,31.1-2.2,62.2-7.7,93-.7,4.2,1.2,8.9,1.9,13.4l7.8,11.8Z" style="fill:#403d4d"/><path d="M450.8,260.2l4.6-.6-3.3,7.8c-5.4-2.8-10.4-1.6-12.9,3.6s-6.7,10.8-2.2,17.3c10.4,14.9,20.5,30,31,44.7,1.2,1.6,5,2.3,7.2,1.7,4.7-1.1,9.2-3.4,13.7-5.2l.8,1.9c-6.1,2.8-12,5.8-18.3,8.1-1.3.4-4.3-1.8-5.5-3.5-9.7-13.6-19-27.3-28.5-40.9-1.5-2.3-3.1-4.4-4.8-6.8-14.4,7.8-24.9,18.8-34.4,31s-18.9,23.6-26.8,36.3c-4.1,6.5-4.5,15.1-7,22.7-8.5,25.7-2.7,50.6,3,75.9,3.5,15.6,4.1,31.8,6.1,47.8a10.6,10.6,0,0,0,2.1,5.7c.6-1.6,1.1-3.2,1.7-4.7.7,13.2.9,26.3,2.5,39.2,1.8,15.2,10.7,26.1,23.5,34.1,2,1.2,3.5,3.3,5.1,5l-13.7-2.1c-5.9-8.5-14.4-15.4-16-26.5-.5-3.7-1.5-7.3-2.7-13.2-9.2,12.5-19.3,21.6-19.3,36.2-5.6-2.6-3.4-7-1.5-10.2,4.8-8.2,10.3-16,15.3-24.2,1.2-1.9,2.3-4.4,2.1-6.6-1-14.3-1.8-28.6-3.8-42.8-2.8-20.1-7.2-39.9-9.9-60.1-1.6-12.3-3.2-25.1-1.7-37.2,1.9-14.8,5.3-30,11.5-43.4s15.6-22,24.2-32.4,19.3-23.9,33.5-31.3c2.8-1.4,4.5-5.8,5.9-9.2,3.3-7.8,4.9-17.1,16.8-15.9C449.6,262.5,450.2,261,450.8,260.2Z" style="fill:#d1d3de"/><path d="M803.3,870.2v31.7H791.7V849.8c8.2-2.2,13.9-.7,17.8,7.7a96,96,0,0,0,15.1,22.8V849.5h11.7v52c-8,2.4-13.5.8-17.3-7.2s-9.4-16.4-14.2-24.5Z" style="fill:#6840c9"/><path d="M985.9,512.8c-14.7.4-25.6-5.6-32.7-18.1a7.2,7.2,0,0,1,.2-6.1c7.4-11.5,22.8-15.8,35.5-10.7s19.8,13.8,28,22.7c1,1.1,0,6.1-.8,6.3C1006.1,509.2,996,510.9,985.9,512.8Z" style="fill:#e3dbf5"/><path d="M534.4,528.6c3.7-1.5,7.2-3.8,11.1-4.4,28.2-4.7,56.5-9,84.7-13.6,4.1-.7,8-2.2,12-3.3l6.1.4c0,.4-.1.8-.1,1.2l-1.5,25.8c-7.1,0-14.2.3-21.2-.2C595.1,532.7,564.8,530.6,534.4,528.6Z" style="fill:#6038bd"/><path d="M1309.6,151.7c-9.6.9-15.6-5.5-22.2-9.7-1.4-.8-1.6-4.7-1.1-6.8,3.1-14.1,18.9-24.5,33-20.7,10.4,2.7,20.2,7.4,30.1,11.6,3.3,1.4,4.9,4.4,1.1,6.8a203.2,203.2,0,0,1-22.6,13C1322.2,148.6,1315.7,149.8,1309.6,151.7Zm9.9-23.7c-4,1.8-9.8-10.3-13.4,1.9Zm27.7,1.8c-4.4-1-8-9.3-14-1.3Zm-18.3-2.8-1.1-.7h-.8c.1.4.1.7.2,1Z" style="fill:#e3dbf5"/><path d="M854.6,317.1c0,3.3.4,5.2,0,6.8-1.1,4-2.6,7.9-3.9,11.9l-9.9-4.8c-9.5-4.7-18.2-9.9-24.5-19.1s-4.1-19-3.1-28.6c.2-1.4,4.5-3.4,6.8-3.3C845.2,281.5,853,291,854.6,317.1ZM839.1,327l11.4,3.7c-.8-4.4-1.6-9.2-2.4-13.9l-1.7.2v9.1Zm.4-28.7-9.5,5.6C834.1,303.1,839.1,305.7,839.5,298.3Zm2.8,8.8c-.4,1.1-1,1.8-.8,2.3s.9.8,1.4,1.2.8-1.2.8-1.7S843,307.9,842.3,307.1Zm3.7-6.4h1c-.1-1.5-.1-3-.2-4.5h-1Zm-5.2-10.5-1.2.3c.2,1.3.3,2.6.5,3.9h.7ZM820,302.4c-.1.3-.1.5-.2.8s.9.6,1.2.5a5.7,5.7,0,0,0,1.6-1.1Zm29.3,11,.3-.9-.5.2A2.5,2.5,0,0,0,849.3,313.4Z" style="fill:#e3dbf5"/><path d="M715,355.4l-7.9-.7-.7,2,13.2,2.2c-9,5.4-17.7,11.2-26.9,15.9-12.7,6.5-29.4,4.1-38.6-5-1.2-1.2-1.3-4.5-.6-6.3,6.2-15.5,17.8-25.8,36.7-20.5,8.8,2.5,17.2,6.4,25.7,9.7Zm-41-1a25.1,25.1,0,0,1,.4,2.7l20.1-2.4-.3-2.5Zm26.8-1.6-2,.5c.6,1.8,1.1,3.6,1.6,5.3l1.7-.4Zm-18-5.8a6.1,6.1,0,0,0-.5,1.2c.4.2.8.6,1.1.5s.4-.8.6-1.2Z" style="fill:#e3dbf5"/><path d="M1175.6,419.2c-6.4,1.8-9.4-1.5-10.6-9.1-2-12.4,3.1-23.6,14.4-29.5a56.6,56.6,0,0,1,31.2-6.9c5.4.4,6.9,2.9,4.7,8s-3.4,9.4-5.4,14.1C1204.1,409.5,1190.3,419.2,1175.6,419.2Zm35-40.7c-.1-.6-.1-1.1-.2-1.7l-17,4,8.6,4.7Zm-26,16v-2H1174v.5Zm3.2-7.7a19.5,19.5,0,0,1,.8,2.2l5.8-2-.9-2.3Zm-7.2,15.7c-3.4-1.8-4.2-2.7-4.9-2.6s-1.2,1.2-1.8,1.8,1.5,1.6,2.4,1.8S1178.2,403.1,1180.6,402.5Zm.8-17.8-.6.2c-.1.1.1.3.1.5l.6-.2C1181.6,385.2,1181.4,384.9,1181.4,384.7Z" style="fill:#e3dbf5"/><path d="M1372.7,364.5c3,7,10.2,10.5,16.5,16.4-18.4-1.6-36.5.6-50.2-12.2-5-4.6-7.2-12.2-10.1-18.7-.5-.9,2.1-4,3.8-4.9,21.3-11.4,34-6.7,47.6,13.5,1.3,1.8-.1,5.4-.4,9.2l-5.6-4.7Zm-4.1-10.6h-2.5c0,2.4,0,4.7.1,7.1a12.1,12.1,0,0,0,1.9,0C1368.3,358.6,1368.5,356.2,1368.6,353.9Zm-16.2-1.3a9.8,9.8,0,0,0,.5-1.6l-6-1.9-.5,1.7Zm6.3.2-1.1,1.1,2.8,2.6,1-1.2Zm-11.2-6.9-1.2-.5c-.2.4-.6.9-.5,1.2s.7.4,1.1.5Z" style="fill:#e3dbf5"/><path d="M914.7,902.2V849.7c7.6,0,15-1,22,.2,14.1,2.5,22.8,14,21.9,27.4s-11.3,24-25.8,24.9C927,902.6,921.2,902.2,914.7,902.2Zm10.6-11.1c8.5,1.5,15.5-.6,20.2-7.3a13.7,13.7,0,0,0-.6-17c-4.9-5.9-11.6-8.3-19.6-6.4Z" style="fill:#6a41c9"/><path d="M356.7,575.7c0-14.6,10.1-23.7,19.3-36.2,1.2,5.9,2.2,9.5,2.7,13.2,1.6,11.1,10.1,18,16,26.5-13.5-.7-13.1-.6-18.2,12.1-10.6,26.7-11.7,54-5.9,81.8a67.2,67.2,0,0,0,17.8,33.5c5,5.2,8.4,11.9,12.5,17.9-6.1-6.4-12.6-12.5-18.3-19.2-12.6-14.5-16.1-32.2-18.6-50.8-3.1-23.4,1.9-44.9,10.1-66.3.8-2.1,1.3-4.3,1.9-6.3l-17.7-4.7-1.6-1.5Z" style="fill:#d6d8e4"/><path d="M1322.4,863.3V847.1h9.6v56.1l-5.8-5.2c-15,6.9-23.3,6.4-30.7-1.8s-7-17.6-1.7-26S1308.3,859.2,1322.4,863.3Zm-11.4,8.3c-6.5,0-10.2,3.9-10.1,10.4s4.7,11.2,10.8,10.9a11,11,0,0,0,10.5-10.8C1322.3,876,1317.5,871.5,1311,871.6Z" style="fill:#6c44ca"/><path d="M1215.8,259.6c-12.3,2.3-24.9,4.2-36.1-2.7-5.9-3.7-10.2-9.8-15.7-15.2,5.2-9.5,12.7-15.3,22.6-16.5s18.7-.1,24.8,8.8c.1,2.4.3,4.8.4,7.2l-.9,1c-2.2-1.6-4.2-4.1-6.7-4.7-7.4-1.8-14.9-2.9-22.4-4.2l-1.9-.5.9,1.5-6,4.1c16.8.1,32.3,3.7,45.9,13.3Zm-25-29.3-1.5-.5.6,1.4,2.4,2.8.9-.7Zm11.2,4,1.4.9a12.1,12.1,0,0,0-.5-1.8l-3.6-4.2-1.3,1.3Zm1.6,12.5-.4-.5-.4.4a.9.9,0,0,0,.3.5Zm-26.2-15.4-.3.3h.5Z" style="fill:#6c44ca"/><path d="M496.3,320.7c3-4.6,6-9.2,9.1-13.8,6.1,6.9,13.8,13.1,17.9,21,3,5.6,1,13.7,1.5,20.6.3,3.8.3,8,2,11.2,8.2,16.7,14.3,33.7,13.7,52.7-.3,9.8-.1,19.7-.1,29.5-.7-3.3-1.2-6.7-2.1-10-3.6-13.8-7.5-27.5-11.1-41.2-1.4-5.3-3.4-10.8-3.2-16.2.5-16.5-6.5-29.7-16.4-41.9C504.2,328.3,500.1,324.6,496.3,320.7Z" style="fill:#c7ced9"/><path d="M1004,903.2l-5.9-5.3c-12.8,8.4-24.9,5.8-31.3-2.2s-5.8-20.4.7-28,18.2-8.5,30.4-1.5l6.1-4.1Zm-20.3-31.6c-7,.1-10.8,3.8-10.7,10.6s4,10.7,11,10.7c5.4,0,10.4-5.2,10.4-10.9A10.6,10.6,0,0,0,983.7,871.6Z" style="fill:#6c44ca"/><path d="M1086.5,903.4l-6-5.6c-12.7,7.2-24.1,6.3-31.5-2.5-5.7-6.7-5.5-20.2.4-26.8,7.8-8.7,18.8-9.4,30.9-2.1l6.2-4.2Zm-9.9-21.5c-.1-6.1-4.5-10.6-10.4-10.3s-9.2,4.4-9.4,10.4,4.1,10.9,9.8,10.9S1076.7,887.9,1076.6,881.9Z" style="fill:#6840c9"/><path d="M1029.1,186.7l-3,7.7-4.7-3.6-1.6.4c.8,3.2,1.7,6.4,2.5,9.6-7.3,9.6-15.7,16.6-29,15.4-10.8-.9-10.9-.6-11.1-12.4-.3-15.9,7.6-25.9,22.5-28.1,2-.3,4.2.3,6.3.6.6,2,1.1,4,1.9,6.8l7.7-2.4,1.1-1.3a1,1,0,0,1,1-.4Zm-42.1,14,3-.6.3,1.8v1.2l.9-1.1h3.1c.5,2.7.9,5.4,1.4,8.1l2-.5-3.3-10.8a4.9,4.9,0,0,0,.1-1.2l2.2-2.4,12.6-8.3c1,6,1.9,12,3.1,19.2,6.2-8.1-.7-13.4-1.8-19.3v-4.4H994.1c0,.3-.1.6-.1.8l10,1.3-8.2,9.8-2,2.7-3.9.8-3.7,2.1-2,2.1.7.6Zm2.5,5.5-.3-.5-.5.3a4.1,4.1,0,0,0,.5.9Z" style="fill:#6a41c9"/><path d="M1197.2,882.3c-.3,11.6-9.6,21.7-20.7,20.7-13.2-1.1-21.9-8.1-21.5-22.1.3-11.7,9.7-20,22.2-19.8S1197.5,870.4,1197.2,882.3Zm-10.3.3c.2-6-4.1-10.8-9.8-11s-9.8,3.5-10.1,9.6,3.5,11.3,9.1,11.7S1186.7,888.3,1186.9,882.6Z" style="fill:#6a41c9"/><path d="M1131.2,902h-12V849.7h37.6v9.7h-25.3v10.8h14.6V881h-14.9Z" style="fill:#653cc7"/><path d="M885,882.3c-.2,12.1-9.3,21-21.4,20.9a21,21,0,0,1-20.8-21.6c.2-12,9.3-20.6,21.6-20.5S885.2,869.9,885,882.3Zm-10.3-.5c-.2-6.5-4.3-10.3-11.3-10.2s-10.1,4.1-10.2,10.4a10.6,10.6,0,0,0,10.9,10.9C870.6,892.7,874.8,888.3,874.7,881.8Z" style="fill:#6a41c9"/><path d="M1029.5,347.8a28.2,28.2,0,0,0,.7,3.1l-9.7,3.8c-8.1-4.7-16.7-8.8-24.3-14.2s-7.2-16.9-8.3-26.1c-.2-1.2,3.4-4,5.4-4.2,6.4-.4,12.8,0,19.3.1l2.7,7.2v6.4l-5.5-2.2-6.3-8.8-.5-.7c0,.1-.1.3,0,.4l.5.3-.3,8.9-.4.9.8-.5,5.4.6c2.8,2.8,3.6,8.5,9.7,6.9h0l1.5,1.6h0l-.6,5.4,5.2,2.2h0l2.1,5,.6,1.3Zm-5.2-2.3a3.8,3.8,0,0,0-1.3-.4c-.2-.1-.4.2-.6.4s.6.6,1,.6S1024,345.7,1024.3,345.5Z" style="fill:#6c44ca"/><path d="M1228.7,863h11.2v36.9c-4.8.7-9.1.7-13,2.1a17.2,17.2,0,0,1-23-14.1,40.8,40.8,0,0,1-.4-6.1c-.1-6-.1-12.1-.1-18.6h10.4c0,6.4-.1,12.9,0,19.3s1.2,10.3,7.6,10.1,7.5-5,7.4-10.4S1228.7,869.7,1228.7,863Z" style="fill:#6a41c9"/><path d="M790.9,559l9.3-2.3c0,34.2-.1,68.3-.2,102.5,0,7.9-2.2,9.7-9,7.6Z" style="fill:#ddd7ea"/><path d="M1285.5,902h-10.3V891c0-12.9-3.3-20.1-9.4-18.8-11.3,2.4-6.3,12-7.2,18.8-.5,3.4-.1,7-.1,10.9h-9.9V864.5c4.2-.6,8.2-.7,11.8-1.9,12.5-3.8,24.2,3.6,25,16.6C1285.9,886.5,1285.5,893.8,1285.5,902Z" style="fill:#6c44ca"/><path d="M1041.1,892.8v8.6c-16.2,3-25.1-4.2-25.3-20.2,0-3.7,1.4-8.2-4.9-9.1-.9-.2-1.2-5.3-1.8-8.4,11.9-1.5,4.3-11,7.8-16.6h8.9c.3,5,.5,9.9.8,15.4h14.3v10l-13.4.7C1024.7,890.4,1025.3,891.3,1041.1,892.8Z" style="fill:#6c44ca"/><path d="M724.2,679c0-7.8.4-15.6-.1-23.4-.5-6.1,2.3-8.7,7.7-9.8l13.7-3v32Z" style="fill:#744fcd"/><path d="M590.5,680.3c.1-4.3-.4-8.6.3-12.8.3-2,2.8-3.5,4.3-5.3h21.2c.1,6.9.1,13.8.2,20.7Z" style="fill:#744fcd"/><path d="M838.7,550.1,792,519.5l23.2-34.9,5-1.6a18.3,18.3,0,0,0,1.3,1.6l-22.1,33.7,47,30.7Z" style="fill:#ddd7ea"/><path d="M400.9,724.5c1.5,3.2,4.2,6.4,4.2,9.6.3,19.7,1.8,39,10.3,57.5,3.6,7.8,4.2,17,6,25.6,2.2,10.6,4.3,21.3,6.5,32-1.5-1.6-3.8-3-4.2-4.8-3.4-16.2-6-32.6-9.7-48.7-2.1-9.2-6.8-17.9-8.7-27.1s-2-19.5-3-29.2C401.9,734.4,401.4,729.4,400.9,724.5Z" style="fill:#d6d8e4"/><path d="M1181.8,233.3c7.5,1.3,15,2.4,22.4,4.2,2.5.6,4.5,3.1,6.7,4.6h1.6a8.6,8.6,0,0,1-.7-1c-.1-2.4-.3-4.8-.4-7.2,2.1.7,4.7,1,6,2.4a134.1,134.1,0,0,1,12.3,14.8c2.9,3.9,1.3,6.5-3.5,7.1l-10.4,1.3,4.9-7.9c-13.6-9.6-29.1-13.2-45.9-13.3l6-4.1A4.7,4.7,0,0,1,1181.8,233.3Z" style="fill:#cabcec"/><path d="M464.4,172.9c-.6,6.1,2.7,13.5-5.7,16.9l-7.7,8.4c-6.4-9-5.5-13.5,4.1-19.3Z" style="fill:#965e7b"/><path d="M558.7,677.2c-1.3-7.4,2.1-10,9.2-8.9a22.9,22.9,0,0,0,3.7.1c11.2,0,11.2,0,11.5,11.1Z" style="fill:#744fcd"/><path d="M1020.6,180.7l-7.7,2.4c-.8-2.8-1.3-4.8-1.9-6.8h6.3c2.4-6.3,8.8-8,16.6-3.1v1.6h.1l-11.3,4.3a1,1,0,0,0-1,.4Z" style="fill:#ddd7ea"/><path d="M1015.3,317.5l-2.7-7.2,13.5,8.8-1.5,1.8a41.1,41.1,0,0,1-1.7,6,23.9,23.9,0,0,1-2.7,4.3h0l-1.5-1.6h0c-.2-2.6-.1-5.3-.7-7.8S1016.2,319,1015.3,317.5Z" style="fill:#744fcd"/><path d="M1020.5,354.7l9.7-3.8c2.1.5,4.7.4,6.1,1.7a6.5,6.5,0,0,1,1.5,5.7c-.3,1.2-3,1.7-4.7,2.5C1030.7,355.1,1024.1,357.9,1020.5,354.7Z" style="fill:#cabcec"/><path d="M1026.9,343.7l-2.1-5,6.2-10.6,4.4,13.7h0Z" style="fill:#cabcec"/><path d="M1031,328.1l-6.2,10.6h0c-.1-6-.1-12-.2-17.9l1.5-1.8Z" style="fill:#6c44ca"/><path d="M1022.7,179l11.3-4.3c-1.7,4-3.3,8-4.9,12Z" style="fill:#6c44ca"/><path d="M427.3,860l.6,15c-1.4-1.8-4.2-3.7-4.1-5.4C424.1,866.3,420.7,861.2,427.3,860Z" style="fill:#d6d8e4"/><path d="M1022.3,200.8c-.8-3.2-1.7-6.4-2.5-9.6l1.6-.4,4.7,3.6Z" style="fill:#6c44ca"/><path d="M1029.5,347.8l-2-2.8,7.9-3.2h0C1039,349.2,1033,347.4,1029.5,347.8Z" style="fill:#cabcec"/><path d="M753.1,479.4l-9.2-1Z" style="fill:#ddd7ea"/><path d="M402,981.3c-.4,3-.7,6.1-1.1,9.1C399,987.1,397.3,983.8,402,981.3Z" style="fill:#eeeaf7"/><path d="M403.5,969.1l-1.2,9.1C400.5,974.9,398.8,971.6,403.5,969.1Z" style="fill:#eeeaf7"/><path d="M791,482.4l-7.6-1Z" style="fill:#ddd7ea"/><path d="M406.5,947.8l-1.2,7.6Z" style="fill:#eeeaf7"/><path d="M812.3,483.9l-7.7-.9Z" style="fill:#ddd7ea"/><path d="M405,958.5c-.4,2.5-.7,5.1-1.1,7.6C404.3,963.6,404.6,961,405,958.5Z" style="fill:#eeeaf7"/><path d="M712.1,476.2l-6.1-.8Z" style="fill:#ddd7ea"/><path d="M411.1,919c-.5,2-.9,4-1.3,6C410.2,923,410.6,921,411.1,919Z" style="fill:#eeeaf7"/><path d="M731.9,477.6l-6.2-.7Z" style="fill:#ddd7ea"/><path d="M408,937.2c-.3,2.1-.7,4.1-1,6.1C407.3,941.3,407.7,939.3,408,937.2Z" style="fill:#eeeaf7"/><path d="M771.3,480.7l-6.1-.7Z" style="fill:#ddd7ea"/><path d="M409.6,928.1c-.5,2-.9,4-1.3,6.1C408.7,932.1,409.1,930.1,409.6,928.1Z" style="fill:#eeeaf7"/><path d="M412.5,911.4c-.3,1.5-.7,3-1.1,4.5C411.8,914.4,412.2,912.9,412.5,911.4Z" style="fill:#eeeaf7"/><path d="M751.5,674.5l3.1-.7Z" style="fill:#ddd7ea"/><path d="M413.8,905.3c-.3,1-.6,2-1,3C413.2,907.3,413.5,906.3,413.8,905.3Z" style="fill:#eeeaf7"/><path d="M415.5,897.7c-.3,1-.7,2-1,3.1Z" style="fill:#eeeaf7"/><path d="M784.9,668.4l3.1-.8Z" style="fill:#ddd7ea"/><path d="M760.6,673l3.1-.5Z" style="fill:#ddd7ea"/><path d="M356.7,575.7l1.6,1.5Z" style="fill:#d1d3de"/><path d="M1033.9,174.8v0Z" style="fill:#6c44ca"/><path d="M1305.6,1087.4l-11.1-7.9c-5-3.6-9.7-8.2-6.8-14.4,1.4-3,7-5.1,11-5.5,6.7-.7,9.8,3.9,10.3,10.4,0,.4.5.7,1.1,1.4,2.2-4.2,3.6-9,6.6-12.2s7-3.6,10.6-5.4c.8,3.9,2,7.7,2.4,11.7.2,1.7-1.1,3.6-2.3,7.5,4.1-2.8,6.5-4.2,8.8-5.9,6.3-4.7,11.7-5,14.7-.9s1,10.6-4.9,14.7c-2.7,1.8-5,3.9-8.7,6.9,16.1,2.8,31.7.8,46.9,11.2-5.8,2.3-9.4,4.4-13.3,5.2-25,5.3-50.2,5.4-75.5,3.8a290.1,290.1,0,0,1-29.3-3.9c-3.7-.6-7.3-2.7-10.9-5.5C1270,1088.4,1287.3,1090.6,1305.6,1087.4Z" style="fill:#6840c9"/><path d="M127.9,1131.2c-7.6-5.9-8.3-14.4-9.6-23.6,4.3-.6,8-.8,11.6-1.6,7.6-1.7,14.9-4.1,22.5-5.7,10-2.1,20-4.2,30.2-5.3,2.4-.3,5.7,3.1,7.7,5.6,4.8,5.8,9.2,11.9,13.5,18a41.3,41.3,0,0,1,4.5,7.9c3.4,7.7,1.2,11.5-7.2,12.4-4.2.4-8.5.3-12.8.5l-56.4-7.3-1.3-.4Z" style="fill:#a8a8a8"/><path d="M481.3,1057.2l21.4-23c8.8,4.1,18,7.4,26.2,12.5,6,3.8,11.3,6.8,18.6,5.3,2.6-.5,5.4.5,8.2.8,1.3,2.6,2.5,5.1,4.3,8.5-1.8,1.1-3.6,2.8-5.8,3.6-9.7,3.5-19.4,6.9-29.2,9.8a32.5,32.5,0,0,1-13.1,1.4c-10.9-1.3-21.7-3.4-32.6-5.2C480,1066.3,480.6,1061.8,481.3,1057.2Z" style="fill:#a36469"/><path d="M1423.6,571.1c-13.4.1-16.7-4.6-14.4-17,2.8-15.8,14.3-21.7,27.8-24.8,7.5-1.7,15.4-1.6,23.2-2.2,4.3-.3,6.5,2.6,4.6,6-5.3,9.3-10.8,18.7-17.3,27.2S1433.1,573,1423.6,571.1Z" style="fill:#f1eefa"/><path d="M898.8,124.5c-3.4,0-6.1.5-8.4-.1s-4.4-1.9-4.9-3.5a27.7,27.7,0,0,1,19.7-36c9.2-2.2,18.7-3.1,28.1-4.3,3.8-.5,7.4,1.8,5.4,5.6-5.3,9.9-10.9,19.7-17.6,28.6C915.6,122,907.7,126.2,898.8,124.5Zm34.8-39.8.6-.3c-.2-.2-.3-.4-.5-.4a.9.9,0,0,0-.5.3Z" style="fill:#f1eefa"/><path d="M1541.6,581.8h6.8c6.8.4,8.2,2.7,4.8,8.8-4.3,7.8-8.2,16.1-13.4,23.2-8.3,11.4-20.9,12.6-33.6,11.2-1.8-.2-4-3.8-4.4-6.1-2.9-13.5,4.8-28.1,17.7-33,7-2.6,14.5-3.6,21.8-5.3Zm6.5,11.6c.7-8.3.7-8.3-4.3-7.2C1545.2,588.7,1546.7,591.2,1548.1,593.4Zm-9.2-5.6-1.8,1.4c.5.5.9,1.3,1.4,1.3s1.1-.6,1.7-1Zm-8.8,6.3c-.9-.7-1.4-1.3-1.9-1.3s-1.1.6-1.6,1,.8,1.2,1.3,1.3S1529.1,594.6,1530.1,594.1Zm1.5-6.5v-1.2l-4.2.4a2.2,2.2,0,0,1,.1.8Zm6.8-3.5h-1c.2.1.3.4.5.4S1538.2,584.2,1538.4,584.1Zm-19.7,7.7-.9-.3v.5Z" style="fill:#f1eefa"/><path d="M1027.2,38.6c4.4,1.5,8.2,2.2,11.3,4.1,11.6,7.1,20.7,16.4,25.3,29.5,2.3,6.5,1,7.8-5.7,7.1-9.2-.8-18.7-.2-27.7-1.9-13.1-2.5-23-9.9-26.2-23.7-.5-2.2,1.2-6.4,3.1-7.3C1013.7,43.2,1020.7,41.1,1027.2,38.6Zm2.1,14.6,5.5,4.8,1.4-2.8-6.9-2c-5.4-4.3-5.4-4.3-10.4-1.1Zm12.1,8.8,2.6-.5-1.8-9.1-2.1.4C1040.5,55.9,1041,58.9,1041.4,62Zm12.6,4c-1.2-.8-1.9-1.8-2.5-1.7s-1.4.9-2.1,1.5,1.3,1.7,2.2,2.1S1052.9,66.9,1054,66Zm4.1.9-1.1-.4-1.3,3.9,1.3.4Zm-8.2-8.2a3.8,3.8,0,0,0-.1,1c.1-.1.3-.3.3-.4S1050,58.9,1049.9,58.7Z" style="fill:#f1eefa"/><path d="M877.6,33.1c-10.6.8-21.1-7.1-32.2-1.4l5.4,5.1c9.2-6.3,18.7-1.6,29.8-.3-15.1,9.7-28.1,21.2-45.8,19.3-7-.7-13.8-5.1-20.2-8.7-1.1-.6-.5-5.8.5-8.4,5.6-14.6,16.7-21.6,32.1-18.6,10.6,2.1,20.7,6.8,31.1,10.3ZM828.9,41l10.3-8.6-11.1,1.7c.3,2.5.6,4.7.8,6.9-.2.6-.3,1.3-.5,1.9Zm12.8-4a4.6,4.6,0,0,1,.3-.9h-.5A4.5,4.5,0,0,0,841.7,37Z" style="fill:#f1eefa"/><path d="M479.3,1070.9c10.9,1.8,21.7,3.9,32.6,5.2a32.5,32.5,0,0,0,13.1-1.4c9.8-2.9,19.5-6.3,29.2-9.8,2.2-.8,4-2.5,5.8-3.6-1.8-3.4-3-5.9-4.3-8.5,9,2.2,19.8,1.4,23.3,13.3-5.3,2.4-10.8,4.4-15.8,7.2-16.8,9.2-34.2,14.6-53.7,13.1-4.2-.4-8.7,2.8-13.1,4.3l-20.4-.2c-.9-2.8-3-6-2.4-8.5S477.3,1074.5,479.3,1070.9Z" style="fill:#935b5f"/><path d="M1149,1089.1c-4.6,1.5-9,3.7-13.7,4.2-21.3,2.6-42.6,3-63.8-1.3-2-.5-3.6-2.7-5.4-4.1,1.7-1.1,3.3-2.9,5.1-3.4,19.6-4.6,39.5-3.7,59.3-1.8,6.2.6,12.3,2,18.4,3.1Z" style="fill:#efebf9"/><path d="M1232.7,1185c20.4-8.6,72.1-8,84.4.7C1307.3,1195.7,1240.2,1195.5,1232.7,1185Z" style="fill:#efebf9"/><path d="M496.4,1090.7c4.4-1.5,8.9-4.7,13.1-4.3,19.5,1.5,36.9-3.9,53.7-13.1,5-2.8,10.5-4.8,15.8-7.2l2.7,9.3c-3.4,3.1-6.3,7.5-10.2,8.9-10.9,3.9-22,8.4-33.2,9.2C524.4,1094.4,510.4,1091.8,496.4,1090.7Z" style="fill:#a36469"/><path d="M127.9,1131.2l2.7.5,1.3.4,56.4,7.3c-4.9,1.9-9.6,5.1-14.6,5.5-20,1.8-40.1,2.3-60-1.2-2.5-.5-4.8-2.1-7.2-3.2l-.3-2.8,15.6-4.5Z" style="fill:#eeeaf7"/><path d="M399.1,1145.3c-.1-8.1-.1-16.1-.1-24.2,21.2,4.9,42.2,5.2,61.7-5.9,5.8-3.4,10.3-9.2,15.2-14.1,1.7-1.7,2.7-4.1,4.1-6.2,13,4.5,26.2,8.3,36.8,17.9,2.5,2.3,6.7,3.2,10.2,3.6,5.5.6,11,.3,16.5.4.4,1.5.4,3.2,1.2,4.3,6.1,7.3,6,7.9-2.9,10.8s-19,4.2-27.3,8.6c-10.8,5.8-21.1,5.4-32.1,2.4-3.9-1.1-7.8-2.4-11.8-2.8-12.6-1.4-25.5-3.6-33.4,10.6-.7,1.3-4.4,1.6-6.5,1.2C420.1,1149.9,409.6,1147.5,399.1,1145.3Z" style="fill:#a36469"/><path d="M534.4,528.6c30.4,2,60.7,4.1,91.1,5.9,7,.5,14.1.2,21.2.2l7.8,1.5,16.6,3c-5.8,9.7-11.4,19.6-17.7,29-1.6,2.3-5.7,4.4-8.5,4.2-15.5-1-31-3-46.5-4.1-24.8-1.8-49.7-3.2-74.6-4.8-8.5-2.1-17.2-4-25.6-6.7-2.5-.7-4.3-3.6-6.7-5.8l31.4-22.3Z" style="fill:#744fcd"/><path d="M583,654.6l-38-38.5c-1.7-1.8-3.2-3.9-4.8-5.8l12-20.9c32.5,10.6,64.7,22.1,93.9,40.3,5.1,3.1,8,9.6,11.9,14.6-4.6,3.9-8.6,9.6-13.9,11.4C623.8,662.7,603.3,658.8,583,654.6Z" style="fill:#edb6b8"/><path d="M490.9,501l4.1,3.2c-4.5,7.5-8.7,15.1-13.6,22.2-2.3,3.5-5.8,6.1-8.8,9-4.9-5.2,1.2-8.3,3-11.5C480,515.9,485.7,508.6,490.9,501Z" style="fill:#c7ced9"/><path d="M374,407.5c1.5,28.2,3,58.2,4.5,87.9C373.9,488.5,370.9,425,374,407.5Z" style="fill:#d1d3de"/><path d="M382.7,519.3c2.9-11.7,22.1-21.8,38.7-21.9Z" style="fill:#c7ced9"/><path d="M481.1,391.3l-5.7,24c-4.6-8-4.3-9.7,3.7-24.6Z" style="fill:#c7ced9"/><path d="M431.2,507.3l-18.5,19.3-2.5-2.7c5.4-7.2,11.6-13.8,21-16.6Z" style="fill:#c7ced9"/><path d="M498.3,327.8l-4.8,1.8-.6-1.7,5-1.5C498,326.9,498.2,327.3,498.3,327.8Z" style="fill:#d1d3de"/><path d="M431.2,507.3l.3-.6-.3.6Z" style="fill:#c7ced9"/><path d="M399.1,1145.3c10.5,2.2,21,4.6,31.6,6.6,2.1.4,5.8.1,6.5-1.2,7.9-14.2,20.8-12,33.4-10.6,4,.4,7.9,1.7,11.8,2.8,11,3,21.3,3.4,32.1-2.4,8.3-4.4,18.2-5.7,27.3-8.6s9-3.5,2.9-10.8c-.8-1.1-.8-2.8-1.2-4.3,7.2,2.6,14.7,4.7,21.5,8.1,2.4,1.1,3.2,5.4,4.7,8.2-10,4.7-19.9,9.8-30.1,14-15.3,6.4-30.6,12.8-48,9.1-5.9-1.2-12.7-1.4-16.4,5.7l-68.7-4.2C398.2,1157.1,397.7,1151.7,399.1,1145.3Z" style="fill:#935b5f"/><path d="M475.2,1161.9c3.7-7.1,10.5-6.9,16.4-5.7,17.4,3.7,32.7-2.7,48-9.1,10.2-4.2,20.1-9.3,30.1-14,5.8,11.3,2.6,17.5-10.9,22.7-24.5,9.5-49.5,12.7-75.4,7.3C480.7,1162.5,477.9,1162.3,475.2,1161.9Z" style="fill:#a36469"/><path d="M671.1,539.2l-16.6-3-7.8-1.5,1.5-25.8,56.9,4.3c8.7.7,17.5,1.2,26.2,1.7l52.5,3.2a7.3,7.3,0,0,1,2.6,1.4l-67.7,10.6-42.5,6.4c-.8.2-1.5,1.8-2.2,2.7h-2.9Z" style="fill:#5b35b4"/><path d="M583,654.6c20.3,4.2,40.8,8.1,61.1,1.1,5.3-1.8,9.3-7.5,13.9-11.4,2.8,6.7-1.5,9.8-6.4,12.5-11.1,6-23.2,5.6-35.3,5.5H595.1l-4.9-3Z" style="fill:#6038bd"/><path d="M1319.5,128l-13.4,1.9C1309.7,117.7,1315.5,129.8,1319.5,128Z" style="fill:#efebf9"/><path d="M1347.2,129.8l-14-1.3C1339.2,120.5,1342.8,128.8,1347.2,129.8Z" style="fill:#efebf9"/><path d="M1328.9,127l-1.7.3c-.1-.3-.1-.6-.2-1h.8Z" style="fill:#efebf9"/><path d="M839.1,327l7.3-.9V317l1.7-.2c.8,4.7,1.6,9.5,2.4,13.9Z" style="fill:#efebf9"/><path d="M839.5,298.3c-.4,7.4-5.4,4.8-9.5,5.6Z" style="fill:#efebf9"/><path d="M842.3,307.1c.7.8,1.4,1.3,1.4,1.8s-.5,1.1-.8,1.7-1.3-.7-1.4-1.2S841.9,308.2,842.3,307.1Z" style="fill:#efebf9"/><path d="M846,300.7l-.2-4.4h1c.1,1.5.1,3,.2,4.5Z" style="fill:#efebf9"/><path d="M840.8,290.2v4.2h-.7c-.2-1.3-.3-2.6-.5-3.9Z" style="fill:#efebf9"/><path d="M820,302.4l2.6.2a5.7,5.7,0,0,1-1.6,1.1c-.3.1-.8-.3-1.2-.5S819.9,302.7,820,302.4Z" style="fill:#efebf9"/><path d="M849.3,313.4a2.5,2.5,0,0,1-.2-.7l.5-.2Z" style="fill:#efebf9"/><path d="M674,354.4l20.2-2.2.3,2.5-20.1,2.4A25.1,25.1,0,0,0,674,354.4Z" style="fill:#efebf9"/><path d="M700.8,352.8l1.3,5.4-1.7.4c-.5-1.7-1-3.5-1.6-5.3Z" style="fill:#efebf9"/><path d="M682.8,347l1.2.5c-.2.4-.3,1-.6,1.2s-.7-.3-1.1-.5A6.1,6.1,0,0,1,682.8,347Z" style="fill:#efebf9"/><path d="M1210.6,378.5l-8.6,7-8.6-4.7,17-4C1210.5,377.4,1210.5,377.9,1210.6,378.5Z" style="fill:#efebf9"/><path d="M1184.6,394.5,1174,393v-.5h10.6Z" style="fill:#efebf9"/><path d="M1187.8,386.8l5.7-2.1.9,2.3-5.8,2A19.5,19.5,0,0,0,1187.8,386.8Z" style="fill:#efebf9"/><path d="M1180.6,402.5c-2.4.6-3.5,1.2-4.3,1s-1.6-1.2-2.4-1.8,1.1-1.6,1.8-1.8S1177.2,400.7,1180.6,402.5Z" style="fill:#efebf9"/><path d="M1181.4,384.7c0,.2.2.5.1.5l-.6.2c0-.2-.2-.4-.1-.5Z" style="fill:#efebf9"/><path d="M1368.6,353.9c-.1,2.3-.3,4.7-.5,7a12.1,12.1,0,0,1-1.9,0c-.1-2.4-.1-4.7-.1-7.1Z" style="fill:#efebf9"/><path d="M1352.4,352.6l-6-1.8.5-1.7,6,1.9A9.8,9.8,0,0,1,1352.4,352.6Z" style="fill:#efebf9"/><path d="M1358.7,352.8l2.7,2.5-1,1.2-2.8-2.6Z" style="fill:#efebf9"/><path d="M1347.5,345.9l-.6,1.2c-.4-.1-1-.2-1.1-.5s.3-.8.5-1.2Z" style="fill:#efebf9"/><path d="M925.3,891.1V860.4c8-1.9,14.7.5,19.6,6.4a13.7,13.7,0,0,1,.6,17C940.8,890.5,933.8,892.6,925.3,891.1Z" style="fill:#e9e4f7"/><path d="M1311,871.6c6.5-.1,11.3,4.4,11.2,10.5a11,11,0,0,1-10.5,10.8c-6.1.3-10.8-4.4-10.8-10.9S1304.5,871.6,1311,871.6Z" style="fill:#e9e4f7"/><path d="M1202,234.3l-4-3.8,1.3-1.3,3.6,4.2Z" style="fill:#cabcec"/><path d="M1190.8,230.3l2.4,3-.9.7-2.4-2.8Z" style="fill:#cabcec"/><path d="M1203.6,246.8l-.5.4a.9.9,0,0,1-.3-.5l.4-.4Z" style="fill:#cabcec"/><path d="M1202.9,233.4a12.1,12.1,0,0,1,.5,1.8l-1.4-.9Z" style="fill:#cabcec"/><path d="M1180.8,234.3l-.9-1.5,1.9.5A4.7,4.7,0,0,0,1180.8,234.3Z" style="fill:#cabcec"/><polygon points="1177.4 231.4 1177.6 231.8 1177.1 231.7 1177.4 231.4" style="fill:#cabcec"/><path d="M1189.9,231.2l-.6-1.4,1.5.5Z" style="fill:#cabcec"/><path d="M983.7,871.6A10.6,10.6,0,0,1,994.4,882c0,5.7-5,10.9-10.4,10.9-7,0-11-3.9-11-10.7S976.7,871.7,983.7,871.6Z" style="fill:#e9e4f7"/><path d="M1076.6,881.9c.1,6-4.4,11-10,11s-10-4.7-9.8-10.9,2.8-10.2,9.4-10.4S1076.5,875.8,1076.6,881.9Z" style="fill:#e9e4f7"/><path d="M1009.4,186.9l-12.6,8.3-1-.9,8.2-9.8-10-1.3c0-.2.1-.5.1-.8h16.6v4.4Z" style="fill:#ddd7ea"/><path d="M1009.4,186.9h1.3c1.1,5.9,8,11.2,1.8,19.3C1011.3,198.9,1010.4,192.9,1009.4,186.9Z" style="fill:#cabcec"/><path d="M994.5,198.8l3.3,10.8-2,.5c-.5-2.7-.9-5.4-1.4-8.1C994.4,200.9,994.5,199.9,994.5,198.8Z" style="fill:#cabcec"/><path d="M994.5,198.8c0,1.1-.1,2.1-.1,3.2h-4.1l-.3-1.8a17.7,17.7,0,0,0-.1-2.3l3.9-.8.8.6A4.9,4.9,0,0,1,994.5,198.8Z" style="fill:#ddd7ea"/><path d="M989.9,197.8a17.7,17.7,0,0,1,.1,2.3l-3,.6-.8-.9C987.5,199.2,988.7,198.5,989.9,197.8Z" style="fill:#cabcec"/><path d="M987,200.7l-2.1,1.9-.7-.6a20.9,20.9,0,0,0,2-2.2Z" style="fill:#cabcec"/><path d="M989.5,206.2l-.3.7a4.1,4.1,0,0,1-.5-.9l.5-.3Z" style="fill:#cabcec"/><path d="M996.8,195.2l-2.2,2.4-.8-.6,2-2.7Z" style="fill:#ddd7ea"/><path d="M1020.6,180.7l1.1-1.3Z" style="fill:#6c44ca"/><path d="M990.3,201.9h1l-.9,1.1Z" style="fill:#cabcec"/><path d="M1186.9,882.6c-.2,5.7-5.4,10.6-10.8,10.3s-9.4-5.3-9.1-11.7,4.2-9.8,10.1-9.6S1187.1,876.6,1186.9,882.6Z" style="fill:#e9e4f7"/><path d="M874.7,881.8c.1,6.5-4.1,10.9-10.6,11.1A10.6,10.6,0,0,1,853.2,882c.1-6.3,4-10.4,10.2-10.4S874.5,875.3,874.7,881.8Z" style="fill:#e9e4f7"/><path d="M1015.3,317.5c.9,1.5,2.3,2.8,2.7,4.4s.5,5.2.7,7.8c-6.1,1.6-6.9-4.1-9.7-6.9l.8-1.1,5.5,2.2Z" style="fill:#cabcec"/><path d="M1024.6,320.9c.1,5.9.1,11.9.2,17.9l-5.2-2.2.6-5.4a23.9,23.9,0,0,0,2.7-4.3A41.1,41.1,0,0,0,1024.6,320.9Z" style="fill:#cabcec"/><path d="M1003.2,321.7l.3-8.8h0l6.3,8.8-.8,1.1-5.4-.6Z" style="fill:#cabcec"/><path d="M1035.4,341.8l-7.9,3.2-.6-1.3Z" style="fill:#efebf9"/><path d="M1024.3,345.5c-.3.2-.6.6-.9.6s-.7-.4-1-.6.4-.5.6-.4A3.8,3.8,0,0,1,1024.3,345.5Z" style="fill:#cabcec"/><path d="M1003.6,322.2l-.8.5.4-.9C1003.2,321.7,1003.6,322.2,1003.6,322.2Z" style="fill:#cabcec"/><path d="M1003.5,312.9l-.5-.3c-.1-.1,0-.3,0-.4l.5.7Z" style="fill:#cabcec"/><path d="M1018.7,329.6l1.5,1.6Z" style="fill:#cabcec"/><path d="M1211.8,241.2a8.6,8.6,0,0,0,.7,1h-1.6Z" style="fill:#6c44ca"/><path d="M131.9,1132.1l-1.3-.4Z" style="fill:#fefefe"/><path d="M933.6,84.7l-.4-.4a.9.9,0,0,1,.5-.3c.2,0,.3.2.5.4Z" style="fill:#fefefe"/><path d="M1548.1,593.4c-1.4-2.2-2.9-4.7-4.3-7.2C1548.8,585.1,1548.8,585.1,1548.1,593.4Z" style="fill:#fefefe"/><path d="M1538.9,587.8l1.3,1.7c-.6.4-1.2,1.1-1.7,1s-.9-.8-1.4-1.3Z" style="fill:#fefefe"/><path d="M1530.1,594.1c-1,.5-1.6,1.1-2.2,1s-.9-.9-1.3-1.3,1.1-1,1.6-1S1529.2,593.4,1530.1,594.1Z" style="fill:#fefefe"/><path d="M1531.6,587.6h-4.1a2.2,2.2,0,0,0-.1-.8l4.2-.4Z" style="fill:#fefefe"/><path d="M1538.4,584.1c-.2.1-.3.3-.5.3s-.3-.3-.5-.4Z" style="fill:#fefefe"/><path d="M1518.7,591.8l-.8.2v-.5Z" style="fill:#fefefe"/><path d="M1041.4,62c-.4-3.1-.9-6.1-1.3-9.2l2.1-.4,1.8,9.1Z" style="fill:#fefefe"/><path d="M1029.3,53.2l-10.4-1.1c5-3.2,5-3.2,10.4,1.1Z" style="fill:#fefefe"/><path d="M1054,66c-1.1.9-2,2-2.4,1.9s-1.5-1.4-2.2-2.1,1.4-1.5,2.1-1.5S1052.8,65.2,1054,66Z" style="fill:#fefefe"/><path d="M1029.3,53.2l6.9,2-1.4,2.8-5.5-4.8Z" style="fill:#fefefe"/><path d="M1058.1,66.9l-1.1,3.9-1.3-.4,1.3-3.9Z" style="fill:#fefefe"/><path d="M1049.9,58.7c.1.2.3.4.2.6s-.2.3-.3.4A3.8,3.8,0,0,1,1049.9,58.7Z" style="fill:#fefefe"/><path d="M828.9,41c-.2-2.2-.5-4.4-.8-6.9l11.1-1.7L828.9,41Z" style="fill:#fefefe"/><path d="M828.9,41l-.5,1.9c.2-.6.3-1.3.5-1.9Z" style="fill:#fefefe"/><path d="M841.7,37a4.5,4.5,0,0,1-.2-.8h.5A4.6,4.6,0,0,0,841.7,37Z" style="fill:#fefefe"/></svg>