<svg id="ff681c9b-bc78-4afa-a255-ef3aca1fcda3" data-name="Слой 1" xmlns="http://www.w3.org/2000/svg" viewBox="0 0 135 100"><path id="e603e34a-cda4-4e2b-bfbb-3e561584fe0c" data-name="Path 652" d="M132.2,68.4h-9.8L108.9,17.5C106.8,10,100,5.3,91.1,5.3a18.9,18.9,0,0,0-8.4,2A18.8,18.8,0,0,0,67.3,0,18.7,18.7,0,0,0,52,7.3a18.9,18.9,0,0,0-8.4-2c-8.9,0-15.7,4.7-17.8,12.3L21.1,35.2a2.6,2.6,0,1,0,5.1,1.4l4.7-17.7c1.4-5.2,6.2-8.3,12.7-8.3a12.3,12.3,0,0,1,6,1.4,22,22,0,0,0-.7,3.7L45,68.4H17.7l3.1-11.5a2.7,2.7,0,0,0-1.9-3.2,2.6,2.6,0,0,0-3.2,1.9L12.2,68.4H2.5A2.7,2.7,0,0,0-.2,71.1h0A18.5,18.5,0,0,0,18.3,89.5h9.5v2.6a7.9,7.9,0,0,0,7.9,7.9H99a7.9,7.9,0,0,0,7.9-7.9V89.5h9.5a18.4,18.4,0,0,0,18.4-18.4,2.6,2.6,0,0,0-2.6-2.7ZM103.8,18.9,117,68.4H89.7l-4-52.7a22,22,0,0,0-.6-3.7,12.3,12.3,0,0,1,6-1.4c6.5,0,11.3,3.1,12.7,8.3ZM54.2,16.1c.5-6.9,6.4-10.8,13.1-10.8S79.9,9.2,80.5,16.1l3.9,52.3H50.3Zm47.4,76A2.7,2.7,0,0,1,99,94.8H35.7a2.6,2.6,0,0,1-2.6-2.7V89.5h68.5Zm14.8-7.9H18.3A13.1,13.1,0,0,1,5.4,73.7H129.3a13.3,13.3,0,0,1-12.9,10.5Z" style="fill:#df2b67"/></svg>